<svg xmlns="http://www.w3.org/2000/svg" xmlns:xlink="http://www.w3.org/1999/xlink" contentStyleType="text/css" data-diagram-type="ACTIVITY" height="513px" preserveAspectRatio="none" style="width:769px;height:513px;background:#FFFFFF;" version="1.1" viewBox="0 0 769 513" width="769px" zoomAndPan="magnify"><defs/><g><ellipse cx="375.8535" cy="20" fill="#222222" rx="10" ry="10" style="stroke:#222222;stroke-width:1;"/><rect fill="none" height="420.0469" style="stroke:#000000;stroke-width:1.5;" width="747.707" x="11" y="40"/><path d="M141.3057,40 L141.3057,49.2969 L131.3057,59.2969 L11,59.2969" fill="none" style="stroke:#000000;stroke-width:1.5;"/><text fill="#000000" font-family="sans-serif" font-size="14" lengthAdjust="spacing" textLength="120.3057" x="14" y="53.9951">publish_workflow</text><line style="stroke:#181818;stroke-width:1.5;" x1="68.3525" x2="660.1504" y1="76.2969" y2="76.2969"/><polygon fill="#F1F1F1" points="23,96.2969,123.7051,96.2969,113.7051,113.2813,123.7051,130.2656,23,130.2656" style="stroke:#181818;stroke-width:0.5;"/><text fill="#000000" font-family="sans-serif" font-size="12" lengthAdjust="spacing" textLength="70.7051" x="33" y="117.4355">workflow_id</text><polygon fill="#F1F1F1" points="133.7051,96.2969,222.5684,96.2969,212.5684,113.2813,222.5684,130.2656,133.7051,130.2656" style="stroke:#181818;stroke-width:0.5;"/><text fill="#000000" font-family="sans-serif" font-size="12" lengthAdjust="spacing" textLength="58.8633" x="143.7051" y="117.4355">project_id</text><polygon fill="#F1F1F1" points="232.5684,96.2969,344.5117,96.2969,334.5117,113.2813,344.5117,130.2656,232.5684,130.2656" style="stroke:#181818;stroke-width:0.5;"/><text fill="#000000" font-family="sans-serif" font-size="12" lengthAdjust="spacing" textLength="81.9434" x="242.5684" y="117.4355">project_name</text><polygon fill="#F1F1F1" points="372.5117,96.2969,573.5938,96.2969,563.5938,113.2813,573.5938,130.2656,372.5117,130.2656" style="stroke:#181818;stroke-width:0.5;"/><text fill="#000000" font-family="sans-serif" font-size="12" lengthAdjust="spacing" textLength="171.082" x="382.5117" y="117.4355">ogc_api_processes_endpoint</text><polygon fill="#F1F1F1" points="583.5938,96.2969,746.707,96.2969,736.707,113.2813,746.707,130.2656,583.5938,130.2656" style="stroke:#181818;stroke-width:0.5;"/><text fill="#000000" font-family="sans-serif" font-size="12" lengthAdjust="spacing" textLength="133.1133" x="593.5938" y="117.4355">cwl_workflow_location</text><line style="stroke:#181818;stroke-width:1.5;" x1="68.3525" x2="660.1504" y1="150.2656" y2="150.2656"/><rect fill="#F1F1F1" height="47.9375" rx="12.5" ry="12.5" style="stroke:#181818;stroke-width:0.5;" width="275.3105" x="238.1982" y="170.2656"/><text fill="#000000" font-family="sans-serif" font-size="12" lengthAdjust="spacing" textLength="149.9707" x="248.1982" y="191.4043">step: sync_git_repository</text><text fill="#000000" font-family="sans-serif" font-size="12" lengthAdjust="spacing" textLength="255.3105" x="248.1982" y="205.373">CommandLineTool: sync_git_repository_cli</text><rect fill="#F1F1F1" height="47.9375" rx="12.5" ry="12.5" style="stroke:#181818;stroke-width:0.5;" width="262.2734" x="244.7168" y="238.2031"/><text fill="#000000" font-family="sans-serif" font-size="12" lengthAdjust="spacing" textLength="136.9336" x="254.7168" y="259.3418">step: publish_workflow</text><text fill="#000000" font-family="sans-serif" font-size="12" lengthAdjust="spacing" textLength="242.2734" x="254.7168" y="273.3105">CommandLineTool: publish_workflow_cli</text><rect fill="#F1F1F1" height="47.9375" rx="12.5" ry="12.5" style="stroke:#181818;stroke-width:0.5;" width="268.168" x="241.7695" y="306.1406"/><text fill="#000000" font-family="sans-serif" font-size="12" lengthAdjust="spacing" textLength="142.8281" x="251.7695" y="327.2793">step: commit_and_push</text><text fill="#000000" font-family="sans-serif" font-size="12" lengthAdjust="spacing" textLength="248.168" x="251.7695" y="341.248">CommandLineTool: commit_and_push_cli</text><line style="stroke:#181818;stroke-width:1.5;" x1="370.8535" x2="375.8535" y1="374.0781" y2="374.0781"/><polygon fill="#F1F1F1" points="351.0273,394.0781,390.6797,394.0781,400.6797,411.0625,390.6797,428.0469,351.0273,428.0469" style="stroke:#181818;stroke-width:0.5;"/><text fill="#000000" font-family="sans-serif" font-size="12" lengthAdjust="spacing" textLength="19.6523" x="361.0273" y="415.2168">out</text><line style="stroke:#181818;stroke-width:1.5;" x1="370.8535" x2="375.8535" y1="448.0469" y2="448.0469"/><ellipse cx="375.8535" cy="491.0469" fill="none" rx="11" ry="11" style="stroke:#222222;stroke-width:1;"/><ellipse cx="375.8535" cy="491.0469" fill="#222222" rx="6" ry="6" style="stroke:#222222;stroke-width:1;"/><line style="stroke:#181818;stroke-width:1;" x1="68.3525" x2="68.3525" y1="77.7969" y2="96.2969"/><polygon fill="#181818" points="64.3525,86.2969,68.3525,96.2969,72.3525,86.2969,68.3525,90.2969" style="stroke:#181818;stroke-width:1;"/><line style="stroke:#181818;stroke-width:1;" x1="173.1367" x2="173.1367" y1="77.7969" y2="96.2969"/><polygon fill="#181818" points="169.1367,86.2969,173.1367,96.2969,177.1367,86.2969,173.1367,90.2969" style="stroke:#181818;stroke-width:1;"/><line style="stroke:#181818;stroke-width:1;" x1="283.54" x2="283.54" y1="77.7969" y2="96.2969"/><polygon fill="#181818" points="279.54,86.2969,283.54,96.2969,287.54,86.2969,283.54,90.2969" style="stroke:#181818;stroke-width:1;"/><line style="stroke:#181818;stroke-width:1;" x1="468.0527" x2="468.0527" y1="77.7969" y2="96.2969"/><polygon fill="#181818" points="464.0527,86.2969,468.0527,96.2969,472.0527,86.2969,468.0527,90.2969" style="stroke:#181818;stroke-width:1;"/><line style="stroke:#181818;stroke-width:1;" x1="660.1504" x2="660.1504" y1="77.7969" y2="96.2969"/><polygon fill="#181818" points="656.1504,86.2969,660.1504,96.2969,664.1504,86.2969,660.1504,90.2969" style="stroke:#181818;stroke-width:1;"/><line style="stroke:#181818;stroke-width:1;" x1="68.3525" x2="68.3525" y1="130.2656" y2="150.2656"/><polygon fill="#181818" points="64.3525,140.2656,68.3525,150.2656,72.3525,140.2656,68.3525,144.2656" style="stroke:#181818;stroke-width:1;"/><line style="stroke:#181818;stroke-width:1;" x1="173.1367" x2="173.1367" y1="130.2656" y2="150.2656"/><polygon fill="#181818" points="169.1367,140.2656,173.1367,150.2656,177.1367,140.2656,173.1367,144.2656" style="stroke:#181818;stroke-width:1;"/><line style="stroke:#181818;stroke-width:1;" x1="283.54" x2="283.54" y1="130.2656" y2="150.2656"/><polygon fill="#181818" points="279.54,140.2656,283.54,150.2656,287.54,140.2656,283.54,144.2656" style="stroke:#181818;stroke-width:1;"/><line style="stroke:#181818;stroke-width:1;" x1="468.0527" x2="468.0527" y1="130.2656" y2="150.2656"/><polygon fill="#181818" points="464.0527,140.2656,468.0527,150.2656,472.0527,140.2656,468.0527,144.2656" style="stroke:#181818;stroke-width:1;"/><line style="stroke:#181818;stroke-width:1;" x1="660.1504" x2="660.1504" y1="130.2656" y2="150.2656"/><polygon fill="#181818" points="656.1504,140.2656,660.1504,150.2656,664.1504,140.2656,660.1504,144.2656" style="stroke:#181818;stroke-width:1;"/><line style="stroke:#181818;stroke-width:1;" x1="375.8535" x2="375.8535" y1="151.7656" y2="170.2656"/><polygon fill="#181818" points="371.8535,160.2656,375.8535,170.2656,379.8535,160.2656,375.8535,164.2656" style="stroke:#181818;stroke-width:1;"/><line style="stroke:#181818;stroke-width:1;" x1="375.8535" x2="375.8535" y1="218.2031" y2="238.2031"/><polygon fill="#181818" points="371.8535,228.2031,375.8535,238.2031,379.8535,228.2031,375.8535,232.2031" style="stroke:#181818;stroke-width:1;"/><line style="stroke:#181818;stroke-width:1;" x1="375.8535" x2="375.8535" y1="286.1406" y2="306.1406"/><polygon fill="#181818" points="371.8535,296.1406,375.8535,306.1406,379.8535,296.1406,375.8535,300.1406" style="stroke:#181818;stroke-width:1;"/><line style="stroke:#181818;stroke-width:1;" x1="370.8535" x2="370.8535" y1="375.5781" y2="394.0781"/><polygon fill="#181818" points="366.8535,384.0781,370.8535,394.0781,374.8535,384.0781,370.8535,388.0781" style="stroke:#181818;stroke-width:1;"/><line style="stroke:#181818;stroke-width:1;" x1="370.8535" x2="370.8535" y1="428.0469" y2="448.0469"/><polygon fill="#181818" points="366.8535,438.0469,370.8535,448.0469,374.8535,438.0469,370.8535,442.0469" style="stroke:#181818;stroke-width:1;"/><line style="stroke:#181818;stroke-width:1;" x1="375.8535" x2="375.8535" y1="354.0781" y2="374.0781"/><polygon fill="#181818" points="371.8535,364.0781,375.8535,374.0781,379.8535,364.0781,375.8535,368.0781" style="stroke:#181818;stroke-width:1;"/><line style="stroke:#181818;stroke-width:1;" x1="375.8535" x2="375.8535" y1="30" y2="76.2969"/><polygon fill="#181818" points="371.8535,66.2969,375.8535,76.2969,379.8535,66.2969,375.8535,70.2969" style="stroke:#181818;stroke-width:1;"/><line style="stroke:#181818;stroke-width:1;" x1="375.8535" x2="375.8535" y1="449.5469" y2="480.0469"/><polygon fill="#181818" points="371.8535,470.0469,375.8535,480.0469,379.8535,470.0469,375.8535,474.0469" style="stroke:#181818;stroke-width:1;"/><!--SRC=[bP9DSy8W48Rl-HNSF1aZQW_HyT8UU_JE8A5nMs0Ps3IJVr-ahSr4Euvxu6DutXVOtSMiO3Fs0h8Dqh9MEnqawOOT1wPwmtrd3VkiolMghCuWWTMHfFKrunL_cbUR-N9zMF9wnMjUbNp34xKeYiG4AdAq0JlFV7Sq44-Yn_3nPh1FY3T01KkHX_htH42pPRiTED_HVl-DCTbAS2FO1tpNYXvYdRJwFesj4jA3I2gbOzHHQDTu14VtjIbZbmyAWqeIe1lBaXKR_VjdpDF59I_gI3hbE0vEYHP81Eqn0c4OYcUqLhhc5Pm-89gRa506jdzkEVwzvAeqLpTCYOViLN9BZqk6mdVnTEq-0MwOJri5kroCDDrEwtcVs-wi9VHV]--></g></svg>