<svg xmlns="http://www.w3.org/2000/svg" xmlns:xlink="http://www.w3.org/1999/xlink" contentStyleType="text/css" data-diagram-type="ACTIVITY" height="377px" preserveAspectRatio="none" style="width:883px;height:377px;background:#FFFFFF;" version="1.1" viewBox="0 0 883 377" width="883px" zoomAndPan="magnify"><defs/><g><ellipse cx="441.7559" cy="20" fill="#222222" rx="10" ry="10" style="stroke:#222222;stroke-width:1;"/><rect fill="none" height="284.1719" style="stroke:#000000;stroke-width:1.5;" width="861.5117" x="11" y="40"/><path d="M141.3057,40 L141.3057,49.2969 L131.3057,59.2969 L11,59.2969" fill="none" style="stroke:#000000;stroke-width:1.5;"/><text fill="#000000" font-family="sans-serif" font-size="14" lengthAdjust="spacing" textLength="120.3057" x="14" y="53.9951">publish_workflow</text><line style="stroke:#181818;stroke-width:1.5;" x1="68.3525" x2="773.9551" y1="76.2969" y2="76.2969"/><polygon fill="#F1F1F1" points="23,96.2969,123.7051,96.2969,113.7051,113.2813,123.7051,130.2656,23,130.2656" style="stroke:#181818;stroke-width:0.5;"/><text fill="#000000" font-family="sans-serif" font-size="12" lengthAdjust="spacing" textLength="70.7051" x="33" y="117.4355">workflow_id</text><polygon fill="#F1F1F1" points="133.7051,96.2969,222.5684,96.2969,212.5684,113.2813,222.5684,130.2656,133.7051,130.2656" style="stroke:#181818;stroke-width:0.5;"/><text fill="#000000" font-family="sans-serif" font-size="12" lengthAdjust="spacing" textLength="58.8633" x="143.7051" y="117.4355">project_id</text><polygon fill="#F1F1F1" points="232.5684,96.2969,344.5117,96.2969,334.5117,113.2813,344.5117,130.2656,232.5684,130.2656" style="stroke:#181818;stroke-width:0.5;"/><text fill="#000000" font-family="sans-serif" font-size="12" lengthAdjust="spacing" textLength="81.9434" x="242.5684" y="117.4355">project_name</text><polygon fill="#F1F1F1" points="372.5117,96.2969,573.5938,96.2969,563.5938,113.2813,573.5938,130.2656,372.5117,130.2656" style="stroke:#181818;stroke-width:0.5;"/><text fill="#000000" font-family="sans-serif" font-size="12" lengthAdjust="spacing" textLength="171.082" x="382.5117" y="117.4355">ogc_api_processes_endpoint</text><polygon fill="#F1F1F1" points="583.5938,96.2969,687.3984,96.2969,677.3984,113.2813,687.3984,130.2656,583.5938,130.2656" style="stroke:#181818;stroke-width:0.5;"/><text fill="#000000" font-family="sans-serif" font-size="12" lengthAdjust="spacing" textLength="73.8047" x="593.5938" y="117.4355">osc_location</text><polygon fill="#F1F1F1" points="697.3984,96.2969,860.5117,96.2969,850.5117,113.2813,860.5117,130.2656,697.3984,130.2656" style="stroke:#181818;stroke-width:0.5;"/><text fill="#000000" font-family="sans-serif" font-size="12" lengthAdjust="spacing" textLength="133.1133" x="707.3984" y="117.4355">cwl_workflow_location</text><line style="stroke:#181818;stroke-width:1.5;" x1="68.3525" x2="773.9551" y1="150.2656" y2="150.2656"/><rect fill="#F1F1F1" height="47.9375" rx="12.5" ry="12.5" style="stroke:#181818;stroke-width:0.5;" width="262.2734" x="310.6191" y="170.2656"/><text fill="#000000" font-family="sans-serif" font-size="12" lengthAdjust="spacing" textLength="156.1992" x="320.6191" y="191.4043">step: publish_workflow_cli</text><text fill="#000000" font-family="sans-serif" font-size="12" lengthAdjust="spacing" textLength="242.2734" x="320.6191" y="205.373">CommandLineTool: publish_workflow_cli</text><line style="stroke:#181818;stroke-width:1.5;" x1="436.7559" x2="441.7559" y1="238.2031" y2="238.2031"/><polygon fill="#F1F1F1" points="416.9297,258.2031,456.582,258.2031,466.582,275.1875,456.582,292.1719,416.9297,292.1719" style="stroke:#181818;stroke-width:0.5;"/><text fill="#000000" font-family="sans-serif" font-size="12" lengthAdjust="spacing" textLength="19.6523" x="426.9297" y="279.3418">out</text><line style="stroke:#181818;stroke-width:1.5;" x1="436.7559" x2="441.7559" y1="312.1719" y2="312.1719"/><ellipse cx="441.7559" cy="355.1719" fill="none" rx="11" ry="11" style="stroke:#222222;stroke-width:1;"/><ellipse cx="441.7559" cy="355.1719" fill="#222222" rx="6" ry="6" style="stroke:#222222;stroke-width:1;"/><line style="stroke:#181818;stroke-width:1;" x1="68.3525" x2="68.3525" y1="77.7969" y2="96.2969"/><polygon fill="#181818" points="64.3525,86.2969,68.3525,96.2969,72.3525,86.2969,68.3525,90.2969" style="stroke:#181818;stroke-width:1;"/><line style="stroke:#181818;stroke-width:1;" x1="173.1367" x2="173.1367" y1="77.7969" y2="96.2969"/><polygon fill="#181818" points="169.1367,86.2969,173.1367,96.2969,177.1367,86.2969,173.1367,90.2969" style="stroke:#181818;stroke-width:1;"/><line style="stroke:#181818;stroke-width:1;" x1="283.54" x2="283.54" y1="77.7969" y2="96.2969"/><polygon fill="#181818" points="279.54,86.2969,283.54,96.2969,287.54,86.2969,283.54,90.2969" style="stroke:#181818;stroke-width:1;"/><line style="stroke:#181818;stroke-width:1;" x1="468.0527" x2="468.0527" y1="77.7969" y2="96.2969"/><polygon fill="#181818" points="464.0527,86.2969,468.0527,96.2969,472.0527,86.2969,468.0527,90.2969" style="stroke:#181818;stroke-width:1;"/><line style="stroke:#181818;stroke-width:1;" x1="630.4961" x2="630.4961" y1="77.7969" y2="96.2969"/><polygon fill="#181818" points="626.4961,86.2969,630.4961,96.2969,634.4961,86.2969,630.4961,90.2969" style="stroke:#181818;stroke-width:1;"/><line style="stroke:#181818;stroke-width:1;" x1="773.9551" x2="773.9551" y1="77.7969" y2="96.2969"/><polygon fill="#181818" points="769.9551,86.2969,773.9551,96.2969,777.9551,86.2969,773.9551,90.2969" style="stroke:#181818;stroke-width:1;"/><line style="stroke:#181818;stroke-width:1;" x1="68.3525" x2="68.3525" y1="130.2656" y2="150.2656"/><polygon fill="#181818" points="64.3525,140.2656,68.3525,150.2656,72.3525,140.2656,68.3525,144.2656" style="stroke:#181818;stroke-width:1;"/><line style="stroke:#181818;stroke-width:1;" x1="173.1367" x2="173.1367" y1="130.2656" y2="150.2656"/><polygon fill="#181818" points="169.1367,140.2656,173.1367,150.2656,177.1367,140.2656,173.1367,144.2656" style="stroke:#181818;stroke-width:1;"/><line style="stroke:#181818;stroke-width:1;" x1="283.54" x2="283.54" y1="130.2656" y2="150.2656"/><polygon fill="#181818" points="279.54,140.2656,283.54,150.2656,287.54,140.2656,283.54,144.2656" style="stroke:#181818;stroke-width:1;"/><line style="stroke:#181818;stroke-width:1;" x1="468.0527" x2="468.0527" y1="130.2656" y2="150.2656"/><polygon fill="#181818" points="464.0527,140.2656,468.0527,150.2656,472.0527,140.2656,468.0527,144.2656" style="stroke:#181818;stroke-width:1;"/><line style="stroke:#181818;stroke-width:1;" x1="630.4961" x2="630.4961" y1="130.2656" y2="150.2656"/><polygon fill="#181818" points="626.4961,140.2656,630.4961,150.2656,634.4961,140.2656,630.4961,144.2656" style="stroke:#181818;stroke-width:1;"/><line style="stroke:#181818;stroke-width:1;" x1="773.9551" x2="773.9551" y1="130.2656" y2="150.2656"/><polygon fill="#181818" points="769.9551,140.2656,773.9551,150.2656,777.9551,140.2656,773.9551,144.2656" style="stroke:#181818;stroke-width:1;"/><line style="stroke:#181818;stroke-width:1;" x1="441.7559" x2="441.7559" y1="151.7656" y2="170.2656"/><polygon fill="#181818" points="437.7559,160.2656,441.7559,170.2656,445.7559,160.2656,441.7559,164.2656" style="stroke:#181818;stroke-width:1;"/><line style="stroke:#181818;stroke-width:1;" x1="436.7559" x2="436.7559" y1="239.7031" y2="258.2031"/><polygon fill="#181818" points="432.7559,248.2031,436.7559,258.2031,440.7559,248.2031,436.7559,252.2031" style="stroke:#181818;stroke-width:1;"/><line style="stroke:#181818;stroke-width:1;" x1="436.7559" x2="436.7559" y1="292.1719" y2="312.1719"/><polygon fill="#181818" points="432.7559,302.1719,436.7559,312.1719,440.7559,302.1719,436.7559,306.1719" style="stroke:#181818;stroke-width:1;"/><line style="stroke:#181818;stroke-width:1;" x1="441.7559" x2="441.7559" y1="218.2031" y2="238.2031"/><polygon fill="#181818" points="437.7559,228.2031,441.7559,238.2031,445.7559,228.2031,441.7559,232.2031" style="stroke:#181818;stroke-width:1;"/><line style="stroke:#181818;stroke-width:1;" x1="441.7559" x2="441.7559" y1="30" y2="76.2969"/><polygon fill="#181818" points="437.7559,66.2969,441.7559,76.2969,445.7559,66.2969,441.7559,70.2969" style="stroke:#181818;stroke-width:1;"/><line style="stroke:#181818;stroke-width:1;" x1="441.7559" x2="441.7559" y1="313.6719" y2="344.1719"/><polygon fill="#181818" points="437.7559,334.1719,441.7559,344.1719,445.7559,334.1719,441.7559,338.1719" style="stroke:#181818;stroke-width:1;"/><!--SRC=[bP71RiCW38RlF8LlFJKbwLfDQTNBTjonTqG9oxm1Ha0MxUr7sDPLLQHkFjWWlj_0xzM2mG8UKVP1MkYrqq4ctS7f0zHe6ZzO0- -ykbjNV08JMXsJjBw5XZVR9Tyiw-PORrj-tzPrjU7hJAqOoqn8h4GVQF3WXvF1-2962c_FXiQCU8E9GOwIsfyJWTqEzdjqVaY7mnS6ifVeBc0Vw5Mhz2_MIQjlqzGh8JsAh58wHXs5TfqdTEaFsgY48IKJahjDPt_FTipAyiLmuT9tBkNSfIpQc7IUoBN7GXba3sIjTDqJEdqaClFKxhVN5DUZeQ5yFfVvXqtxCkP9cyX_0W00]--></g></svg>