<svg xmlns="http://www.w3.org/2000/svg" xmlns:xlink="http://www.w3.org/1999/xlink" contentStyleType="text/css" data-diagram-type="CLASS" height="1633px" preserveAspectRatio="none" style="width:1463px;height:1633px;background:#FFFFFF;" version="1.1" viewBox="0 0 1463 1633" width="1463px" zoomAndPan="magnify"><defs/><g><!--cluster Schemas--><g class="cluster" data-entity="Schemas" data-source-line="19" data-uid="ent0002" id="cluster_Schemas"><path d="M565.5,1139 L636.7119,1139 A3.75,3.75 0 0 1 639.2119,1141.5 L646.2119,1161.2969 L1453.5,1161.2969 A2.5,2.5 0 0 1 1456,1163.7969 L1456,1623.5 A2.5,2.5 0 0 1 1453.5,1626 L565.5,1626 A2.5,2.5 0 0 1 563,1623.5 L563,1141.5 A2.5,2.5 0 0 1 565.5,1139" fill="none" style="stroke:#000000;stroke-width:1.5;"/><line style="stroke:#000000;stroke-width:1.5;" x1="563" x2="646.2119" y1="1161.2969" y2="1161.2969"/><text fill="#000000" font-family="sans-serif" font-size="14" font-weight="bold" lengthAdjust="spacing" textLength="70.2119" x="567" y="1153.9951">Schemas</text></g><!--cluster Open Science Catalog `workflow` publication--><g class="cluster" data-entity="Open Science Catalog .workflow. publication" data-source-line="273" data-uid="ent0022" id="cluster_Open Science Catalog .workflow. publication"><path d="M8.5,6 L365.7549,6 A3.75,3.75 0 0 1 368.2549,8.5 L375.2549,28.2969 L673.5,28.2969 A2.5,2.5 0 0 1 676,30.7969 L676,1112.5 A2.5,2.5 0 0 1 673.5,1115 L8.5,1115 A2.5,2.5 0 0 1 6,1112.5 L6,8.5 A2.5,2.5 0 0 1 8.5,6" fill="none" style="stroke:#000000;stroke-width:1.5;"/><line style="stroke:#000000;stroke-width:1.5;" x1="6" x2="375.2549" y1="28.2969" y2="28.2969"/><text fill="#000000" font-family="sans-serif" font-size="14" font-weight="bold" lengthAdjust="spacing" textLength="356.2549" x="10" y="20.9951">Open Science Catalog `workflow` publication</text></g><!--cluster Steps--><g class="cluster" data-entity="Steps" data-source-line="332" data-uid="ent0028" id="cluster_Steps"><path d="M32.5,328 L78.125,328 A3.75,3.75 0 0 1 80.625,330.5 L87.625,350.2969 L319.5,350.2969 A2.5,2.5 0 0 1 322,352.7969 L322,1088.5 A2.5,2.5 0 0 1 319.5,1091 L32.5,1091 A2.5,2.5 0 0 1 30,1088.5 L30,330.5 A2.5,2.5 0 0 1 32.5,328" fill="none" style="stroke:#000000;stroke-width:1.5;"/><line style="stroke:#000000;stroke-width:1.5;" x1="30" x2="87.625" y1="350.2969" y2="350.2969"/><text fill="#000000" font-family="sans-serif" font-size="14" font-weight="bold" lengthAdjust="spacing" textLength="44.625" x="34" y="342.9951">Steps</text></g><!--cluster Requirements--><g class="cluster" data-entity="Requirements" data-source-line="396" data-uid="ent0035" id="cluster_Requirements"><path d="M348.5,821 L460.0371,821 A3.75,3.75 0 0 1 462.5371,823.5 L469.5371,843.2969 L579.5,843.2969 A2.5,2.5 0 0 1 582,845.7969 L582,917.5 A2.5,2.5 0 0 1 579.5,920 L348.5,920 A2.5,2.5 0 0 1 346,917.5 L346,823.5 A2.5,2.5 0 0 1 348.5,821" fill="none" style="stroke:#000000;stroke-width:1.5;"/><line style="stroke:#000000;stroke-width:1.5;" x1="346" x2="469.5371" y1="843.2969" y2="843.2969"/><text fill="#000000" font-family="sans-serif" font-size="14" font-weight="bold" lengthAdjust="spacing" textLength="110.5371" x="350" y="835.9951">Requirements</text></g><!--class Date--><g class="entity" data-entity="Date" data-source-line="24" data-uid="ent0003" id="entity_Date"><rect fill="#F1F1F1" height="64.2969" rx="2.5" ry="2.5" style="stroke:#181818;stroke-width:0.5;" width="113.5957" x="728" y="1174"/><ellipse cx="759.7102" cy="1190" fill="#FF8F00" rx="11" ry="11" style="stroke:#181818;stroke-width:1;"/><path d="M760.9133,1190.1406 Q761.2727,1190.2188 761.5383,1190.5 Q761.8196,1190.7656 762.2102,1191.5469 L764.4446,1196 L761.7571,1196 L760.2571,1192.875 Q760.1946,1192.7344 760.0852,1192.5 Q759.429,1191.1094 758.5383,1191.1094 L757.7571,1191.1094 L757.7571,1196 L755.3196,1196 L755.3196,1183.6094 L758.8508,1183.6094 Q761.2415,1183.6094 762.2727,1184.4531 Q763.3196,1185.2969 763.3196,1187.2031 Q763.3196,1188.4844 762.6946,1189.25 Q762.0852,1190 760.9133,1190.1406 Z M757.7571,1185.6719 L757.7571,1189.0469 L758.9133,1189.0469 Q759.929,1189.0469 760.3508,1188.6563 Q760.7883,1188.25 760.7883,1187.3438 Q760.7883,1186.4531 760.3508,1186.0625 Q759.929,1185.6719 758.9133,1185.6719 L757.7571,1185.6719 Z " fill="#000000"/><ellipse cx="782.4236" cy="1189.5" fill="#84BE84" rx="3" ry="3" style="stroke:#038048;stroke-width:1;"/><text fill="#000000" font-family="sans-serif" font-size="14" lengthAdjust="spacing" textLength="33.4619" x="788.4236" y="1194.8467">Date</text><line style="stroke:#181818;stroke-width:0.5;" x1="729" x2="840.5957" y1="1206" y2="1206"/><ellipse cx="739" cy="1219.6484" fill="none" rx="3" ry="3" style="stroke:#038048;stroke-width:1;"/><text fill="#000000" font-family="sans-serif" font-size="14" lengthAdjust="spacing" textLength="87.5957" x="748" y="1222.9951">value: string</text><line style="stroke:#181818;stroke-width:0.5;" x1="729" x2="840.5957" y1="1230.2969" y2="1230.2969"/></g><!--class DateTime--><g class="entity" data-entity="DateTime" data-source-line="37" data-uid="ent0004" id="entity_DateTime"><rect fill="#F1F1F1" height="64.2969" rx="2.5" ry="2.5" style="stroke:#181818;stroke-width:0.5;" width="113.5957" x="877" y="1174"/><ellipse cx="893.0986" cy="1190" fill="#FF8F00" rx="11" ry="11" style="stroke:#181818;stroke-width:1;"/><path d="M894.3018,1190.1406 Q894.6611,1190.2188 894.9268,1190.5 Q895.208,1190.7656 895.5986,1191.5469 L897.833,1196 L895.1455,1196 L893.6455,1192.875 Q893.583,1192.7344 893.4736,1192.5 Q892.8174,1191.1094 891.9268,1191.1094 L891.1455,1191.1094 L891.1455,1196 L888.708,1196 L888.708,1183.6094 L892.2393,1183.6094 Q894.6299,1183.6094 895.6611,1184.4531 Q896.708,1185.2969 896.708,1187.2031 Q896.708,1188.4844 896.083,1189.25 Q895.4736,1190 894.3018,1190.1406 Z M891.1455,1185.6719 L891.1455,1189.0469 L892.3018,1189.0469 Q893.3174,1189.0469 893.7393,1188.6563 Q894.1768,1188.25 894.1768,1187.3438 Q894.1768,1186.4531 893.7393,1186.0625 Q893.3174,1185.6719 892.3018,1185.6719 L891.1455,1185.6719 Z " fill="#000000"/><ellipse cx="912.3428" cy="1189.5" fill="#84BE84" rx="3" ry="3" style="stroke:#038048;stroke-width:1;"/><text fill="#000000" font-family="sans-serif" font-size="14" lengthAdjust="spacing" textLength="68.1543" x="918.3428" y="1194.8467">DateTime</text><line style="stroke:#181818;stroke-width:0.5;" x1="878" x2="989.5957" y1="1206" y2="1206"/><ellipse cx="888" cy="1219.6484" fill="none" rx="3" ry="3" style="stroke:#038048;stroke-width:1;"/><text fill="#000000" font-family="sans-serif" font-size="14" lengthAdjust="spacing" textLength="87.5957" x="897" y="1222.9951">value: string</text><line style="stroke:#181818;stroke-width:0.5;" x1="878" x2="989.5957" y1="1230.2969" y2="1230.2969"/></g><!--class Duration--><g class="entity" data-entity="Duration" data-source-line="50" data-uid="ent0005" id="entity_Duration"><rect fill="#F1F1F1" height="64.2969" rx="2.5" ry="2.5" style="stroke:#181818;stroke-width:0.5;" width="113.5957" x="1026" y="1174"/><ellipse cx="1045.4055" cy="1190" fill="#FF8F00" rx="11" ry="11" style="stroke:#181818;stroke-width:1;"/><path d="M1046.6086,1190.1406 Q1046.968,1190.2188 1047.2336,1190.5 Q1047.5149,1190.7656 1047.9055,1191.5469 L1050.1399,1196 L1047.4524,1196 L1045.9524,1192.875 Q1045.8899,1192.7344 1045.7805,1192.5 Q1045.1243,1191.1094 1044.2336,1191.1094 L1043.4524,1191.1094 L1043.4524,1196 L1041.0149,1196 L1041.0149,1183.6094 L1044.5461,1183.6094 Q1046.9368,1183.6094 1047.968,1184.4531 Q1049.0149,1185.2969 1049.0149,1187.2031 Q1049.0149,1188.4844 1048.3899,1189.25 Q1047.7805,1190 1046.6086,1190.1406 Z M1043.4524,1185.6719 L1043.4524,1189.0469 L1044.6086,1189.0469 Q1045.6243,1189.0469 1046.0461,1188.6563 Q1046.4836,1188.25 1046.4836,1187.3438 Q1046.4836,1186.4531 1046.0461,1186.0625 Q1045.6243,1185.6719 1044.6086,1185.6719 L1043.4524,1185.6719 Z " fill="#000000"/><ellipse cx="1065.3845" cy="1189.5" fill="#84BE84" rx="3" ry="3" style="stroke:#038048;stroke-width:1;"/><text fill="#000000" font-family="sans-serif" font-size="14" lengthAdjust="spacing" textLength="60.8057" x="1071.3845" y="1194.8467">Duration</text><line style="stroke:#181818;stroke-width:0.5;" x1="1027" x2="1138.5957" y1="1206" y2="1206"/><ellipse cx="1037" cy="1219.6484" fill="none" rx="3" ry="3" style="stroke:#038048;stroke-width:1;"/><text fill="#000000" font-family="sans-serif" font-size="14" lengthAdjust="spacing" textLength="87.5957" x="1046" y="1222.9951">value: string</text><line style="stroke:#181818;stroke-width:0.5;" x1="1027" x2="1138.5957" y1="1230.2969" y2="1230.2969"/></g><!--class Email--><g class="entity" data-entity="Email" data-source-line="63" data-uid="ent0006" id="entity_Email"><rect fill="#F1F1F1" height="64.2969" rx="2.5" ry="2.5" style="stroke:#181818;stroke-width:0.5;" width="113.5957" x="1175" y="1174"/><ellipse cx="1204.2893" cy="1190" fill="#FF8F00" rx="11" ry="11" style="stroke:#181818;stroke-width:1;"/><path d="M1205.4924,1190.1406 Q1205.8518,1190.2188 1206.1174,1190.5 Q1206.3986,1190.7656 1206.7893,1191.5469 L1209.0236,1196 L1206.3361,1196 L1204.8361,1192.875 Q1204.7736,1192.7344 1204.6643,1192.5 Q1204.008,1191.1094 1203.1174,1191.1094 L1202.3361,1191.1094 L1202.3361,1196 L1199.8986,1196 L1199.8986,1183.6094 L1203.4299,1183.6094 Q1205.8205,1183.6094 1206.8518,1184.4531 Q1207.8986,1185.2969 1207.8986,1187.2031 Q1207.8986,1188.4844 1207.2736,1189.25 Q1206.6643,1190 1205.4924,1190.1406 Z M1202.3361,1185.6719 L1202.3361,1189.0469 L1203.4924,1189.0469 Q1204.508,1189.0469 1204.9299,1188.6563 Q1205.3674,1188.25 1205.3674,1187.3438 Q1205.3674,1186.4531 1204.9299,1186.0625 Q1204.508,1185.6719 1203.4924,1185.6719 L1202.3361,1185.6719 Z " fill="#000000"/><ellipse cx="1226.4646" cy="1189.5" fill="#84BE84" rx="3" ry="3" style="stroke:#038048;stroke-width:1;"/><text fill="#000000" font-family="sans-serif" font-size="14" lengthAdjust="spacing" textLength="38.8418" x="1232.4646" y="1194.8467">Email</text><line style="stroke:#181818;stroke-width:0.5;" x1="1176" x2="1287.5957" y1="1206" y2="1206"/><ellipse cx="1186" cy="1219.6484" fill="none" rx="3" ry="3" style="stroke:#038048;stroke-width:1;"/><text fill="#000000" font-family="sans-serif" font-size="14" lengthAdjust="spacing" textLength="87.5957" x="1195" y="1222.9951">value: string</text><line style="stroke:#181818;stroke-width:0.5;" x1="1176" x2="1287.5957" y1="1230.2969" y2="1230.2969"/></g><!--class Hostname--><g class="entity" data-entity="Hostname" data-source-line="76" data-uid="ent0007" id="entity_Hostname"><rect fill="#F1F1F1" height="64.2969" rx="2.5" ry="2.5" style="stroke:#181818;stroke-width:0.5;" width="114.5791" x="1324.5" y="1174"/><ellipse cx="1339.5" cy="1190" fill="#FF8F00" rx="11" ry="11" style="stroke:#181818;stroke-width:1;"/><path d="M1340.7031,1190.1406 Q1341.0625,1190.2188 1341.3281,1190.5 Q1341.6094,1190.7656 1342,1191.5469 L1344.2344,1196 L1341.5469,1196 L1340.0469,1192.875 Q1339.9844,1192.7344 1339.875,1192.5 Q1339.2188,1191.1094 1338.3281,1191.1094 L1337.5469,1191.1094 L1337.5469,1196 L1335.1094,1196 L1335.1094,1183.6094 L1338.6406,1183.6094 Q1341.0313,1183.6094 1342.0625,1184.4531 Q1343.1094,1185.2969 1343.1094,1187.2031 Q1343.1094,1188.4844 1342.4844,1189.25 Q1341.875,1190 1340.7031,1190.1406 Z M1337.5469,1185.6719 L1337.5469,1189.0469 L1338.7031,1189.0469 Q1339.7188,1189.0469 1340.1406,1188.6563 Q1340.5781,1188.25 1340.5781,1187.3438 Q1340.5781,1186.4531 1340.1406,1186.0625 Q1339.7188,1185.6719 1338.7031,1185.6719 L1337.5469,1185.6719 Z " fill="#000000"/><ellipse cx="1358.5" cy="1189.5" fill="#84BE84" rx="3" ry="3" style="stroke:#038048;stroke-width:1;"/><text fill="#000000" font-family="sans-serif" font-size="14" lengthAdjust="spacing" textLength="71.5791" x="1364.5" y="1194.8467">Hostname</text><line style="stroke:#181818;stroke-width:0.5;" x1="1325.5" x2="1438.0791" y1="1206" y2="1206"/><ellipse cx="1335.5" cy="1219.6484" fill="none" rx="3" ry="3" style="stroke:#038048;stroke-width:1;"/><text fill="#000000" font-family="sans-serif" font-size="14" lengthAdjust="spacing" textLength="87.5957" x="1344.5" y="1222.9951">value: string</text><line style="stroke:#181818;stroke-width:0.5;" x1="1325.5" x2="1438.0791" y1="1230.2969" y2="1230.2969"/></g><!--class IDNEmail--><g class="entity" data-entity="IDNEmail" data-source-line="89" data-uid="ent0008" id="entity_IDNEmail"><rect fill="#F1F1F1" height="64.2969" rx="2.5" ry="2.5" style="stroke:#181818;stroke-width:0.5;" width="113.5957" x="675" y="1298"/><ellipse cx="692.8674" cy="1314" fill="#FF8F00" rx="11" ry="11" style="stroke:#181818;stroke-width:1;"/><path d="M694.0706,1314.1406 Q694.4299,1314.2188 694.6956,1314.5 Q694.9768,1314.7656 695.3674,1315.5469 L697.6018,1320 L694.9143,1320 L693.4143,1316.875 Q693.3518,1316.7344 693.2424,1316.5 Q692.5862,1315.1094 691.6956,1315.1094 L690.9143,1315.1094 L690.9143,1320 L688.4768,1320 L688.4768,1307.6094 L692.0081,1307.6094 Q694.3987,1307.6094 695.4299,1308.4531 Q696.4768,1309.2969 696.4768,1311.2031 Q696.4768,1312.4844 695.8518,1313.25 Q695.2424,1314 694.0706,1314.1406 Z M690.9143,1309.6719 L690.9143,1313.0469 L692.0706,1313.0469 Q693.0862,1313.0469 693.5081,1312.6563 Q693.9456,1312.25 693.9456,1311.3438 Q693.9456,1310.4531 693.5081,1310.0625 Q693.0862,1309.6719 692.0706,1309.6719 L690.9143,1309.6719 Z " fill="#000000"/><ellipse cx="712.5046" cy="1313.5" fill="#84BE84" rx="3" ry="3" style="stroke:#038048;stroke-width:1;"/><text fill="#000000" font-family="sans-serif" font-size="14" lengthAdjust="spacing" textLength="64.2236" x="718.5046" y="1318.8467">IDNEmail</text><line style="stroke:#181818;stroke-width:0.5;" x1="676" x2="787.5957" y1="1330" y2="1330"/><ellipse cx="686" cy="1343.6484" fill="none" rx="3" ry="3" style="stroke:#038048;stroke-width:1;"/><text fill="#000000" font-family="sans-serif" font-size="14" lengthAdjust="spacing" textLength="87.5957" x="695" y="1346.9951">value: string</text><line style="stroke:#181818;stroke-width:0.5;" x1="676" x2="787.5957" y1="1354.2969" y2="1354.2969"/></g><!--class IDNHostname--><g class="entity" data-entity="IDNHostname" data-source-line="102" data-uid="ent0009" id="entity_IDNHostname"><rect fill="#F1F1F1" height="64.2969" rx="2.5" ry="2.5" style="stroke:#181818;stroke-width:0.5;" width="139.9609" x="824" y="1298"/><ellipse cx="839" cy="1314" fill="#FF8F00" rx="11" ry="11" style="stroke:#181818;stroke-width:1;"/><path d="M840.2031,1314.1406 Q840.5625,1314.2188 840.8281,1314.5 Q841.1094,1314.7656 841.5,1315.5469 L843.7344,1320 L841.0469,1320 L839.5469,1316.875 Q839.4844,1316.7344 839.375,1316.5 Q838.7188,1315.1094 837.8281,1315.1094 L837.0469,1315.1094 L837.0469,1320 L834.6094,1320 L834.6094,1307.6094 L838.1406,1307.6094 Q840.5313,1307.6094 841.5625,1308.4531 Q842.6094,1309.2969 842.6094,1311.2031 Q842.6094,1312.4844 841.9844,1313.25 Q841.375,1314 840.2031,1314.1406 Z M837.0469,1309.6719 L837.0469,1313.0469 L838.2031,1313.0469 Q839.2188,1313.0469 839.6406,1312.6563 Q840.0781,1312.25 840.0781,1311.3438 Q840.0781,1310.4531 839.6406,1310.0625 Q839.2188,1309.6719 838.2031,1309.6719 L837.0469,1309.6719 Z " fill="#000000"/><ellipse cx="858" cy="1313.5" fill="#84BE84" rx="3" ry="3" style="stroke:#038048;stroke-width:1;"/><text fill="#000000" font-family="sans-serif" font-size="14" lengthAdjust="spacing" textLength="96.9609" x="864" y="1318.8467">IDNHostname</text><line style="stroke:#181818;stroke-width:0.5;" x1="825" x2="962.9609" y1="1330" y2="1330"/><ellipse cx="835" cy="1343.6484" fill="none" rx="3" ry="3" style="stroke:#038048;stroke-width:1;"/><text fill="#000000" font-family="sans-serif" font-size="14" lengthAdjust="spacing" textLength="87.5957" x="844" y="1346.9951">value: string</text><line style="stroke:#181818;stroke-width:0.5;" x1="825" x2="962.9609" y1="1354.2969" y2="1354.2969"/></g><!--class IPv4--><g class="entity" data-entity="IPv4" data-source-line="115" data-uid="ent0010" id="entity_IPv4"><rect fill="#F1F1F1" height="64.2969" rx="2.5" ry="2.5" style="stroke:#181818;stroke-width:0.5;" width="113.5957" x="999" y="1298"/><ellipse cx="1032.3744" cy="1314" fill="#FF8F00" rx="11" ry="11" style="stroke:#181818;stroke-width:1;"/><path d="M1033.5775,1314.1406 Q1033.9369,1314.2188 1034.2025,1314.5 Q1034.4838,1314.7656 1034.8744,1315.5469 L1037.1088,1320 L1034.4213,1320 L1032.9213,1316.875 Q1032.8588,1316.7344 1032.7494,1316.5 Q1032.0932,1315.1094 1031.2025,1315.1094 L1030.4213,1315.1094 L1030.4213,1320 L1027.9838,1320 L1027.9838,1307.6094 L1031.515,1307.6094 Q1033.9057,1307.6094 1034.9369,1308.4531 Q1035.9838,1309.2969 1035.9838,1311.2031 Q1035.9838,1312.4844 1035.3588,1313.25 Q1034.7494,1314 1033.5775,1314.1406 Z M1030.4213,1309.6719 L1030.4213,1313.0469 L1031.5775,1313.0469 Q1032.5932,1313.0469 1033.015,1312.6563 Q1033.4525,1312.25 1033.4525,1311.3438 Q1033.4525,1310.4531 1033.015,1310.0625 Q1032.5932,1309.6719 1031.5775,1309.6719 L1030.4213,1309.6719 Z " fill="#000000"/><ellipse cx="1055.4576" cy="1313.5" fill="#84BE84" rx="3" ry="3" style="stroke:#038048;stroke-width:1;"/><text fill="#000000" font-family="sans-serif" font-size="14" lengthAdjust="spacing" textLength="29.7637" x="1061.4576" y="1318.8467">IPv4</text><line style="stroke:#181818;stroke-width:0.5;" x1="1000" x2="1111.5957" y1="1330" y2="1330"/><ellipse cx="1010" cy="1343.6484" fill="none" rx="3" ry="3" style="stroke:#038048;stroke-width:1;"/><text fill="#000000" font-family="sans-serif" font-size="14" lengthAdjust="spacing" textLength="87.5957" x="1019" y="1346.9951">value: string</text><line style="stroke:#181818;stroke-width:0.5;" x1="1000" x2="1111.5957" y1="1354.2969" y2="1354.2969"/></g><!--class IPv6--><g class="entity" data-entity="IPv6" data-source-line="128" data-uid="ent0011" id="entity_IPv6"><rect fill="#F1F1F1" height="64.2969" rx="2.5" ry="2.5" style="stroke:#181818;stroke-width:0.5;" width="113.5957" x="1148" y="1298"/><ellipse cx="1181.3744" cy="1314" fill="#FF8F00" rx="11" ry="11" style="stroke:#181818;stroke-width:1;"/><path d="M1182.5775,1314.1406 Q1182.9369,1314.2188 1183.2025,1314.5 Q1183.4838,1314.7656 1183.8744,1315.5469 L1186.1088,1320 L1183.4213,1320 L1181.9213,1316.875 Q1181.8588,1316.7344 1181.7494,1316.5 Q1181.0932,1315.1094 1180.2025,1315.1094 L1179.4213,1315.1094 L1179.4213,1320 L1176.9838,1320 L1176.9838,1307.6094 L1180.515,1307.6094 Q1182.9057,1307.6094 1183.9369,1308.4531 Q1184.9838,1309.2969 1184.9838,1311.2031 Q1184.9838,1312.4844 1184.3588,1313.25 Q1183.7494,1314 1182.5775,1314.1406 Z M1179.4213,1309.6719 L1179.4213,1313.0469 L1180.5775,1313.0469 Q1181.5932,1313.0469 1182.015,1312.6563 Q1182.4525,1312.25 1182.4525,1311.3438 Q1182.4525,1310.4531 1182.015,1310.0625 Q1181.5932,1309.6719 1180.5775,1309.6719 L1179.4213,1309.6719 Z " fill="#000000"/><ellipse cx="1204.4576" cy="1313.5" fill="#84BE84" rx="3" ry="3" style="stroke:#038048;stroke-width:1;"/><text fill="#000000" font-family="sans-serif" font-size="14" lengthAdjust="spacing" textLength="29.7637" x="1210.4576" y="1318.8467">IPv6</text><line style="stroke:#181818;stroke-width:0.5;" x1="1149" x2="1260.5957" y1="1330" y2="1330"/><ellipse cx="1159" cy="1343.6484" fill="none" rx="3" ry="3" style="stroke:#038048;stroke-width:1;"/><text fill="#000000" font-family="sans-serif" font-size="14" lengthAdjust="spacing" textLength="87.5957" x="1168" y="1346.9951">value: string</text><line style="stroke:#181818;stroke-width:0.5;" x1="1149" x2="1260.5957" y1="1354.2969" y2="1354.2969"/></g><!--class IRI--><g class="entity" data-entity="IRI" data-source-line="141" data-uid="ent0012" id="entity_IRI"><rect fill="#F1F1F1" height="64.2969" rx="2.5" ry="2.5" style="stroke:#181818;stroke-width:0.5;" width="113.5957" x="1297" y="1298"/><ellipse cx="1335.6747" cy="1314" fill="#FF8F00" rx="11" ry="11" style="stroke:#181818;stroke-width:1;"/><path d="M1336.8778,1314.1406 Q1337.2372,1314.2188 1337.5028,1314.5 Q1337.784,1314.7656 1338.1747,1315.5469 L1340.409,1320 L1337.7215,1320 L1336.2215,1316.875 Q1336.159,1316.7344 1336.0497,1316.5 Q1335.3934,1315.1094 1334.5028,1315.1094 L1333.7215,1315.1094 L1333.7215,1320 L1331.284,1320 L1331.284,1307.6094 L1334.8153,1307.6094 Q1337.2059,1307.6094 1338.2372,1308.4531 Q1339.284,1309.2969 1339.284,1311.2031 Q1339.284,1312.4844 1338.659,1313.25 Q1338.0497,1314 1336.8778,1314.1406 Z M1333.7215,1309.6719 L1333.7215,1313.0469 L1334.8778,1313.0469 Q1335.8934,1313.0469 1336.3153,1312.6563 Q1336.7528,1312.25 1336.7528,1311.3438 Q1336.7528,1310.4531 1336.3153,1310.0625 Q1335.8934,1309.6719 1334.8778,1309.6719 L1333.7215,1309.6719 Z " fill="#000000"/><ellipse cx="1359.9357" cy="1313.5" fill="#84BE84" rx="3" ry="3" style="stroke:#038048;stroke-width:1;"/><text fill="#000000" font-family="sans-serif" font-size="14" lengthAdjust="spacing" textLength="17.9854" x="1365.9357" y="1318.8467">IRI</text><line style="stroke:#181818;stroke-width:0.5;" x1="1298" x2="1409.5957" y1="1330" y2="1330"/><ellipse cx="1308" cy="1343.6484" fill="none" rx="3" ry="3" style="stroke:#038048;stroke-width:1;"/><text fill="#000000" font-family="sans-serif" font-size="14" lengthAdjust="spacing" textLength="87.5957" x="1317" y="1346.9951">value: string</text><line style="stroke:#181818;stroke-width:0.5;" x1="1298" x2="1409.5957" y1="1354.2969" y2="1354.2969"/></g><!--class IRIReference--><g class="entity" data-entity="IRIReference" data-source-line="154" data-uid="ent0013" id="entity_IRIReference"><rect fill="#F1F1F1" height="64.2969" rx="2.5" ry="2.5" style="stroke:#181818;stroke-width:0.5;" width="132.4209" x="638" y="1422"/><ellipse cx="653" cy="1438" fill="#FF8F00" rx="11" ry="11" style="stroke:#181818;stroke-width:1;"/><path d="M654.2031,1438.1406 Q654.5625,1438.2188 654.8281,1438.5 Q655.1094,1438.7656 655.5,1439.5469 L657.7344,1444 L655.0469,1444 L653.5469,1440.875 Q653.4844,1440.7344 653.375,1440.5 Q652.7188,1439.1094 651.8281,1439.1094 L651.0469,1439.1094 L651.0469,1444 L648.6094,1444 L648.6094,1431.6094 L652.1406,1431.6094 Q654.5313,1431.6094 655.5625,1432.4531 Q656.6094,1433.2969 656.6094,1435.2031 Q656.6094,1436.4844 655.9844,1437.25 Q655.375,1438 654.2031,1438.1406 Z M651.0469,1433.6719 L651.0469,1437.0469 L652.2031,1437.0469 Q653.2188,1437.0469 653.6406,1436.6563 Q654.0781,1436.25 654.0781,1435.3438 Q654.0781,1434.4531 653.6406,1434.0625 Q653.2188,1433.6719 652.2031,1433.6719 L651.0469,1433.6719 Z " fill="#000000"/><ellipse cx="672" cy="1437.5" fill="#84BE84" rx="3" ry="3" style="stroke:#038048;stroke-width:1;"/><text fill="#000000" font-family="sans-serif" font-size="14" lengthAdjust="spacing" textLength="89.4209" x="678" y="1442.8467">IRIReference</text><line style="stroke:#181818;stroke-width:0.5;" x1="639" x2="769.4209" y1="1454" y2="1454"/><ellipse cx="649" cy="1467.6484" fill="none" rx="3" ry="3" style="stroke:#038048;stroke-width:1;"/><text fill="#000000" font-family="sans-serif" font-size="14" lengthAdjust="spacing" textLength="87.5957" x="658" y="1470.9951">value: string</text><line style="stroke:#181818;stroke-width:0.5;" x1="639" x2="769.4209" y1="1478.2969" y2="1478.2969"/></g><!--class JsonPointer--><g class="entity" data-entity="JsonPointer" data-source-line="167" data-uid="ent0014" id="entity_JsonPointer"><rect fill="#F1F1F1" height="64.2969" rx="2.5" ry="2.5" style="stroke:#181818;stroke-width:0.5;" width="121.4902" x="805.5" y="1422"/><ellipse cx="820.5" cy="1438" fill="#FF8F00" rx="11" ry="11" style="stroke:#181818;stroke-width:1;"/><path d="M821.7031,1438.1406 Q822.0625,1438.2188 822.3281,1438.5 Q822.6094,1438.7656 823,1439.5469 L825.2344,1444 L822.5469,1444 L821.0469,1440.875 Q820.9844,1440.7344 820.875,1440.5 Q820.2188,1439.1094 819.3281,1439.1094 L818.5469,1439.1094 L818.5469,1444 L816.1094,1444 L816.1094,1431.6094 L819.6406,1431.6094 Q822.0313,1431.6094 823.0625,1432.4531 Q824.1094,1433.2969 824.1094,1435.2031 Q824.1094,1436.4844 823.4844,1437.25 Q822.875,1438 821.7031,1438.1406 Z M818.5469,1433.6719 L818.5469,1437.0469 L819.7031,1437.0469 Q820.7188,1437.0469 821.1406,1436.6563 Q821.5781,1436.25 821.5781,1435.3438 Q821.5781,1434.4531 821.1406,1434.0625 Q820.7188,1433.6719 819.7031,1433.6719 L818.5469,1433.6719 Z " fill="#000000"/><ellipse cx="839.5" cy="1437.5" fill="#84BE84" rx="3" ry="3" style="stroke:#038048;stroke-width:1;"/><text fill="#000000" font-family="sans-serif" font-size="14" lengthAdjust="spacing" textLength="78.4902" x="845.5" y="1442.8467">JsonPointer</text><line style="stroke:#181818;stroke-width:0.5;" x1="806.5" x2="925.9902" y1="1454" y2="1454"/><ellipse cx="816.5" cy="1467.6484" fill="none" rx="3" ry="3" style="stroke:#038048;stroke-width:1;"/><text fill="#000000" font-family="sans-serif" font-size="14" lengthAdjust="spacing" textLength="87.5957" x="825.5" y="1470.9951">value: string</text><line style="stroke:#181818;stroke-width:0.5;" x1="806.5" x2="925.9902" y1="1478.2969" y2="1478.2969"/></g><!--class Password--><g class="entity" data-entity="Password" data-source-line="180" data-uid="ent0015" id="entity_Password"><rect fill="#F1F1F1" height="64.2969" rx="2.5" ry="2.5" style="stroke:#181818;stroke-width:0.5;" width="113.5957" x="962" y="1422"/><ellipse cx="978.9477" cy="1438" fill="#FF8F00" rx="11" ry="11" style="stroke:#181818;stroke-width:1;"/><path d="M980.1508,1438.1406 Q980.5102,1438.2188 980.7758,1438.5 Q981.057,1438.7656 981.4477,1439.5469 L983.682,1444 L980.9945,1444 L979.4945,1440.875 Q979.432,1440.7344 979.3227,1440.5 Q978.6664,1439.1094 977.7758,1439.1094 L976.9945,1439.1094 L976.9945,1444 L974.557,1444 L974.557,1431.6094 L978.0883,1431.6094 Q980.4789,1431.6094 981.5102,1432.4531 Q982.557,1433.2969 982.557,1435.2031 Q982.557,1436.4844 981.932,1437.25 Q981.3227,1438 980.1508,1438.1406 Z M976.9945,1433.6719 L976.9945,1437.0469 L978.1508,1437.0469 Q979.1664,1437.0469 979.5883,1436.6563 Q980.0258,1436.25 980.0258,1435.3438 Q980.0258,1434.4531 979.5883,1434.0625 Q979.1664,1433.6719 978.1508,1433.6719 L976.9945,1433.6719 Z " fill="#000000"/><ellipse cx="998.3805" cy="1437.5" fill="#84BE84" rx="3" ry="3" style="stroke:#038048;stroke-width:1;"/><text fill="#000000" font-family="sans-serif" font-size="14" lengthAdjust="spacing" textLength="66.2676" x="1004.3805" y="1442.8467">Password</text><line style="stroke:#181818;stroke-width:0.5;" x1="963" x2="1074.5957" y1="1454" y2="1454"/><ellipse cx="973" cy="1467.6484" fill="none" rx="3" ry="3" style="stroke:#038048;stroke-width:1;"/><text fill="#000000" font-family="sans-serif" font-size="14" lengthAdjust="spacing" textLength="87.5957" x="982" y="1470.9951">value: string</text><line style="stroke:#181818;stroke-width:0.5;" x1="963" x2="1074.5957" y1="1478.2969" y2="1478.2969"/></g><!--class RelativeJsonPointer--><g class="entity" data-entity="RelativeJsonPointer" data-source-line="193" data-uid="ent0016" id="entity_RelativeJsonPointer"><rect fill="#F1F1F1" height="64.2969" rx="2.5" ry="2.5" style="stroke:#181818;stroke-width:0.5;" width="178.5771" x="1111.5" y="1422"/><ellipse cx="1126.5" cy="1438" fill="#FF8F00" rx="11" ry="11" style="stroke:#181818;stroke-width:1;"/><path d="M1127.7031,1438.1406 Q1128.0625,1438.2188 1128.3281,1438.5 Q1128.6094,1438.7656 1129,1439.5469 L1131.2344,1444 L1128.5469,1444 L1127.0469,1440.875 Q1126.9844,1440.7344 1126.875,1440.5 Q1126.2188,1439.1094 1125.3281,1439.1094 L1124.5469,1439.1094 L1124.5469,1444 L1122.1094,1444 L1122.1094,1431.6094 L1125.6406,1431.6094 Q1128.0313,1431.6094 1129.0625,1432.4531 Q1130.1094,1433.2969 1130.1094,1435.2031 Q1130.1094,1436.4844 1129.4844,1437.25 Q1128.875,1438 1127.7031,1438.1406 Z M1124.5469,1433.6719 L1124.5469,1437.0469 L1125.7031,1437.0469 Q1126.7188,1437.0469 1127.1406,1436.6563 Q1127.5781,1436.25 1127.5781,1435.3438 Q1127.5781,1434.4531 1127.1406,1434.0625 Q1126.7188,1433.6719 1125.7031,1433.6719 L1124.5469,1433.6719 Z " fill="#000000"/><ellipse cx="1145.5" cy="1437.5" fill="#84BE84" rx="3" ry="3" style="stroke:#038048;stroke-width:1;"/><text fill="#000000" font-family="sans-serif" font-size="14" lengthAdjust="spacing" textLength="135.5771" x="1151.5" y="1442.8467">RelativeJsonPointer</text><line style="stroke:#181818;stroke-width:0.5;" x1="1112.5" x2="1289.0771" y1="1454" y2="1454"/><ellipse cx="1122.5" cy="1467.6484" fill="none" rx="3" ry="3" style="stroke:#038048;stroke-width:1;"/><text fill="#000000" font-family="sans-serif" font-size="14" lengthAdjust="spacing" textLength="87.5957" x="1131.5" y="1470.9951">value: string</text><line style="stroke:#181818;stroke-width:0.5;" x1="1112.5" x2="1289.0771" y1="1478.2969" y2="1478.2969"/></g><!--class UUID--><g class="entity" data-entity="UUID" data-source-line="206" data-uid="ent0017" id="entity_UUID"><rect fill="#F1F1F1" height="64.2969" rx="2.5" ry="2.5" style="stroke:#181818;stroke-width:0.5;" width="113.5957" x="1326" y="1422"/><ellipse cx="1356.8366" cy="1438" fill="#FF8F00" rx="11" ry="11" style="stroke:#181818;stroke-width:1;"/><path d="M1358.0397,1438.1406 Q1358.3991,1438.2188 1358.6647,1438.5 Q1358.9459,1438.7656 1359.3366,1439.5469 L1361.5709,1444 L1358.8834,1444 L1357.3834,1440.875 Q1357.3209,1440.7344 1357.2116,1440.5 Q1356.5553,1439.1094 1355.6647,1439.1094 L1354.8834,1439.1094 L1354.8834,1444 L1352.4459,1444 L1352.4459,1431.6094 L1355.9772,1431.6094 Q1358.3678,1431.6094 1359.3991,1432.4531 Q1360.4459,1433.2969 1360.4459,1435.2031 Q1360.4459,1436.4844 1359.8209,1437.25 Q1359.2116,1438 1358.0397,1438.1406 Z M1354.8834,1433.6719 L1354.8834,1437.0469 L1356.0397,1437.0469 Q1357.0553,1437.0469 1357.4772,1436.6563 Q1357.9147,1436.25 1357.9147,1435.3438 Q1357.9147,1434.4531 1357.4772,1434.0625 Q1357.0553,1433.6719 1356.0397,1433.6719 L1354.8834,1433.6719 Z " fill="#000000"/><ellipse cx="1379.3558" cy="1437.5" fill="#84BE84" rx="3" ry="3" style="stroke:#038048;stroke-width:1;"/><text fill="#000000" font-family="sans-serif" font-size="14" lengthAdjust="spacing" textLength="35.4033" x="1385.3558" y="1442.8467">UUID</text><line style="stroke:#181818;stroke-width:0.5;" x1="1327" x2="1438.5957" y1="1454" y2="1454"/><ellipse cx="1337" cy="1467.6484" fill="none" rx="3" ry="3" style="stroke:#038048;stroke-width:1;"/><text fill="#000000" font-family="sans-serif" font-size="14" lengthAdjust="spacing" textLength="87.5957" x="1346" y="1470.9951">value: string</text><line style="stroke:#181818;stroke-width:0.5;" x1="1327" x2="1438.5957" y1="1478.2969" y2="1478.2969"/></g><!--class URI--><g class="entity" data-entity="URI" data-source-line="219" data-uid="ent0018" id="entity_URI"><rect fill="#F1F1F1" height="64.2969" rx="2.5" ry="2.5" style="stroke:#181818;stroke-width:0.5;" width="113.5957" x="579" y="1174"/><ellipse cx="614.9215" cy="1190" fill="#FF8F00" rx="11" ry="11" style="stroke:#181818;stroke-width:1;"/><path d="M616.1246,1190.1406 Q616.484,1190.2188 616.7496,1190.5 Q617.0309,1190.7656 617.4215,1191.5469 L619.6559,1196 L616.9684,1196 L615.4684,1192.875 Q615.4059,1192.7344 615.2965,1192.5 Q614.6402,1191.1094 613.7496,1191.1094 L612.9684,1191.1094 L612.9684,1196 L610.5309,1196 L610.5309,1183.6094 L614.0621,1183.6094 Q616.4527,1183.6094 617.484,1184.4531 Q618.5309,1185.2969 618.5309,1187.2031 Q618.5309,1188.4844 617.9059,1189.25 Q617.2965,1190 616.1246,1190.1406 Z M612.9684,1185.6719 L612.9684,1189.0469 L614.1246,1189.0469 Q615.1402,1189.0469 615.5621,1188.6563 Q615.9996,1188.25 615.9996,1187.3438 Q615.9996,1186.4531 615.5621,1186.0625 Q615.1402,1185.6719 614.1246,1185.6719 L612.9684,1185.6719 Z " fill="#000000"/><ellipse cx="638.5707" cy="1189.5" fill="#84BE84" rx="3" ry="3" style="stroke:#038048;stroke-width:1;"/><text fill="#000000" font-family="sans-serif" font-size="14" lengthAdjust="spacing" textLength="24.1035" x="644.5707" y="1194.8467">URI</text><line style="stroke:#181818;stroke-width:0.5;" x1="580" x2="691.5957" y1="1206" y2="1206"/><ellipse cx="590" cy="1219.6484" fill="none" rx="3" ry="3" style="stroke:#038048;stroke-width:1;"/><text fill="#000000" font-family="sans-serif" font-size="14" lengthAdjust="spacing" textLength="87.5957" x="599" y="1222.9951">value: string</text><line style="stroke:#181818;stroke-width:0.5;" x1="580" x2="691.5957" y1="1230.2969" y2="1230.2969"/></g><!--class URIReference--><g class="entity" data-entity="URIReference" data-source-line="232" data-uid="ent0019" id="entity_URIReference"><rect fill="#F1F1F1" height="64.2969" rx="2.5" ry="2.5" style="stroke:#181818;stroke-width:0.5;" width="138.5391" x="634.5" y="1546"/><ellipse cx="649.5" cy="1562" fill="#FF8F00" rx="11" ry="11" style="stroke:#181818;stroke-width:1;"/><path d="M650.7031,1562.1406 Q651.0625,1562.2188 651.3281,1562.5 Q651.6094,1562.7656 652,1563.5469 L654.2344,1568 L651.5469,1568 L650.0469,1564.875 Q649.9844,1564.7344 649.875,1564.5 Q649.2188,1563.1094 648.3281,1563.1094 L647.5469,1563.1094 L647.5469,1568 L645.1094,1568 L645.1094,1555.6094 L648.6406,1555.6094 Q651.0313,1555.6094 652.0625,1556.4531 Q653.1094,1557.2969 653.1094,1559.2031 Q653.1094,1560.4844 652.4844,1561.25 Q651.875,1562 650.7031,1562.1406 Z M647.5469,1557.6719 L647.5469,1561.0469 L648.7031,1561.0469 Q649.7188,1561.0469 650.1406,1560.6563 Q650.5781,1560.25 650.5781,1559.3438 Q650.5781,1558.4531 650.1406,1558.0625 Q649.7188,1557.6719 648.7031,1557.6719 L647.5469,1557.6719 Z " fill="#000000"/><ellipse cx="668.5" cy="1561.5" fill="#84BE84" rx="3" ry="3" style="stroke:#038048;stroke-width:1;"/><text fill="#000000" font-family="sans-serif" font-size="14" lengthAdjust="spacing" textLength="95.5391" x="674.5" y="1566.8467">URIReference</text><line style="stroke:#181818;stroke-width:0.5;" x1="635.5" x2="772.0391" y1="1578" y2="1578"/><ellipse cx="645.5" cy="1591.6484" fill="none" rx="3" ry="3" style="stroke:#038048;stroke-width:1;"/><text fill="#000000" font-family="sans-serif" font-size="14" lengthAdjust="spacing" textLength="87.5957" x="654.5" y="1594.9951">value: string</text><line style="stroke:#181818;stroke-width:0.5;" x1="635.5" x2="772.0391" y1="1602.2969" y2="1602.2969"/></g><!--class URITemplate--><g class="entity" data-entity="URITemplate" data-source-line="245" data-uid="ent0020" id="entity_URITemplate"><rect fill="#F1F1F1" height="64.2969" rx="2.5" ry="2.5" style="stroke:#181818;stroke-width:0.5;" width="133.3643" x="808.5" y="1546"/><ellipse cx="823.5" cy="1562" fill="#FF8F00" rx="11" ry="11" style="stroke:#181818;stroke-width:1;"/><path d="M824.7031,1562.1406 Q825.0625,1562.2188 825.3281,1562.5 Q825.6094,1562.7656 826,1563.5469 L828.2344,1568 L825.5469,1568 L824.0469,1564.875 Q823.9844,1564.7344 823.875,1564.5 Q823.2188,1563.1094 822.3281,1563.1094 L821.5469,1563.1094 L821.5469,1568 L819.1094,1568 L819.1094,1555.6094 L822.6406,1555.6094 Q825.0313,1555.6094 826.0625,1556.4531 Q827.1094,1557.2969 827.1094,1559.2031 Q827.1094,1560.4844 826.4844,1561.25 Q825.875,1562 824.7031,1562.1406 Z M821.5469,1557.6719 L821.5469,1561.0469 L822.7031,1561.0469 Q823.7188,1561.0469 824.1406,1560.6563 Q824.5781,1560.25 824.5781,1559.3438 Q824.5781,1558.4531 824.1406,1558.0625 Q823.7188,1557.6719 822.7031,1557.6719 L821.5469,1557.6719 Z " fill="#000000"/><ellipse cx="842.5" cy="1561.5" fill="#84BE84" rx="3" ry="3" style="stroke:#038048;stroke-width:1;"/><text fill="#000000" font-family="sans-serif" font-size="14" lengthAdjust="spacing" textLength="90.3643" x="848.5" y="1566.8467">URITemplate</text><line style="stroke:#181818;stroke-width:0.5;" x1="809.5" x2="940.8643" y1="1578" y2="1578"/><ellipse cx="819.5" cy="1591.6484" fill="none" rx="3" ry="3" style="stroke:#038048;stroke-width:1;"/><text fill="#000000" font-family="sans-serif" font-size="14" lengthAdjust="spacing" textLength="87.5957" x="828.5" y="1594.9951">value: string</text><line style="stroke:#181818;stroke-width:0.5;" x1="809.5" x2="940.8643" y1="1602.2969" y2="1602.2969"/></g><!--class Time--><g class="entity" data-entity="Time" data-source-line="258" data-uid="ent0021" id="entity_Time"><rect fill="#F1F1F1" height="64.2969" rx="2.5" ry="2.5" style="stroke:#181818;stroke-width:0.5;" width="113.5957" x="977" y="1546"/><ellipse cx="1008.1565" cy="1562" fill="#FF8F00" rx="11" ry="11" style="stroke:#181818;stroke-width:1;"/><path d="M1009.3596,1562.1406 Q1009.719,1562.2188 1009.9846,1562.5 Q1010.2659,1562.7656 1010.6565,1563.5469 L1012.8909,1568 L1010.2034,1568 L1008.7034,1564.875 Q1008.6409,1564.7344 1008.5315,1564.5 Q1007.8752,1563.1094 1006.9846,1563.1094 L1006.2034,1563.1094 L1006.2034,1568 L1003.7659,1568 L1003.7659,1555.6094 L1007.2971,1555.6094 Q1009.6877,1555.6094 1010.719,1556.4531 Q1011.7659,1557.2969 1011.7659,1559.2031 Q1011.7659,1560.4844 1011.1409,1561.25 Q1010.5315,1562 1009.3596,1562.1406 Z M1006.2034,1557.6719 L1006.2034,1561.0469 L1007.3596,1561.0469 Q1008.3752,1561.0469 1008.7971,1560.6563 Q1009.2346,1560.25 1009.2346,1559.3438 Q1009.2346,1558.4531 1008.7971,1558.0625 Q1008.3752,1557.6719 1007.3596,1557.6719 L1006.2034,1557.6719 Z " fill="#000000"/><ellipse cx="1030.7468" cy="1561.5" fill="#84BE84" rx="3" ry="3" style="stroke:#038048;stroke-width:1;"/><text fill="#000000" font-family="sans-serif" font-size="14" lengthAdjust="spacing" textLength="34.6924" x="1036.7468" y="1566.8467">Time</text><line style="stroke:#181818;stroke-width:0.5;" x1="978" x2="1089.5957" y1="1578" y2="1578"/><ellipse cx="988" cy="1591.6484" fill="none" rx="3" ry="3" style="stroke:#038048;stroke-width:1;"/><text fill="#000000" font-family="sans-serif" font-size="14" lengthAdjust="spacing" textLength="87.5957" x="997" y="1594.9951">value: string</text><line style="stroke:#181818;stroke-width:0.5;" x1="978" x2="1089.5957" y1="1602.2969" y2="1602.2969"/></g><!--class Workflow_publish_workflow--><g class="entity" data-entity="Workflow_publish_workflow" data-source-line="277" data-uid="ent0023" id="entity_Workflow_publish_workflow"><rect fill="#F1F1F1" height="475.7188" rx="2.5" ry="2.5" style="stroke:#181818;stroke-width:0.5;" width="320.7314" x="338.5" y="149"/><ellipse cx="428.9629" cy="165" fill="#ADD1B2" rx="11" ry="11" style="stroke:#181818;stroke-width:1;"/><path d="M431.9316,170.6406 Q431.3535,170.9375 430.7129,171.0781 Q430.0723,171.2344 429.3691,171.2344 Q426.8691,171.2344 425.541,169.5938 Q424.2285,167.9375 424.2285,164.8125 Q424.2285,161.6875 425.541,160.0313 Q426.8691,158.375 429.3691,158.375 Q430.0723,158.375 430.7129,158.5313 Q431.3691,158.6875 431.9316,158.9844 L431.9316,161.7031 Q431.3066,161.125 430.7129,160.8594 Q430.1191,160.5781 429.4941,160.5781 Q428.1504,160.5781 427.4629,161.6563 Q426.7754,162.7188 426.7754,164.8125 Q426.7754,166.9063 427.4629,167.9844 Q428.1504,169.0469 429.4941,169.0469 Q430.1191,169.0469 430.7129,168.7813 Q431.3066,168.5 431.9316,167.9219 L431.9316,170.6406 Z " fill="#000000"/><ellipse cx="454.4629" cy="164.5" fill="#84BE84" rx="3" ry="3" style="stroke:#038048;stroke-width:1;"/><text fill="#000000" font-family="sans-serif" font-size="14" lengthAdjust="spacing" textLength="120.3057" x="460.4629" y="169.8467">publish_workflow</text><line style="stroke:#181818;stroke-width:0.5;" x1="339.5" x2="658.2314" y1="181" y2="181"/><text fill="#000000" font-family="sans-serif" font-size="14" lengthAdjust="spacing" textLength="4.4502" x="358.5" y="218.292">&#160;</text><ellipse cx="349.5" cy="231.2422" fill="none" rx="3" ry="3" style="stroke:#038048;stroke-width:1;"/><text fill="#000000" font-family="sans-serif" font-size="14" lengthAdjust="spacing" textLength="131.8447" x="358.5" y="234.5889">workflow_id: string</text><text fill="#000000" font-family="sans-serif" font-size="14" lengthAdjust="spacing" textLength="4.4502" x="358.5" y="250.8857">&#160;</text><ellipse cx="349.5" cy="263.8359" fill="none" rx="3" ry="3" style="stroke:#038048;stroke-width:1;"/><text fill="#000000" font-family="sans-serif" font-size="14" lengthAdjust="spacing" textLength="118.0293" x="358.5" y="267.1826">project_id: string</text><text fill="#000000" font-family="sans-serif" font-size="14" lengthAdjust="spacing" textLength="4.4502" x="358.5" y="283.4795">&#160;</text><ellipse cx="349.5" cy="296.4297" fill="none" rx="3" ry="3" style="stroke:#038048;stroke-width:1;"/><text fill="#000000" font-family="sans-serif" font-size="14" lengthAdjust="spacing" textLength="144.9561" x="358.5" y="299.7764">project_name: string</text><text fill="#000000" font-family="sans-serif" font-size="14" lengthAdjust="spacing" textLength="4.4502" x="358.5" y="316.0732">&#160;</text><ellipse cx="349.5" cy="329.0234" fill="none" rx="3" ry="3" style="stroke:#038048;stroke-width:1;"/><text fill="#000000" font-family="sans-serif" font-size="14" lengthAdjust="spacing" textLength="232.8662" x="358.5" y="332.3701">ogc_api_processes_endpoint: URI</text><text fill="#000000" font-family="sans-serif" font-size="14" lengthAdjust="spacing" textLength="4.4502" x="358.5" y="348.667">&#160;</text><ellipse cx="349.5" cy="361.6172" fill="none" rx="3" ry="3" style="stroke:#038048;stroke-width:1;"/><text fill="#000000" font-family="sans-serif" font-size="14" lengthAdjust="spacing" textLength="160.1045" x="358.5" y="364.9639">osc_location: Directory</text><text fill="#000000" font-family="sans-serif" font-size="14" lengthAdjust="spacing" textLength="4.4502" x="358.5" y="381.2607">&#160;</text><ellipse cx="349.5" cy="394.2109" fill="none" rx="3" ry="3" style="stroke:#038048;stroke-width:1;"/><text fill="#000000" font-family="sans-serif" font-size="14" lengthAdjust="spacing" textLength="188.5693" x="358.5" y="397.5576">cwl_workflow_location: URI</text><text fill="#000000" font-family="sans-serif" font-size="14" lengthAdjust="spacing" textLength="4.4502" x="358.5" y="413.8545">&#160;</text><text fill="#000000" font-family="sans-serif" font-size="14" lengthAdjust="spacing" textLength="4.4502" x="358.5" y="430.1514">&#160;</text><line style="stroke:#181818;stroke-width:0.5;" x1="339.5" x2="477.0933" y1="197.1484" y2="197.1484"/><text fill="#000000" font-family="sans-serif" font-size="14" lengthAdjust="spacing" textLength="43.5449" x="477.0933" y="201.4951">Inputs</text><line style="stroke:#181818;stroke-width:0.5;" x1="520.6382" x2="658.2314" y1="197.1484" y2="197.1484"/><text fill="#000000" font-family="sans-serif" font-size="14" lengthAdjust="spacing" textLength="4.4502" x="358.5" y="466.7451">&#160;</text><ellipse cx="349.5" cy="479.6953" fill="none" rx="3" ry="3" style="stroke:#038048;stroke-width:1;"/><text fill="#000000" font-family="sans-serif" font-size="14" lengthAdjust="spacing" textLength="72.2832" x="358.5" y="483.042">out: string</text><text fill="#000000" font-family="sans-serif" font-size="14" lengthAdjust="spacing" textLength="4.4502" x="358.5" y="499.3389">&#160;</text><text fill="#000000" font-family="sans-serif" font-size="14" lengthAdjust="spacing" textLength="4.4502" x="358.5" y="515.6357">&#160;</text><text fill="#000000" font-family="sans-serif" font-size="14" lengthAdjust="spacing" textLength="4.4502" x="358.5" y="531.9326">&#160;</text><line style="stroke:#181818;stroke-width:0.5;" x1="339.5" x2="470.9033" y1="445.6016" y2="445.6016"/><text fill="#000000" font-family="sans-serif" font-size="14" lengthAdjust="spacing" textLength="55.9248" x="470.9033" y="449.9482">Outputs</text><line style="stroke:#181818;stroke-width:0.5;" x1="526.8281" x2="658.2314" y1="445.6016" y2="445.6016"/><text fill="#000000" font-family="sans-serif" font-size="14" lengthAdjust="spacing" textLength="4.4502" x="358.5" y="568.5264">&#160;</text><rect fill="none" height="6" style="stroke:#C82930;stroke-width:1;" width="6" x="346.5" y="578.4766"/><text fill="#000000" font-family="sans-serif" font-size="14" lengthAdjust="spacing" textLength="294.7314" x="358.5" y="584.8232">publish_workflow_cli: publish_workflow_cli</text><text fill="#000000" font-family="sans-serif" font-size="14" lengthAdjust="spacing" textLength="4.4502" x="358.5" y="601.1201">&#160;</text><text fill="#000000" font-family="sans-serif" font-size="14" lengthAdjust="spacing" textLength="4.4502" x="358.5" y="617.417">&#160;</text><line style="stroke:#181818;stroke-width:0.5;" x1="339.5" x2="479.2808" y1="547.3828" y2="547.3828"/><text fill="#000000" font-family="sans-serif" font-size="14" lengthAdjust="spacing" textLength="39.1699" x="479.2808" y="551.7295">Steps</text><line style="stroke:#181818;stroke-width:0.5;" x1="518.4507" x2="658.2314" y1="547.3828" y2="547.3828"/></g><!--class Workflow--><g class="entity" data-entity="Workflow" data-source-line="278" data-uid="ent0024" id="entity_Workflow"><rect fill="#F1F1F1" height="48" rx="2.5" ry="2.5" style="stroke:#181818;stroke-width:0.5;" width="97.1055" x="450.5" y="41"/><ellipse cx="465.5" cy="57" fill="#ADD1B2" rx="11" ry="11" style="stroke:#181818;stroke-width:1;"/><path d="M468.4688,62.6406 Q467.8906,62.9375 467.25,63.0781 Q466.6094,63.2344 465.9063,63.2344 Q463.4063,63.2344 462.0781,61.5938 Q460.7656,59.9375 460.7656,56.8125 Q460.7656,53.6875 462.0781,52.0313 Q463.4063,50.375 465.9063,50.375 Q466.6094,50.375 467.25,50.5313 Q467.9063,50.6875 468.4688,50.9844 L468.4688,53.7031 Q467.8438,53.125 467.25,52.8594 Q466.6563,52.5781 466.0313,52.5781 Q464.6875,52.5781 464,53.6563 Q463.3125,54.7188 463.3125,56.8125 Q463.3125,58.9063 464,59.9844 Q464.6875,61.0469 466.0313,61.0469 Q466.6563,61.0469 467.25,60.7813 Q467.8438,60.5 468.4688,59.9219 L468.4688,62.6406 Z " fill="#000000"/><text fill="#000000" font-family="sans-serif" font-size="14" lengthAdjust="spacing" textLength="65.1055" x="479.5" y="61.8467">Workflow</text><line style="stroke:#181818;stroke-width:0.5;" x1="451.5" x2="546.6055" y1="73" y2="73"/><line style="stroke:#181818;stroke-width:0.5;" x1="451.5" x2="546.6055" y1="81" y2="81"/></g><!--class CommandLineTool_publish_workflow_cli--><g class="entity" data-entity="CommandLineTool_publish_workflow_cli" data-source-line="340" data-uid="ent0029" id="entity_CommandLineTool_publish_workflow_cli"><rect fill="#F1F1F1" height="390.2344" rx="2.5" ry="2.5" style="stroke:#181818;stroke-width:0.5;" width="258.8662" x="46.5" y="685"/><ellipse cx="94.792" cy="701" fill="#ADD1B2" rx="11" ry="11" style="stroke:#181818;stroke-width:1;"/><path d="M97.7607,706.6406 Q97.1826,706.9375 96.542,707.0781 Q95.9014,707.2344 95.1982,707.2344 Q92.6982,707.2344 91.3701,705.5938 Q90.0576,703.9375 90.0576,700.8125 Q90.0576,697.6875 91.3701,696.0313 Q92.6982,694.375 95.1982,694.375 Q95.9014,694.375 96.542,694.5313 Q97.1982,694.6875 97.7607,694.9844 L97.7607,697.7031 Q97.1357,697.125 96.542,696.8594 Q95.9482,696.5781 95.3232,696.5781 Q93.9795,696.5781 93.292,697.6563 Q92.6045,698.7188 92.6045,700.8125 Q92.6045,702.9063 93.292,703.9844 Q93.9795,705.0469 95.3232,705.0469 Q95.9482,705.0469 96.542,704.7813 Q97.1357,704.5 97.7607,703.9219 L97.7607,706.6406 Z " fill="#000000"/><ellipse cx="120.292" cy="700.5" fill="#84BE84" rx="3" ry="3" style="stroke:#038048;stroke-width:1;"/><text fill="#000000" font-family="sans-serif" font-size="14" lengthAdjust="spacing" textLength="142.7822" x="126.292" y="705.8467">publish_workflow_cli</text><line style="stroke:#181818;stroke-width:0.5;" x1="47.5" x2="304.3662" y1="717" y2="717"/><text fill="#000000" font-family="sans-serif" font-size="14" lengthAdjust="spacing" textLength="4.4502" x="66.5" y="754.292">&#160;</text><ellipse cx="57.5" cy="767.2422" fill="none" rx="3" ry="3" style="stroke:#038048;stroke-width:1;"/><text fill="#000000" font-family="sans-serif" font-size="14" lengthAdjust="spacing" textLength="131.8447" x="66.5" y="770.5889">workflow_id: string</text><text fill="#000000" font-family="sans-serif" font-size="14" lengthAdjust="spacing" textLength="4.4502" x="66.5" y="786.8857">&#160;</text><ellipse cx="57.5" cy="799.8359" fill="none" rx="3" ry="3" style="stroke:#038048;stroke-width:1;"/><text fill="#000000" font-family="sans-serif" font-size="14" lengthAdjust="spacing" textLength="118.0293" x="66.5" y="803.1826">project_id: string</text><text fill="#000000" font-family="sans-serif" font-size="14" lengthAdjust="spacing" textLength="4.4502" x="66.5" y="819.4795">&#160;</text><ellipse cx="57.5" cy="832.4297" fill="none" rx="3" ry="3" style="stroke:#038048;stroke-width:1;"/><text fill="#000000" font-family="sans-serif" font-size="14" lengthAdjust="spacing" textLength="144.9561" x="66.5" y="835.7764">project_name: string</text><text fill="#000000" font-family="sans-serif" font-size="14" lengthAdjust="spacing" textLength="4.4502" x="66.5" y="852.0732">&#160;</text><ellipse cx="57.5" cy="865.0234" fill="none" rx="3" ry="3" style="stroke:#038048;stroke-width:1;"/><text fill="#000000" font-family="sans-serif" font-size="14" lengthAdjust="spacing" textLength="232.8662" x="66.5" y="868.3701">ogc_api_processes_endpoint: URI</text><text fill="#000000" font-family="sans-serif" font-size="14" lengthAdjust="spacing" textLength="4.4502" x="66.5" y="884.667">&#160;</text><ellipse cx="57.5" cy="897.6172" fill="none" rx="3" ry="3" style="stroke:#038048;stroke-width:1;"/><text fill="#000000" font-family="sans-serif" font-size="14" lengthAdjust="spacing" textLength="160.1045" x="66.5" y="900.9639">osc_location: Directory</text><text fill="#000000" font-family="sans-serif" font-size="14" lengthAdjust="spacing" textLength="4.4502" x="66.5" y="917.2607">&#160;</text><ellipse cx="57.5" cy="930.2109" fill="none" rx="3" ry="3" style="stroke:#038048;stroke-width:1;"/><text fill="#000000" font-family="sans-serif" font-size="14" lengthAdjust="spacing" textLength="188.5693" x="66.5" y="933.5576">cwl_workflow_location: URI</text><text fill="#000000" font-family="sans-serif" font-size="14" lengthAdjust="spacing" textLength="4.4502" x="66.5" y="949.8545">&#160;</text><text fill="#000000" font-family="sans-serif" font-size="14" lengthAdjust="spacing" textLength="4.4502" x="66.5" y="966.1514">&#160;</text><line style="stroke:#181818;stroke-width:0.5;" x1="47.5" x2="154.1606" y1="733.1484" y2="733.1484"/><text fill="#000000" font-family="sans-serif" font-size="14" lengthAdjust="spacing" textLength="43.5449" x="154.1606" y="737.4951">Inputs</text><line style="stroke:#181818;stroke-width:0.5;" x1="197.7056" x2="304.3662" y1="733.1484" y2="733.1484"/><text fill="#000000" font-family="sans-serif" font-size="14" lengthAdjust="spacing" textLength="4.4502" x="66.5" y="1002.7451">&#160;</text><ellipse cx="57.5" cy="1015.6953" fill="none" rx="3" ry="3" style="stroke:#038048;stroke-width:1;"/><text fill="#000000" font-family="sans-serif" font-size="14" lengthAdjust="spacing" textLength="72.2832" x="66.5" y="1019.042">out: string</text><text fill="#000000" font-family="sans-serif" font-size="14" lengthAdjust="spacing" textLength="4.4502" x="66.5" y="1035.3389">&#160;</text><text fill="#000000" font-family="sans-serif" font-size="14" lengthAdjust="spacing" textLength="4.4502" x="66.5" y="1051.6357">&#160;</text><text fill="#000000" font-family="sans-serif" font-size="14" lengthAdjust="spacing" textLength="4.4502" x="66.5" y="1067.9326">&#160;</text><line style="stroke:#181818;stroke-width:0.5;" x1="47.5" x2="147.9707" y1="981.6016" y2="981.6016"/><text fill="#000000" font-family="sans-serif" font-size="14" lengthAdjust="spacing" textLength="55.9248" x="147.9707" y="985.9482">Outputs</text><line style="stroke:#181818;stroke-width:0.5;" x1="203.8955" x2="304.3662" y1="981.6016" y2="981.6016"/></g><!--class CommandLineTool--><g class="entity" data-entity="CommandLineTool" data-source-line="341" data-uid="ent0030" id="entity_CommandLineTool"><rect fill="#F1F1F1" height="48" rx="2.5" ry="2.5" style="stroke:#181818;stroke-width:0.5;" width="162.7031" x="94.5" y="363"/><ellipse cx="109.5" cy="379" fill="#ADD1B2" rx="11" ry="11" style="stroke:#181818;stroke-width:1;"/><path d="M112.4688,384.6406 Q111.8906,384.9375 111.25,385.0781 Q110.6094,385.2344 109.9063,385.2344 Q107.4063,385.2344 106.0781,383.5938 Q104.7656,381.9375 104.7656,378.8125 Q104.7656,375.6875 106.0781,374.0313 Q107.4063,372.375 109.9063,372.375 Q110.6094,372.375 111.25,372.5313 Q111.9063,372.6875 112.4688,372.9844 L112.4688,375.7031 Q111.8438,375.125 111.25,374.8594 Q110.6563,374.5781 110.0313,374.5781 Q108.6875,374.5781 108,375.6563 Q107.3125,376.7188 107.3125,378.8125 Q107.3125,380.9063 108,381.9844 Q108.6875,383.0469 110.0313,383.0469 Q110.6563,383.0469 111.25,382.7813 Q111.8438,382.5 112.4688,381.9219 L112.4688,384.6406 Z " fill="#000000"/><text fill="#000000" font-family="sans-serif" font-size="14" lengthAdjust="spacing" textLength="130.7031" x="123.5" y="383.8467">CommandLineTool</text><line style="stroke:#181818;stroke-width:0.5;" x1="95.5" x2="256.2031" y1="395" y2="395"/><line style="stroke:#181818;stroke-width:0.5;" x1="95.5" x2="256.2031" y1="403" y2="403"/></g><!--class SchemaDefRequirement--><g class="entity" data-entity="SchemaDefRequirement" data-source-line="399" data-uid="ent0036" id="entity_SchemaDefRequirement"><rect fill="#F1F1F1" height="48" rx="2.5" ry="2.5" style="stroke:#181818;stroke-width:0.5;" width="203.582" x="362" y="856"/><ellipse cx="377" cy="872" fill="#ADD1B2" rx="11" ry="11" style="stroke:#181818;stroke-width:1;"/><path d="M379.9688,877.6406 Q379.3906,877.9375 378.75,878.0781 Q378.1094,878.2344 377.4063,878.2344 Q374.9063,878.2344 373.5781,876.5938 Q372.2656,874.9375 372.2656,871.8125 Q372.2656,868.6875 373.5781,867.0313 Q374.9063,865.375 377.4063,865.375 Q378.1094,865.375 378.75,865.5313 Q379.4063,865.6875 379.9688,865.9844 L379.9688,868.7031 Q379.3438,868.125 378.75,867.8594 Q378.1563,867.5781 377.5313,867.5781 Q376.1875,867.5781 375.5,868.6563 Q374.8125,869.7188 374.8125,871.8125 Q374.8125,873.9063 375.5,874.9844 Q376.1875,876.0469 377.5313,876.0469 Q378.1563,876.0469 378.75,875.7813 Q379.3438,875.5 379.9688,874.9219 L379.9688,877.6406 Z " fill="#000000"/><text fill="#000000" font-family="sans-serif" font-size="14" lengthAdjust="spacing" textLength="171.582" x="391" y="876.8467">SchemaDefRequirement</text><line style="stroke:#181818;stroke-width:0.5;" x1="363" x2="564.582" y1="888" y2="888"/><line style="stroke:#181818;stroke-width:0.5;" x1="363" x2="564.582" y1="896" y2="896"/></g><!--reverse link Workflow to Workflow_publish_workflow--><g class="link" data-entity-1="Workflow" data-entity-2="Workflow_publish_workflow" data-source-line="278" data-uid="lnk25" id="link_Workflow_Workflow_publish_workflow"><path d="M499,107.01 C499,121.85 499,124.82 499,148.84" fill="none" id="Workflow-backto-Workflow_publish_workflow" style="stroke:#181818;stroke-width:1;"/><polygon fill="none" points="499,89.01,493,107.01,505,107.01,499,89.01" style="stroke:#181818;stroke-width:1;"/></g><!--link Workflow_publish_workflow to URI--><g class="link" data-entity-1="Workflow_publish_workflow" data-entity-2="URI" data-source-line="320" data-uid="lnk26" id="link_Workflow_publish_workflow_URI"><path codeLine="320" d="M552.13,625.05 C556.87,645.23 561.27,665.41 565,685 C599.9,868.46 612.6404,1086.994 625.4904,1168.034" fill="none" id="Workflow_publish_workflow-to-URI" style="stroke:#181818;stroke-width:1;"/><polygon fill="#181818" points="626.43,1173.96,628.9712,1164.4446,625.647,1169.0217,621.0699,1165.6975,626.43,1173.96" style="stroke:#181818;stroke-width:1;"/></g><!--link Workflow_publish_workflow to URI--><g class="link" data-entity-1="Workflow_publish_workflow" data-entity-2="URI" data-source-line="328" data-uid="lnk27" id="link_Workflow_publish_workflow_URI"><path codeLine="328" d="M587.02,625.05 C591.87,645.23 596.27,665.41 600,685 C634.9,868.46 648.973,1086.9329 643.653,1167.9729" fill="none" id="Workflow_publish_workflow-to-URI-1" style="stroke:#181818;stroke-width:1;"/><polygon fill="#181818" points="643.26,1173.96,647.841,1165.2414,643.5875,1168.9707,639.8581,1164.7173,643.26,1173.96" style="stroke:#181818;stroke-width:1;"/></g><!--reverse link CommandLineTool to CommandLineTool_publish_workflow_cli--><g class="link" data-entity-1="CommandLineTool" data-entity-2="CommandLineTool_publish_workflow_cli" data-source-line="341" data-uid="lnk31" id="link_CommandLineTool_CommandLineTool_publish_workflow_cli"><path d="M176,429.02 C176,478.08 176,579.08 176,684.79" fill="none" id="CommandLineTool-backto-CommandLineTool_publish_workflow_cli" style="stroke:#181818;stroke-width:1;"/><polygon fill="none" points="176,411.02,170,429.02,182,429.02,176,411.02" style="stroke:#181818;stroke-width:1;"/></g><!--link CommandLineTool_publish_workflow_cli to URI--><g class="link" data-entity-1="CommandLineTool_publish_workflow_cli" data-entity-2="URI" data-source-line="378" data-uid="lnk32" id="link_CommandLineTool_publish_workflow_cli_URI"><path codeLine="378" d="M275.98,1075.07 C292.1,1092.95 309.84,1109.41 329,1123 C404,1176.2 506.7292,1194.409 573.0092,1200.969" fill="none" id="CommandLineTool_publish_workflow_cli-to-URI" style="stroke:#181818;stroke-width:1;"/><polygon fill="#181818" points="578.98,1201.56,570.4177,1196.693,574.0043,1201.0675,569.6298,1204.6541,578.98,1201.56" style="stroke:#181818;stroke-width:1;"/></g><!--link CommandLineTool_publish_workflow_cli to URI--><g class="link" data-entity-1="CommandLineTool_publish_workflow_cli" data-entity-2="URI" data-source-line="386" data-uid="lnk33" id="link_CommandLineTool_publish_workflow_cli_URI"><path codeLine="386" d="M305.74,1069.46 C323.43,1089.5 342.85,1108 364,1123 C429.29,1169.32 514.1962,1188.6711 572.8762,1197.4611" fill="none" id="CommandLineTool_publish_workflow_cli-to-URI-1" style="stroke:#181818;stroke-width:1;"/><polygon fill="#181818" points="578.81,1198.35,570.5019,1193.0609,573.8652,1197.6093,569.3167,1200.9726,578.81,1198.35" style="stroke:#181818;stroke-width:1;"/></g><!--link Workflow_publish_workflow to CommandLineTool_publish_workflow_cli--><g class="link" data-entity-1="Workflow_publish_workflow" data-entity-2="CommandLineTool_publish_workflow_cli" data-source-line="389" data-uid="lnk34" id="link_Workflow_publish_workflow_CommandLineTool_publish_workflow_cli"><path codeLine="389" d="M342.94,625.23 C329.8,645.2 319.9174,660.2273 307.0374,679.8073" fill="none" id="Workflow_publish_workflow-to-CommandLineTool_publish_workflow_cli" style="stroke:#181818;stroke-width:1;"/><polygon fill="#181818" points="303.74,684.82,312.0279,679.4992,306.4878,680.6428,305.3443,675.1027,303.74,684.82" style="stroke:#181818;stroke-width:1;"/></g><!--link Workflow_publish_workflow to SchemaDefRequirement--><g class="link" data-entity-1="Workflow_publish_workflow" data-entity-2="SchemaDefRequirement" data-source-line="400" data-uid="lnk37" id="link_Workflow_publish_workflow_SchemaDefRequirement"><path codeLine="400" d="M482.09,625.23 C475.44,718.58 469.0969,807.5352 466.0669,850.0152" fill="none" id="Workflow_publish_workflow-to-SchemaDefRequirement" style="stroke:#181818;stroke-width:1;"/><polygon fill="#181818" points="465.64,856,470.2702,847.3074,465.9957,851.0127,462.2905,846.7382,465.64,856" style="stroke:#181818;stroke-width:1;"/></g><!--SRC=[xLb1Rzem5BxpAvwuz81eQTQXAOTTogGnJMj5GJkchlDAlJfs5ZkmQUA_pqb6I204cg2va-P3CCxtlhpFVlc8myLP1yvWnCWy8W7CKM14DFhmy1FeaZjX771O3CwltfmF4g1c0IfDWj05P-0C-uEt_KjdUZbq1-_Sowjpnt4Cwg9JR61QUYXraXOI-apc2Dqx-eG1KLtuLJg_4v0FLe_2djQBaCh8Xv5HPYwHuteBmcDqGUc8YNaslie-pa1846WcGaiWlWyaY-xttvVW1tCuTVvJim3jDAGCTdN4fiQO52rqh1ciwlWG4CQRYyZ2hIhuA9KMf4r5vGnMTOn7NrekHivWMqVx9IcIs5LpkxXg8IE9jft_i5N-GylvJyOjqZV1jhEVu2D6A2Ysah5XiQhdavBYLZAXCMekfqXYLSqjKMgPT1fBoHciwfWWDqyI2pp9wbIHMLKtcur7pUMaqNRpR-DWCziEDZk9WyrUZOEPJAOOXBpLDgf8ObLDkvtK2NPHgqxbgSv6Kxv1lWbHm1rbQGrS4qsudCEzSS_dHowNzn363vpHT4lKNMlAZZtAZSz2DqMe9syTqmMYuEkVBzxsMS0V6eM_GHHsvfu7On76MfdUxhw-1siEZ_dvP5R0maX-GwgFH2KFitKuEQSU2Pbdy1ILGkMPzCF4WjsauYf35FMup2RDXH4pPQ5bzBCAIfSydvf2J8cuE3ytiQwP81dhNIcxGCDpfp4iiPG0VTXUDezovbQErfJQQkiDJTwhgFhz1LEu5Vv9klhOzKgV8ezofJLFPHE-UO-Mr4lnBLfdlq- -n5ltcKXIMQcHNCiW8CB_p0HEfUHU5J3tb2tmVslvgzRoajlzg6LjTAk-UkQZQLvc3KVJ7dI9vWdcNFL6Sym53l-iLBZK1B_7Hbs0GjUOrRgJMK_s3y487ml1HnfcRUY1l5U_0G00]--></g></svg>