<svg xmlns="http://www.w3.org/2000/svg" xmlns:xlink="http://www.w3.org/1999/xlink" contentStyleType="text/css" data-diagram-type="JSON" height="90px" preserveAspectRatio="none" style="width:519px;height:90px;background:#FFFFFF;" version="1.1" viewBox="0 0 519 90" width="519px" zoomAndPan="magnify"><defs/><g><rect fill="#F1F1F1" height="20.2969" rx="5" ry="5" style="stroke:#F1F1F1;stroke-width:1.5;" width="59.6279" x="10" y="29"/><text fill="#000000" font-family="sans-serif" font-size="14" font-weight="bold" lengthAdjust="spacing" textLength="26.2773" x="15" y="43.9951">out</text><text fill="#000000" font-family="sans-serif" font-size="14" lengthAdjust="spacing" textLength="13.3506" x="51.2773" y="43.9951">&#160;&#160;&#160;</text><line style="stroke:#000000;stroke-width:1;" x1="46.2773" x2="46.2773" y1="29" y2="49.2969"/><rect fill="none" height="20.2969" rx="5" ry="5" style="stroke:#000000;stroke-width:1.5;" width="59.6279" x="10" y="29"/><rect fill="#F1F1F1" height="40.5938" rx="5" ry="5" style="stroke:#F1F1F1;stroke-width:1.5;" width="109.1816" x="107" y="18.6484"/><text fill="#000000" font-family="sans-serif" font-size="14" font-weight="bold" lengthAdjust="spacing" textLength="60.1289" x="112" y="33.6436">schema</text><text fill="#000000" font-family="sans-serif" font-size="14" lengthAdjust="spacing" textLength="13.3506" x="197.8311" y="33.6436">&#160;&#160;&#160;</text><line style="stroke:#000000;stroke-width:1;" x1="192.8311" x2="192.8311" y1="18.6484" y2="38.9453"/><line style="stroke:#000000;stroke-width:1;" x1="107" x2="216.1816" y1="38.9453" y2="38.9453"/><text fill="#000000" font-family="sans-serif" font-size="14" font-weight="bold" lengthAdjust="spacing" textLength="75.8311" x="112" y="53.9404">metadata</text><text fill="#000000" font-family="sans-serif" font-size="14" lengthAdjust="spacing" textLength="13.3506" x="197.8311" y="53.9404">&#160;&#160;&#160;</text><line style="stroke:#000000;stroke-width:1;" x1="192.8311" x2="192.8311" y1="38.9453" y2="59.2422"/><rect fill="none" height="40.5938" rx="5" ry="5" style="stroke:#000000;stroke-width:1.5;" width="109.1816" x="107" y="18.6484"/><rect fill="#F1F1F1" height="20.2969" rx="5" ry="5" style="stroke:#F1F1F1;stroke-width:1.5;" width="95.5234" x="253" y="10"/><text fill="#000000" font-family="sans-serif" font-size="14" font-weight="bold" lengthAdjust="spacing" textLength="35.335" x="258" y="24.9951">type</text><text fill="#000000" font-family="sans-serif" font-size="14" lengthAdjust="spacing" textLength="40.1885" x="303.335" y="24.9951">string</text><line style="stroke:#000000;stroke-width:1;" x1="298.335" x2="298.335" y1="10" y2="30.2969"/><rect fill="none" height="20.2969" rx="5" ry="5" style="stroke:#000000;stroke-width:1.5;" width="95.5234" x="253" y="10"/><rect fill="#F1F1F1" height="20.2969" rx="5" ry="5" style="stroke:#F1F1F1;stroke-width:1.5;" width="23.3506" x="289.5" y="48"/><text fill="#000000" font-family="sans-serif" font-size="14" lengthAdjust="spacing" textLength="13.3506" x="294.5" y="62.9951">&#160;&#160;&#160;</text><rect fill="none" height="20.2969" rx="5" ry="5" style="stroke:#000000;stroke-width:1.5;" width="23.3506" x="289.5" y="48"/><rect fill="#F1F1F1" height="40.5938" rx="5" ry="5" style="stroke:#F1F1F1;stroke-width:1.5;" width="121.8623" x="386" y="37.6484"/><text fill="#000000" font-family="sans-serif" font-size="14" font-weight="bold" lengthAdjust="spacing" textLength="32.4775" x="391" y="52.6436">title</text><text fill="#000000" font-family="sans-serif" font-size="14" lengthAdjust="spacing" textLength="59.0283" x="443.834" y="52.6436">cwl:type</text><line style="stroke:#000000;stroke-width:1;" x1="438.834" x2="438.834" y1="37.6484" y2="57.9453"/><line style="stroke:#000000;stroke-width:1;" x1="386" x2="507.8623" y1="57.9453" y2="57.9453"/><text fill="#000000" font-family="sans-serif" font-size="14" font-weight="bold" lengthAdjust="spacing" textLength="42.834" x="391" y="72.9404">value</text><text fill="#000000" font-family="sans-serif" font-size="14" lengthAdjust="spacing" textLength="40.1885" x="443.834" y="72.9404">string</text><line style="stroke:#000000;stroke-width:1;" x1="438.834" x2="438.834" y1="57.9453" y2="78.2422"/><rect fill="none" height="40.5938" rx="5" ry="5" style="stroke:#000000;stroke-width:1.5;" width="121.8623" x="386" y="37.6484"/><path d="M204,29.1484 L217,29.1484 C226.319,29.1484 236.1895,28.5874 245.7552,27.7456" fill="none" style="stroke:#000000;stroke-width:1;stroke-dasharray:3,3;"/><path d="M246.0472,30.7815 L248.0322,27.5266 L245.4632,24.7096 L253.3451,27.0156 L246.0472,30.7815" fill="#000000"/><ellipse cx="204" cy="29.1484" fill="#000000" rx="3" ry="3" style="stroke:#000000;stroke-width:1;"/><path d="M300.366,58.1484 L313.366,58.1484 C327.8932,58.1484 353.6606,58.1484 378.6813,58.1484" fill="none" style="stroke:#000000;stroke-width:1;stroke-dasharray:3,3;"/><path d="M378.6813,61.2396 L380.9997,58.1484 L378.6813,55.0573 L386.4091,58.1484 L378.6813,61.2396" fill="#000000"/><ellipse cx="300.366" cy="58.1484" fill="#000000" rx="3" ry="3" style="stroke:#000000;stroke-width:1;"/><path d="M204,49.1484 L217,49.1484 C239.6795,49.1484 265.6255,52.4711 282.4956,55.0787" fill="none" style="stroke:#000000;stroke-width:1;stroke-dasharray:3,3;"/><path d="M282.0136,58.0781 L284.7452,55.4402 L282.9776,52.0793 L289.9941,56.2836 L282.0136,58.0781" fill="#000000"/><ellipse cx="204" cy="49.1484" fill="#000000" rx="3" ry="3" style="stroke:#000000;stroke-width:1;"/><path d="M58,39.1484 L71,39.1484 C80.2468,39.1484 90.0281,39.1484 99.6025,39.1484" fill="none" style="stroke:#000000;stroke-width:1;stroke-dasharray:3,3;"/><path d="M99.6025,42.1964 L101.8884,39.1484 L99.6025,36.1004 L107.2224,39.1484 L99.6025,42.1964" fill="#000000"/><ellipse cx="58" cy="39.1484" fill="#000000" rx="3" ry="3" style="stroke:#000000;stroke-width:1;"/><!--SRC=[POz1Jm8n48Nl_HMJFK42P25ej2UYgCdAAf65Y_5GTqUiwKv9Txg66FwxxIfoyDIPD-zzCvqrh1n_D9R4bm18hET4GYn3qvJlMAk_FYYyts7eauQTfctIoOV1Zxj6LfNYw7_-zHzpCQdPTD7oqyWECpWDMsNyFsuWT- -BYDL1p92gxb2nD8fudI-WHTTeIp0UJTB9sMYSzWgFy61RIASmJkKabTDBo5S5n7bVzEwM2sYiToL2fUEoLyy1q1UPQXKyUM9TeuJ77L8slpyAS4EjTfPg91RP9ZyPpgV3AysmGXTEWKqkvlYclE6GA6qLlY9XNTmEByH2qTQhRM0ZYMiRk6ulWRmntm00]--></g></svg>