<svg xmlns="http://www.w3.org/2000/svg" xmlns:xlink="http://www.w3.org/1999/xlink" contentStyleType="text/css" data-diagram-type="STATE" height="512px" preserveAspectRatio="none" style="width:823px;height:512px;background:#FFFFFF;" version="1.1" viewBox="0 0 823 512" width="823px" zoomAndPan="magnify"><defs/><g><!--cluster publish_workflow--><g class="cluster" data-entity="publish_workflow" data-source-line="12" data-uid="ent0002" id="cluster_publish_workflow"><path d="M19.5,104 L797.5,104 A12.5,12.5 0 0 1 810,116.5 L810,125.2969 L7,125.2969 L7,116.5 A12.5,12.5 0 0 1 19.5,104" fill="#F1F1F1"/><rect fill="none" height="314.72" rx="12.5" ry="12.5" style="stroke:#181818;stroke-width:0.5;" width="803" x="7" y="104"/><line style="stroke:#181818;stroke-width:0.5;" x1="7" x2="810" y1="125.2969" y2="125.2969"/><text fill="#000000" font-family="sans-serif" font-size="14" lengthAdjust="spacing" textLength="120.3057" x="348.3472" y="121.9951">publish_workflow</text></g><!--cluster publish_workflow_cli--><g class="cluster" data-entity="publish_workflow_cli" data-source-line="45" data-uid="ent0009" id="cluster_publish_workflow_cli"><path d="M131.5,202 L766,202 A12.5,12.5 0 0 1 778.5,214.5 L778.5,223.2969 L119,223.2969 L119,214.5 A12.5,12.5 0 0 1 131.5,202" fill="#F1F1F1"/><rect fill="none" height="144.72" rx="12.5" ry="12.5" style="stroke:#181818;stroke-width:0.5;" width="659.5" x="119" y="202"/><line style="stroke:#181818;stroke-width:0.5;" x1="119" x2="778.5" y1="223.2969" y2="223.2969"/><text fill="#000000" font-family="sans-serif" font-size="14" lengthAdjust="spacing" textLength="142.7822" x="377.3589" y="219.9951">publish_workflow_cli</text></g><text fill="#000000" font-family="sans-serif" font-size="14" lengthAdjust="spacing" textLength="82.4893" x="719.2554" y="82.6982">workflow_id</text><ellipse cx="760.5" cy="104" fill="#F1F1F1" rx="6" ry="6" style="stroke:#181818;stroke-width:1.5;"/><text fill="#000000" font-family="sans-serif" font-size="14" lengthAdjust="spacing" textLength="68.6738" x="633.6631" y="82.6982">project_id</text><ellipse cx="668" cy="104" fill="#F1F1F1" rx="6" ry="6" style="stroke:#181818;stroke-width:1.5;"/><text fill="#000000" font-family="sans-serif" font-size="14" lengthAdjust="spacing" textLength="95.6006" x="525.6997" y="82.6982">project_name</text><ellipse cx="573.5" cy="104" fill="#F1F1F1" rx="6" ry="6" style="stroke:#181818;stroke-width:1.5;"/><text fill="#000000" font-family="sans-serif" font-size="14" lengthAdjust="spacing" textLength="199.5957" x="328.7021" y="82.6982">ogc_api_processes_endpoint</text><ellipse cx="428.5" cy="104" fill="#F1F1F1" rx="6" ry="6" style="stroke:#181818;stroke-width:1.5;"/><text fill="#000000" font-family="sans-serif" font-size="14" lengthAdjust="spacing" textLength="86.1055" x="216.9473" y="82.6982">osc_location</text><ellipse cx="260" cy="104" fill="#F1F1F1" rx="6" ry="6" style="stroke:#181818;stroke-width:1.5;"/><text fill="#000000" font-family="sans-serif" font-size="14" lengthAdjust="spacing" textLength="155.2988" x="59.3506" y="82.6982">cwl_workflow_location</text><ellipse cx="137" cy="104" fill="#F1F1F1" rx="6" ry="6" style="stroke:#181818;stroke-width:1.5;"/><text fill="#000000" font-family="sans-serif" font-size="14" lengthAdjust="spacing" textLength="22.9277" x="410.5361" y="437.7151">out</text><ellipse cx="422" cy="418.72" fill="#F1F1F1" rx="6" ry="6" style="stroke:#181818;stroke-width:1.5;"/><line style="stroke:#181818;stroke-width:1.5;" x1="426.3891" x2="418.6109" y1="423.1091" y2="415.3309"/><line style="stroke:#181818;stroke-width:1.5;" x1="426.3891" x2="418.6109" y1="415.3309" y2="423.1091"/><text fill="#000000" font-family="sans-serif" font-size="14" lengthAdjust="spacing" textLength="82.4893" x="719.2554" y="180.6982">workflow_id</text><ellipse cx="760.5" cy="202" fill="#F1F1F1" rx="6" ry="6" style="stroke:#181818;stroke-width:1.5;"/><text fill="#000000" font-family="sans-serif" font-size="14" lengthAdjust="spacing" textLength="68.6738" x="633.6631" y="180.6982">project_id</text><ellipse cx="668" cy="202" fill="#F1F1F1" rx="6" ry="6" style="stroke:#181818;stroke-width:1.5;"/><text fill="#000000" font-family="sans-serif" font-size="14" lengthAdjust="spacing" textLength="95.6006" x="525.6997" y="180.6982">project_name</text><ellipse cx="573.5" cy="202" fill="#F1F1F1" rx="6" ry="6" style="stroke:#181818;stroke-width:1.5;"/><text fill="#000000" font-family="sans-serif" font-size="14" lengthAdjust="spacing" textLength="199.5957" x="328.7021" y="180.6982">ogc_api_processes_endpoint</text><ellipse cx="428.5" cy="202" fill="#F1F1F1" rx="6" ry="6" style="stroke:#181818;stroke-width:1.5;"/><text fill="#000000" font-family="sans-serif" font-size="14" lengthAdjust="spacing" textLength="86.1055" x="216.9473" y="180.6982">osc_location</text><ellipse cx="260" cy="202" fill="#F1F1F1" rx="6" ry="6" style="stroke:#181818;stroke-width:1.5;"/><text fill="#000000" font-family="sans-serif" font-size="14" lengthAdjust="spacing" textLength="155.2988" x="59.3506" y="180.6982">cwl_workflow_location</text><ellipse cx="137" cy="202" fill="#F1F1F1" rx="6" ry="6" style="stroke:#181818;stroke-width:1.5;"/><text fill="#000000" font-family="sans-serif" font-size="14" lengthAdjust="spacing" textLength="22.9277" x="410.5361" y="365.7151">out</text><ellipse cx="422" cy="346.72" fill="#F1F1F1" rx="6" ry="6" style="stroke:#181818;stroke-width:1.5;"/><line style="stroke:#181818;stroke-width:1.5;" x1="426.3891" x2="418.6109" y1="351.1091" y2="343.3309"/><line style="stroke:#181818;stroke-width:1.5;" x1="426.3891" x2="418.6109" y1="343.3309" y2="351.1091"/><ellipse cx="501" cy="16" fill="#222222" rx="10" ry="10" style="stroke:#222222;stroke-width:1;"/><ellipse cx="422" cy="495.72" fill="none" rx="11" ry="11" style="stroke:#222222;stroke-width:1;"/><ellipse cx="422" cy="495.72" fill="#222222" rx="6" ry="6" style="stroke:#222222;stroke-width:1;"/><!--link publish_workflow_workflow_id to publish_workflow_cli_workflow_id--><g class="link" data-entity-1="publish_workflow_workflow_id" data-entity-2="publish_workflow_cli_workflow_id" data-source-line="51" data-uid="lnk2" id="link_publish_workflow_workflow_id_publish_workflow_cli_workflow_id"><path d="M761,110.16 C761,126.83 761,173.11 761,189.81" fill="none" id="publish_workflow_workflow_id-to-publish_workflow_cli_workflow_id" style="stroke:#181818;stroke-width:1;"/><polygon fill="#181818" points="761,195.81,765,186.81,761,190.81,757,186.81,761,195.81" style="stroke:#181818;stroke-width:1;"/></g><!--link publish_workflow_project_id to publish_workflow_cli_project_id--><g class="link" data-entity-1="publish_workflow_project_id" data-entity-2="publish_workflow_cli_project_id" data-source-line="59" data-uid="lnk3" id="link_publish_workflow_project_id_publish_workflow_cli_project_id"><path d="M668,110.16 C668,126.83 668,173.11 668,189.81" fill="none" id="publish_workflow_project_id-to-publish_workflow_cli_project_id" style="stroke:#181818;stroke-width:1;"/><polygon fill="#181818" points="668,195.81,672,186.81,668,190.81,664,186.81,668,195.81" style="stroke:#181818;stroke-width:1;"/></g><!--link publish_workflow_project_name to publish_workflow_cli_project_name--><g class="link" data-entity-1="publish_workflow_project_name" data-entity-2="publish_workflow_cli_project_name" data-source-line="67" data-uid="lnk4" id="link_publish_workflow_project_name_publish_workflow_cli_project_name"><path d="M574,110.16 C574,126.83 574,173.11 574,189.81" fill="none" id="publish_workflow_project_name-to-publish_workflow_cli_project_name" style="stroke:#181818;stroke-width:1;"/><polygon fill="#181818" points="574,195.81,578,186.81,574,190.81,570,186.81,574,195.81" style="stroke:#181818;stroke-width:1;"/></g><!--link publish_workflow_ogc_api_processes_endpoint to publish_workflow_cli_ogc_api_processes_endpoint--><g class="link" data-entity-1="publish_workflow_ogc_api_processes_endpoint" data-entity-2="publish_workflow_cli_ogc_api_processes_endpoint" data-source-line="75" data-uid="lnk5" id="link_publish_workflow_ogc_api_processes_endpoint_publish_workflow_cli_ogc_api_processes_endpoint"><path d="M429,110.16 C429,126.83 429,173.11 429,189.81" fill="none" id="publish_workflow_ogc_api_processes_endpoint-to-publish_workflow_cli_ogc_api_processes_endpoint" style="stroke:#181818;stroke-width:1;"/><polygon fill="#181818" points="429,195.81,433,186.81,429,190.81,425,186.81,429,195.81" style="stroke:#181818;stroke-width:1;"/></g><!--link publish_workflow_osc_location to publish_workflow_cli_osc_location--><g class="link" data-entity-1="publish_workflow_osc_location" data-entity-2="publish_workflow_cli_osc_location" data-source-line="83" data-uid="lnk6" id="link_publish_workflow_osc_location_publish_workflow_cli_osc_location"><path d="M260,110.16 C260,126.83 260,173.11 260,189.81" fill="none" id="publish_workflow_osc_location-to-publish_workflow_cli_osc_location" style="stroke:#181818;stroke-width:1;"/><polygon fill="#181818" points="260,195.81,264,186.81,260,190.81,256,186.81,260,195.81" style="stroke:#181818;stroke-width:1;"/></g><!--link publish_workflow_cwl_workflow_location to publish_workflow_cli_cwl_workflow_location--><g class="link" data-entity-1="publish_workflow_cwl_workflow_location" data-entity-2="publish_workflow_cli_cwl_workflow_location" data-source-line="91" data-uid="lnk7" id="link_publish_workflow_cwl_workflow_location_publish_workflow_cli_cwl_workflow_location"><path d="M137,110.16 C137,126.83 137,173.11 137,189.81" fill="none" id="publish_workflow_cwl_workflow_location-to-publish_workflow_cli_cwl_workflow_location" style="stroke:#181818;stroke-width:1;"/><polygon fill="#181818" points="137,195.81,141,186.81,137,190.81,133,186.81,137,195.81" style="stroke:#181818;stroke-width:1;"/></g><!--link publish_workflow_cli_out to publish_workflow_out--><g class="link" data-entity-1="publish_workflow_cli_out" data-entity-2="publish_workflow_out" data-source-line="107" data-uid="lnk8" id="link_publish_workflow_cli_out_publish_workflow_out"><path d="M422,352.75 C422,365.54 422,393.2 422,406.35" fill="none" id="publish_workflow_cli_out-to-publish_workflow_out" style="stroke:#181818;stroke-width:1;"/><polygon fill="#181818" points="422,412.35,426,403.35,422,407.35,418,403.35,422,412.35" style="stroke:#181818;stroke-width:1;"/></g><!--link *start* to publish_workflow_workflow_id--><g class="link" data-entity-1=".start." data-entity-2="publish_workflow_workflow_id" data-source-line="112" data-uid="lnk10" id="link_.start._publish_workflow_workflow_id"><path d="M510.84,19.19 C541.22,26.08 636.05,48.66 711,78 C727.09,84.3 739.7511,90.9774 749.1511,96.2674" fill="none" id="*start*-to-publish_workflow_workflow_id" style="stroke:#181818;stroke-width:1;"/><polygon fill="#181818" points="754.38,99.21,748.4985,91.3102,750.0226,96.7578,744.575,98.282,754.38,99.21" style="stroke:#181818;stroke-width:1;"/></g><!--link *start* to publish_workflow_project_id--><g class="link" data-entity-1=".start." data-entity-2="publish_workflow_project_id" data-source-line="114" data-uid="lnk11" id="link_.start._publish_workflow_project_id"><path d="M509.76,21.38 C529.62,31.33 579.53,56.43 621,78 C635.76,85.68 647.7176,92.0747 656.6476,96.8847" fill="none" id="*start*-to-publish_workflow_project_id" style="stroke:#181818;stroke-width:1;"/><polygon fill="#181818" points="661.93,99.73,655.9032,91.9404,657.528,97.3589,652.1095,98.9837,661.93,99.73" style="stroke:#181818;stroke-width:1;"/></g><!--link *start* to publish_workflow_project_name--><g class="link" data-entity-1=".start." data-entity-2="publish_workflow_project_name" data-source-line="116" data-uid="lnk12" id="link_.start._publish_workflow_project_name"><path d="M506.97,24.04 C521.28,40.89 553.3376,78.6554 565.7876,93.3254" fill="none" id="*start*-to-publish_workflow_project_name" style="stroke:#181818;stroke-width:1;"/><polygon fill="#181818" points="569.67,97.9,566.8962,88.4498,566.4347,94.0878,560.7967,93.6263,569.67,97.9" style="stroke:#181818;stroke-width:1;"/></g><!--link *start* to publish_workflow_ogc_api_processes_endpoint--><g class="link" data-entity-1=".start." data-entity-2="publish_workflow_ogc_api_processes_endpoint" data-source-line="118" data-uid="lnk13" id="link_.start._publish_workflow_ogc_api_processes_endpoint"><path d="M494.86,24.33 C480.58,41.39 449.2614,78.7992 437.0814,93.3492" fill="none" id="*start*-to-publish_workflow_ogc_api_processes_endpoint" style="stroke:#181818;stroke-width:1;"/><polygon fill="#181818" points="433.23,97.95,442.0742,93.6164,436.4395,94.116,435.9399,88.4813,433.23,97.95" style="stroke:#181818;stroke-width:1;"/></g><!--link *start* to publish_workflow_osc_location--><g class="link" data-entity-1=".start." data-entity-2="publish_workflow_osc_location" data-source-line="120" data-uid="lnk14" id="link_.start._publish_workflow_osc_location"><path d="M491.37,19.25 C462.45,26.16 374.13,48.41 305,78 C290.54,84.19 279.7716,90.4898 271.2816,95.8198" fill="none" id="*start*-to-publish_workflow_osc_location" style="stroke:#181818;stroke-width:1;"/><polygon fill="#181818" points="266.2,99.01,275.9492,97.6124,270.4347,96.3515,271.6956,90.837,266.2,99.01" style="stroke:#181818;stroke-width:1;"/></g><!--link *start* to publish_workflow_cwl_workflow_location--><g class="link" data-entity-1=".start." data-entity-2="publish_workflow_cwl_workflow_location" data-source-line="122" data-uid="lnk15" id="link_.start._publish_workflow_cwl_workflow_location"><path d="M491.28,18.54 C454.11,24.52 317.61,47.44 208,78 C183.58,84.81 160.9768,93.4466 148.7568,98.2966" fill="none" id="*start*-to-publish_workflow_cwl_workflow_location" style="stroke:#181818;stroke-width:1;"/><polygon fill="#181818" points="143.18,100.51,153.0208,100.9078,147.8274,98.6655,150.0696,93.472,143.18,100.51" style="stroke:#181818;stroke-width:1;"/></g><!--link publish_workflow_out to *end*--><g class="link" data-entity-1="publish_workflow_out" data-entity-2=".end." data-source-line="126" data-uid="lnk17" id="link_publish_workflow_out_.end."><path d="M422,425.11 C422,437.54 422,462.36 422,478.5" fill="none" id="publish_workflow_out-to-*end*" style="stroke:#181818;stroke-width:1;"/><polygon fill="#181818" points="422,484.5,426,475.5,422,479.5,418,475.5,422,484.5" style="stroke:#181818;stroke-width:1;"/></g><!--SRC=[pLLTJy8m57tVhsXu8J4PZ8bW2E797-23RyOiPQkZkezcxKHY_E-s4wL0RpjC7sm83-kvv_IUtdix7WPeYEuepXjSefnKfC62P6YzG-csY5bR5kWj6aslHv422beIBd395YYEubaOtOIJ-64oMqItYybyD9_64ZKEWWtD228b4pkK4Pusb0bQLq6tPBmWQC3QTK7v9jdMpUjpKMy727Dq-X5z14YkxcyVzxELqCmOacW0j5oIIZIx-vfMOhKwus9D_K9I0L8TzlioLRWaTYw5SB7LUPfWHbLCIZWdF25LnXJOp0tZdKeyJOewnUfw06uDuMAJ9NC8jDCQeKR-GFrE5lpXN-zeNfqRKj1zjH_5zArw6UwgVAk1S1hM1Wl3bVCiRYrOl6UZAaLxi_fANbC1SpzWFAOEJnPT4fekljFlT9m6A9G72ouTX-e8bur4N_POL46pu1WVrZddUtS4nuptPe-k0nkYeJnOSCcZ9DLxFqo-J34BWkuOuN-n2QwPrjPNRTT0xrISUl5D-7bCgwcus67cNmhmH4Qtv8ObVUsWZrTFPWRJ8mQZ3MFV3JuQaJ2ynv2m19iQ2eRRAqoxKUCLAaf9_GK0]--></g></svg>