<svg xmlns="http://www.w3.org/2000/svg" xmlns:xlink="http://www.w3.org/1999/xlink" contentStyleType="text/css" data-diagram-type="STATE" height="672px" preserveAspectRatio="none" style="width:758px;height:672px;background:#FFFFFF;" version="1.1" viewBox="0 0 758 672" width="758px" zoomAndPan="magnify"><defs/><g><!--cluster publish_workflow--><g class="cluster" data-entity="publish_workflow" data-source-line="12" data-uid="ent0002" id="cluster_publish_workflow"><path d="M19.5,105 L669.5,105 A12.5,12.5 0 0 1 682,117.5 L682,126.2969 L7,126.2969 L7,117.5 A12.5,12.5 0 0 1 19.5,105" fill="#F1F1F1"/><rect fill="none" height="500.36" rx="12.5" ry="12.5" style="stroke:#181818;stroke-width:0.5;" width="675" x="7" y="105"/><line style="stroke:#181818;stroke-width:0.5;" x1="7" x2="682" y1="126.2969" y2="126.2969"/><text fill="#000000" font-family="sans-serif" font-size="14" lengthAdjust="spacing" textLength="120.3057" x="284.3472" y="122.9951">publish_workflow</text></g><!--cluster sync_git_repository--><g class="cluster" data-entity="sync_git_repository" data-source-line="31" data-uid="ent0008" id="cluster_sync_git_repository"><path d="M364.5,189 L484.5,189 A12.5,12.5 0 0 1 497,201.5 L497,210.2969 L352,210.2969 L352,201.5 A12.5,12.5 0 0 1 364.5,189" fill="#F1F1F1"/><rect fill="none" height="114.36" rx="12.5" ry="12.5" style="stroke:#181818;stroke-width:0.5;" width="145" x="352" y="189"/><line style="stroke:#181818;stroke-width:0.5;" x1="352" x2="497" y1="210.2969" y2="210.2969"/><text fill="#000000" font-family="sans-serif" font-size="14" lengthAdjust="spacing" textLength="135.5156" x="356.7422" y="206.9951">sync_git_repository</text></g><!--cluster publish_workflow--><g class="cluster" data-entity="publish_workflow" data-source-line="57" data-uid="ent0010" id="cluster_publish_workflow"><path d="M390.5,453.36 L521.5,453.36 A12.5,12.5 0 0 1 534,465.86 L534,474.6569 L378,474.6569 L378,465.86 A12.5,12.5 0 0 1 390.5,453.36" fill="#F1F1F1"/><rect fill="none" height="122" rx="12.5" ry="12.5" style="stroke:#181818;stroke-width:0.5;" width="156" x="378" y="453.36"/><line style="stroke:#181818;stroke-width:0.5;" x1="378" x2="534" y1="474.6569" y2="474.6569"/><text fill="#000000" font-family="sans-serif" font-size="14" lengthAdjust="spacing" textLength="120.3057" x="395.8472" y="471.3551">publish_workflow</text></g><!--cluster commit_and_push--><g class="cluster" data-entity="commit_and_push" data-source-line="130" data-uid="ent0014" id="cluster_commit_and_push"><path d="M227.5,382.36 L339.5,382.36 A12.5,12.5 0 0 1 352,394.86 L352,403.6569 L215,403.6569 L215,394.86 A12.5,12.5 0 0 1 227.5,382.36" fill="#F1F1F1"/><rect fill="none" height="139" rx="12.5" ry="12.5" style="stroke:#181818;stroke-width:0.5;" width="137" x="215" y="382.36"/><line style="stroke:#181818;stroke-width:0.5;" x1="215" x2="352" y1="403.6569" y2="403.6569"/><text fill="#000000" font-family="sans-serif" font-size="14" lengthAdjust="spacing" textLength="127.1826" x="219.9087" y="400.3551">commit_and_push</text></g><text fill="#000000" font-family="sans-serif" font-size="14" lengthAdjust="spacing" textLength="82.4893" x="6.2554" y="83.6982">workflow_id</text><ellipse cx="47.5" cy="105" fill="#F1F1F1" rx="6" ry="6" style="stroke:#181818;stroke-width:1.5;"/><text fill="#000000" font-family="sans-serif" font-size="14" lengthAdjust="spacing" textLength="68.6738" x="120.6631" y="83.6982">project_id</text><ellipse cx="155" cy="105" fill="#F1F1F1" rx="6" ry="6" style="stroke:#181818;stroke-width:1.5;"/><text fill="#000000" font-family="sans-serif" font-size="14" lengthAdjust="spacing" textLength="95.6006" x="226.6997" y="83.6982">project_name</text><ellipse cx="274.5" cy="105" fill="#F1F1F1" rx="6" ry="6" style="stroke:#181818;stroke-width:1.5;"/><text fill="#000000" font-family="sans-serif" font-size="14" lengthAdjust="spacing" textLength="199.5957" x="363.7021" y="83.6982">ogc_api_processes_endpoint</text><ellipse cx="463.5" cy="105" fill="#F1F1F1" rx="6" ry="6" style="stroke:#181818;stroke-width:1.5;"/><text fill="#000000" font-family="sans-serif" font-size="14" lengthAdjust="spacing" textLength="155.2988" x="586.3506" y="83.6982">cwl_workflow_location</text><ellipse cx="664" cy="105" fill="#F1F1F1" rx="6" ry="6" style="stroke:#181818;stroke-width:1.5;"/><g class="entity" data-entity="commit_and_push_commit_message_choice" data-uid="ent0013" id="entity_commit_and_push_commit_message_choice"><polygon fill="#F1F1F1" points="187,231.36,199,243.36,187,255.36,175,243.36,187,231.36" style="stroke:#181818;stroke-width:0.5;"/></g><rect fill="#F1F1F1" height="40" rx="12.5" ry="12.5" style="stroke:#181818;stroke-width:0.5;" width="182.71" x="23.5" y="433.36"/><text fill="#000000" font-family="sans-serif" font-size="14" lengthAdjust="spacing" textLength="172.71" x="28.5" y="458.2067">publish_workflow_cli_out</text><text fill="#000000" font-family="sans-serif" font-size="14" lengthAdjust="spacing" textLength="133.8545" x="373.0728" y="322.3551">checkout_directory</text><ellipse cx="440" cy="303.36" fill="#F1F1F1" rx="6" ry="6" style="stroke:#181818;stroke-width:1.5;"/><line style="stroke:#181818;stroke-width:1.5;" x1="444.3891" x2="436.6109" y1="307.7491" y2="299.9709"/><line style="stroke:#181818;stroke-width:1.5;" x1="444.3891" x2="436.6109" y1="299.9709" y2="307.7491"/><text fill="#000000" font-family="sans-serif" font-size="14" lengthAdjust="spacing" textLength="86.1055" x="396.9473" y="432.0582">osc_location</text><ellipse cx="440" cy="453.36" fill="#F1F1F1" rx="6" ry="6" style="stroke:#181818;stroke-width:1.5;"/><text fill="#000000" font-family="sans-serif" font-size="14" lengthAdjust="spacing" textLength="22.9277" x="384.5361" y="594.3551">out</text><ellipse cx="396" cy="575.36" fill="#F1F1F1" rx="6" ry="6" style="stroke:#181818;stroke-width:1.5;"/><line style="stroke:#181818;stroke-width:1.5;" x1="400.3891" x2="392.6109" y1="579.7491" y2="571.9709"/><line style="stroke:#181818;stroke-width:1.5;" x1="400.3891" x2="392.6109" y1="571.9709" y2="579.7491"/><text fill="#000000" font-family="sans-serif" font-size="14" lengthAdjust="spacing" textLength="122.835" x="219.0825" y="361.0582">commit_message</text><ellipse cx="280.5" cy="382.36" fill="#F1F1F1" rx="6" ry="6" style="stroke:#181818;stroke-width:1.5;"/><text fill="#000000" font-family="sans-serif" font-size="14" lengthAdjust="spacing" textLength="117.2432" x="268.3784" y="540.3551">changes_pushed</text><ellipse cx="327" cy="521.36" fill="#F1F1F1" rx="6" ry="6" style="stroke:#181818;stroke-width:1.5;"/><line style="stroke:#181818;stroke-width:1.5;" x1="331.3891" x2="323.6109" y1="525.7491" y2="517.9709"/><line style="stroke:#181818;stroke-width:1.5;" x1="331.3891" x2="323.6109" y1="517.9709" y2="525.7491"/><text fill="#000000" font-family="sans-serif" font-size="14" lengthAdjust="spacing" textLength="21.3418" x="219.3291" y="540.3551">log</text><ellipse cx="230" cy="521.36" fill="#F1F1F1" rx="6" ry="6" style="stroke:#181818;stroke-width:1.5;"/><line style="stroke:#181818;stroke-width:1.5;" x1="234.3891" x2="226.6109" y1="525.7491" y2="517.9709"/><line style="stroke:#181818;stroke-width:1.5;" x1="234.3891" x2="226.6109" y1="517.9709" y2="525.7491"/><ellipse cx="275" cy="16" fill="#222222" rx="10" ry="10" style="stroke:#222222;stroke-width:1;"/><ellipse cx="396" cy="655.36" fill="none" rx="11" ry="11" style="stroke:#222222;stroke-width:1;"/><ellipse cx="396" cy="655.36" fill="#222222" rx="6" ry="6" style="stroke:#222222;stroke-width:1;"/><!--link publish_workflow_workflow_id to publish_workflow_workflow_id--><g class="link" data-entity-1="publish_workflow_workflow_id" data-entity-2="publish_workflow_workflow_id" data-source-line="63" data-uid="lnk2" id="link_publish_workflow_workflow_id_publish_workflow_workflow_id"><path d="M53.57,102.29 C75.42,93.08 108,93.98 108,105 C108,116.02 80.9489,119.2505 59.0989,110.0405" fill="none" id="publish_workflow_workflow_id-to-publish_workflow_workflow_id" style="stroke:#181818;stroke-width:1;"/><polygon fill="#181818" points="53.57,107.71,60.3097,114.8917,58.1774,109.6521,63.417,107.5198,53.57,107.71" style="stroke:#181818;stroke-width:1;"/></g><!--link publish_workflow_project_id to publish_workflow_project_id--><g class="link" data-entity-1="publish_workflow_project_id" data-entity-2="publish_workflow_project_id" data-source-line="71" data-uid="lnk3" id="link_publish_workflow_project_id_publish_workflow_project_id"><path d="M161.26,101.94 C182.7,93.11 215,94.12 215,105 C215,115.87 188.2479,119.1749 166.8079,110.3449" fill="none" id="publish_workflow_project_id-to-publish_workflow_project_id" style="stroke:#181818;stroke-width:1;"/><polygon fill="#181818" points="161.26,108.06,168.0586,115.1859,165.8833,109.9641,171.1051,107.7887,161.26,108.06" style="stroke:#181818;stroke-width:1;"/></g><!--link publish_workflow_project_name to publish_workflow_project_name--><g class="link" data-entity-1="publish_workflow_project_name" data-entity-2="publish_workflow_project_name" data-source-line="79" data-uid="lnk4" id="link_publish_workflow_project_name_publish_workflow_project_name"><path d="M280.8,102.41 C304.66,93.07 339.5,93.94 339.5,105 C339.5,116.06 310.2472,119.1171 286.3872,109.7771" fill="none" id="publish_workflow_project_name-to-publish_workflow_project_name" style="stroke:#181818;stroke-width:1;"/><polygon fill="#181818" points="280.8,107.59,287.7227,114.5954,285.456,109.4126,290.6388,107.1459,280.8,107.59" style="stroke:#181818;stroke-width:1;"/></g><!--link publish_workflow_ogc_api_processes_endpoint to publish_workflow_ogc_api_processes_endpoint--><g class="link" data-entity-1="publish_workflow_ogc_api_processes_endpoint" data-entity-2="publish_workflow_ogc_api_processes_endpoint" data-source-line="87" data-uid="lnk5" id="link_publish_workflow_ogc_api_processes_endpoint_publish_workflow_ogc_api_processes_endpoint"><path d="M469.88,103.39 C510.57,93.03 567.5,93.56 567.5,105 C567.5,116.44 516.3845,118.4504 475.6945,108.0904" fill="none" id="publish_workflow_ogc_api_processes_endpoint-to-publish_workflow_ogc_api_processes_endpoint" style="stroke:#181818;stroke-width:1;"/><polygon fill="#181818" points="469.88,106.61,477.6148,112.707,474.7254,107.8437,479.5887,104.9543,469.88,106.61" style="stroke:#181818;stroke-width:1;"/></g><!--link sync_git_repository_checkout_directory to publish_workflow_osc_location--><g class="link" data-entity-1="sync_git_repository_checkout_directory" data-entity-2="publish_workflow_osc_location" data-source-line="95" data-uid="lnk6" id="link_sync_git_repository_checkout_directory_publish_workflow_osc_location"><path d="M440,309.63 C440,332.7 440,418.67 440,441.31" fill="none" id="sync_git_repository_checkout_directory-to-publish_workflow_osc_location" style="stroke:#181818;stroke-width:1;"/><polygon fill="#181818" points="440,447.31,444,438.31,440,442.31,436,438.31,440,447.31" style="stroke:#181818;stroke-width:1;"/></g><!--link publish_workflow_cwl_workflow_location to publish_workflow_cwl_workflow_location--><g class="link" data-entity-1="publish_workflow_cwl_workflow_location" data-entity-2="publish_workflow_cwl_workflow_location" data-source-line="103" data-uid="lnk7" id="link_publish_workflow_cwl_workflow_location_publish_workflow_cwl_workflow_location"><path d="M670.08,103.01 C703.64,93.04 751.5,93.7 751.5,105 C751.5,116.3 709.3916,118.6687 675.8316,108.6987" fill="none" id="publish_workflow_cwl_workflow_location-to-publish_workflow_cwl_workflow_location" style="stroke:#181818;stroke-width:1;"/><polygon fill="#181818" points="670.08,106.99,677.5682,113.3874,674.873,108.4139,679.8465,105.7186,670.08,106.99" style="stroke:#181818;stroke-width:1;"/></g><!--link publish_workflow_workflow_id to commit_and_push_commit_message_choice--><g class="link" data-entity-1="publish_workflow_workflow_id" data-entity-2="commit_and_push_commit_message_choice" data-source-line="121" data-uid="lnk8" id="link_publish_workflow_workflow_id_commit_and_push_commit_message_choice"><path d="M53.28,111.18 C75.2,132.68 154.6475,210.6176 177.1275,232.6776" fill="none" id="publish_workflow_workflow_id-to-commit_and_push_commit_message_choice" style="stroke:#181818;stroke-width:1;"/><polygon fill="#181818" points="181.41,236.88,177.7879,227.7214,177.8413,233.378,172.1847,233.4313,181.41,236.88" style="stroke:#181818;stroke-width:1;"/></g><!--link publish_workflow_project_name to commit_and_push_commit_message_choice--><g class="link" data-entity-1="publish_workflow_project_name" data-entity-2="commit_and_push_commit_message_choice" data-source-line="123" data-uid="lnk9" id="link_publish_workflow_project_name_commit_and_push_commit_message_choice"><path d="M271.66,111.18 C258.03,132.29 209.9339,206.8289 194.6039,230.5789" fill="none" id="publish_workflow_project_name-to-commit_and_push_commit_message_choice" style="stroke:#181818;stroke-width:1;"/><polygon fill="#181818" points="191.35,235.62,199.5915,230.2277,194.0616,231.4191,192.8701,225.8892,191.35,235.62" style="stroke:#181818;stroke-width:1;"/></g><!--link publish_workflow_project_id to commit_and_push_commit_message_choice--><g class="link" data-entity-1="publish_workflow_project_id" data-entity-2="commit_and_push_commit_message_choice" data-source-line="125" data-uid="lnk10" id="link_publish_workflow_project_id_commit_and_push_commit_message_choice"><path d="M156.22,111.18 C161.01,131.61 177.2779,200.959 183.4679,227.309" fill="none" id="publish_workflow_project_id-to-commit_and_push_commit_message_choice" style="stroke:#181818;stroke-width:1;"/><polygon fill="#181818" points="184.84,233.15,186.6758,223.4737,183.6966,228.2825,178.8878,225.3033,184.84,233.15" style="stroke:#181818;stroke-width:1;"/></g><!--link commit_and_push_commit_message_choice to commit_and_push_commit_message--><g class="link" data-entity-1="commit_and_push_commit_message_choice" data-entity-2="commit_and_push_commit_message" data-source-line="135" data-uid="lnk11" id="link_commit_and_push_commit_message_choice_commit_and_push_commit_message"><path d="M191.53,250.97 C207.82,274.7 259.7452,350.3827 274.1552,371.3827" fill="none" id="commit_and_push_commit_message_choice-to-commit_and_push_commit_message" style="stroke:#181818;stroke-width:1;"/><polygon fill="#181818" points="277.55,376.33,275.756,366.6459,274.721,372.2073,269.1597,371.1723,277.55,376.33" style="stroke:#181818;stroke-width:1;"/><text fill="#000000" font-family="sans-serif" font-size="13" lengthAdjust="spacing" textLength="33.9155" x="246" y="307.9269">None</text></g><!--link publish_workflow_cli_out to publish_workflow_out--><g class="link" data-entity-1="publish_workflow_cli_out" data-entity-2="publish_workflow_out" data-source-line="153" data-uid="lnk13" id="link_publish_workflow_cli_out_publish_workflow_out"><path d="M128.06,473.69 C143.95,495.51 172.92,530.2 207,547.36 C240.31,564.13 355.0708,571.9197 383.8308,573.6497" fill="none" id="publish_workflow_cli_out-to-publish_workflow_out" style="stroke:#181818;stroke-width:1;"/><polygon fill="#181818" points="389.82,574.01,381.0764,569.4768,384.829,573.7098,380.5961,577.4624,389.82,574.01" style="stroke:#181818;stroke-width:1;"/></g><!--link *start* to publish_workflow_workflow_id--><g class="link" data-entity-1=".start." data-entity-2="publish_workflow_workflow_id" data-source-line="158" data-uid="lnk15" id="link_.start._publish_workflow_workflow_id"><path d="M265.9,20.24 C240.69,29.23 167.85,55.43 108,79 C87.84,86.94 69.6811,94.6577 59.1111,99.2077" fill="none" id="*start*-to-publish_workflow_workflow_id" style="stroke:#181818;stroke-width:1;"/><polygon fill="#181818" points="53.6,101.58,63.4482,101.6956,58.1926,99.6031,60.2851,94.3475,53.6,101.58" style="stroke:#181818;stroke-width:1;"/></g><!--link *start* to publish_workflow_project_id--><g class="link" data-entity-1=".start." data-entity-2="publish_workflow_project_id" data-source-line="160" data-uid="lnk16" id="link_.start._publish_workflow_project_id"><path d="M267.13,22.71 C244.81,38.89 186.3074,81.2978 166.1174,95.9378" fill="none" id="*start*-to-publish_workflow_project_id" style="stroke:#181818;stroke-width:1;"/><polygon fill="#181818" points="161.26,99.46,170.8942,97.415,165.3078,96.5249,166.198,90.9385,161.26,99.46" style="stroke:#181818;stroke-width:1;"/></g><!--link *start* to publish_workflow_project_name--><g class="link" data-entity-1=".start." data-entity-2="publish_workflow_project_name" data-source-line="162" data-uid="lnk17" id="link_.start._publish_workflow_project_name"><path d="M275,26.31 C275,44.55 275,78.44 275,92.75" fill="none" id="*start*-to-publish_workflow_project_name" style="stroke:#181818;stroke-width:1;"/><polygon fill="#181818" points="275,98.75,279,89.75,275,93.75,271,89.75,275,98.75" style="stroke:#181818;stroke-width:1;"/></g><!--link *start* to publish_workflow_ogc_api_processes_endpoint--><g class="link" data-entity-1=".start." data-entity-2="publish_workflow_ogc_api_processes_endpoint" data-source-line="164" data-uid="lnk18" id="link_.start._publish_workflow_ogc_api_processes_endpoint"><path d="M283.86,21.08 C316.41,36.06 423.4901,85.3504 451.9601,98.4604" fill="none" id="*start*-to-publish_workflow_ogc_api_processes_endpoint" style="stroke:#181818;stroke-width:1;"/><polygon fill="#181818" points="457.41,100.97,450.9082,93.5723,452.8684,98.8787,447.562,100.8389,457.41,100.97" style="stroke:#181818;stroke-width:1;"/></g><!--link *start* to publish_workflow_cwl_workflow_location--><g class="link" data-entity-1=".start." data-entity-2="publish_workflow_cwl_workflow_location" data-source-line="166" data-uid="lnk19" id="link_.start._publish_workflow_cwl_workflow_location"><path d="M284.65,18.87 C321.54,26.07 457.17,52.86 568,79 C602.2,87.07 637.0662,96.5538 652.1762,100.7238" fill="none" id="*start*-to-publish_workflow_cwl_workflow_location" style="stroke:#181818;stroke-width:1;"/><polygon fill="#181818" points="657.96,102.32,650.3484,96.0699,653.1402,100.9898,648.2202,103.7816,657.96,102.32" style="stroke:#181818;stroke-width:1;"/></g><!--link publish_workflow_out to *end*--><g class="link" data-entity-1="publish_workflow_out" data-entity-2=".end." data-source-line="170" data-uid="lnk21" id="link_publish_workflow_out_.end."><path d="M396,581.48 C396,594.15 396,621.2 396,638.09" fill="none" id="publish_workflow_out-to-*end*" style="stroke:#181818;stroke-width:1;"/><polygon fill="#181818" points="396,644.09,400,635.09,396,639.09,392,635.09,396,644.09" style="stroke:#181818;stroke-width:1;"/></g><!--SRC=[pLPHQzim47xthn1zAGoIkcusHYXvwlFOmzx64AfySxJQah3aPMRilqzoqzbE9Db9bL4JGc9zTz_TfxkJRguJT8qU62bgKg42EDH4GuuUMqHtPIQRgaG_q-NgRfbQe6OLA4qgkKPPcdrOfEyNjwiljzdwBbjd7vVfAZEecoJPiXmGL5AtA0T5QoOr4ppf7cEl0Lt9vh5aQejtedxwNehT5I8A7Rv4lnDadkvhR_UoX5dkDC430Bg_1wxhzhDWN6ysHxvaBNu0rLvN_VfSJvnK4FPb4LFUH44naSpQK50A50QUImjs-_RZfvZC9lTkIa69tIStYHFgz9_Opy7ZVv4Cub4jfxXW6jSWXM9QrEs-17haoFWbZItG9z5edBFQY6pCkXmSxl0nrERmY-bX2ZtRdp7dANczvPM1vfwUSydysjuB2kSFFqYpM6o2W6aUFt6KCH4hwG6BC-T-FMBAvy-ps6btFC74BI92wfSTlh5a2R0wHVBZOqYcwCJXCKH4b6NcW7ShCWWfWWQNE4bZ5OkRqAcA4tgEFFvYQNoDrEZ_VXG_nqH5LPaY8Zp7iZ4XxV-RkwuY1PYA4epQ8VVymx4vfnzPioZFu3aQbvScYfjFyAPom16ug8pPkt8B1_ZwxfjNGzDIeJNw93X4RJcw9Rmm8z_IGUwMOmJnzU61tr8KJcVc_KcTtFyzVqRySt4yqahMsRbFWKO751q4-lNTj_btJJ_QSKkR1ezkDdxuZ3FURnmU_8CjSkw9TMbS_mK0]--></g></svg>