<svg xmlns="http://www.w3.org/2000/svg" xmlns:xlink="http://www.w3.org/1999/xlink" contentStyleType="text/css" data-diagram-type="DESCRIPTION" height="543px" preserveAspectRatio="none" style="width:1885px;height:543px;background:#FFFFFF;" version="1.1" viewBox="0 0 1885 543" width="1885px" zoomAndPan="magnify"><defs/><g><!--cluster Workflow 'publish_workflow'--><g class="cluster" data-entity="Workflow .publish_workflow." data-source-line="12" data-uid="ent0002" id="cluster_Workflow .publish_workflow."><polygon fill="none" points="16,16,26,6,1868,6,1868,516,1858,526,16,526,16,16" style="stroke:#181818;stroke-width:1;"/><line style="stroke:#181818;stroke-width:1;" x1="1858" x2="1868" y1="16" y2="6"/><line style="stroke:#181818;stroke-width:1;" x1="16" x2="1858" y1="16" y2="16"/><line style="stroke:#181818;stroke-width:1;" x1="1858" x2="1858" y1="16" y2="526"/><text fill="#000000" font-family="sans-serif" font-size="14" font-weight="bold" lengthAdjust="spacing" textLength="225.2783" x="825.3608" y="31.9951">Workflow 'publish_workflow'</text></g><!--cluster publish_workflow--><g class="cluster" data-entity="publish_workflow" data-source-line="13" data-uid="ent0003" id="cluster_publish_workflow"><rect fill="none" height="197" rx="2.5" ry="2.5" style="stroke:#181818;stroke-width:1;" width="530" x="880.5" y="186"/><rect fill="none" height="10" style="stroke:#181818;stroke-width:1;" width="15" x="1390.5" y="191"/><rect fill="none" height="2" style="stroke:#181818;stroke-width:1;" width="4" x="1388.5" y="193"/><rect fill="none" height="2" style="stroke:#181818;stroke-width:1;" width="4" x="1388.5" y="197"/><text fill="#000000" font-family="sans-serif" font-size="14" font-weight="bold" lengthAdjust="spacing" textLength="137.1152" x="1076.9424" y="211.9951">publish_workflow</text></g><!--cluster publish_workflow_commit_and_push--><g class="cluster" data-entity="publish_workflow_commit_and_push" data-source-line="33" data-uid="ent0011" id="cluster_publish_workflow_commit_and_push"><rect fill="none" height="202" rx="2.5" ry="2.5" style="stroke:#181818;stroke-width:1;" width="413" x="1439" y="282"/><path d="M1589.3076,282 L1589.3076,291.2969 L1579.3076,301.2969 L1439,301.2969" fill="none" style="stroke:#181818;stroke-width:1;"/><text fill="#000000" font-family="sans-serif" font-size="14" font-weight="bold" lengthAdjust="spacing" textLength="140.3076" x="1442" y="295.9951">commit_and_push</text></g><!--cluster publish_workflow_sync_git_repository--><g class="cluster" data-entity="publish_workflow_sync_git_repository" data-source-line="56" data-uid="ent0018" id="cluster_publish_workflow_sync_git_repository"><rect fill="none" height="140" rx="2.5" ry="2.5" style="stroke:#181818;stroke-width:1;" width="433" x="32" y="46"/><path d="M194.749,46 L194.749,55.2969 L184.749,65.2969 L32,65.2969" fill="none" style="stroke:#181818;stroke-width:1;"/><text fill="#000000" font-family="sans-serif" font-size="14" font-weight="bold" lengthAdjust="spacing" textLength="152.749" x="35" y="59.9951">sync_git_repository</text></g><!--cluster publish_workflow_publish_workflow--><g class="cluster" data-entity="publish_workflow_publish_workflow" data-source-line="66" data-uid="ent0021" id="cluster_publish_workflow_publish_workflow"><rect fill="none" height="140" rx="2.5" ry="2.5" style="stroke:#181818;stroke-width:1;" width="698.5" x="57" y="282"/><path d="M204.1152,282 L204.1152,291.2969 L194.1152,301.2969 L57,301.2969" fill="none" style="stroke:#181818;stroke-width:1;"/><text fill="#000000" font-family="sans-serif" font-size="14" font-weight="bold" lengthAdjust="spacing" textLength="137.1152" x="60" y="295.9951">publish_workflow</text></g><g class="entity" data-entity="publish_workflow_workflow_id" data-source-line="15" data-uid="ent0004" id="entity_publish_workflow_workflow_id"><text fill="#000000" font-family="sans-serif" font-size="14" lengthAdjust="spacing" textLength="82.4893" x="1160.2554" y="164.6982">workflow_id</text><rect fill="#F1F1F1" height="12" style="stroke:#181818;stroke-width:1.5;" width="12" x="1195.5" y="180"/></g><g class="entity" data-entity="publish_workflow_project_id" data-source-line="17" data-uid="ent0005" id="entity_publish_workflow_project_id"><text fill="#000000" font-family="sans-serif" font-size="14" lengthAdjust="spacing" textLength="68.6738" x="1256.6631" y="164.6982">project_id</text><rect fill="#F1F1F1" height="12" style="stroke:#181818;stroke-width:1.5;" width="12" x="1285" y="180"/></g><g class="entity" data-entity="publish_workflow_project_name" data-source-line="19" data-uid="ent0006" id="entity_publish_workflow_project_name"><text fill="#000000" font-family="sans-serif" font-size="14" lengthAdjust="spacing" textLength="95.6006" x="1344.6997" y="164.6982">project_name</text><rect fill="#F1F1F1" height="12" style="stroke:#181818;stroke-width:1.5;" width="12" x="1386.5" y="180"/></g><g class="entity" data-entity="publish_workflow_ogc_api_processes_endpoint" data-source-line="21" data-uid="ent0007" id="entity_publish_workflow_ogc_api_processes_endpoint"><text fill="#000000" font-family="sans-serif" font-size="14" lengthAdjust="spacing" textLength="199.5957" x="798.7021" y="164.6982">ogc_api_processes_endpoint</text><rect fill="#F1F1F1" height="12" style="stroke:#181818;stroke-width:1.5;" width="12" x="892.5" y="180"/></g><g class="entity" data-entity="publish_workflow_cwl_workflow_location" data-source-line="23" data-uid="ent0008" id="entity_publish_workflow_cwl_workflow_location"><text fill="#000000" font-family="sans-serif" font-size="14" lengthAdjust="spacing" textLength="155.2988" x="1003.3506" y="164.6982">cwl_workflow_location</text><rect fill="#F1F1F1" height="12" style="stroke:#181818;stroke-width:1.5;" width="12" x="1075" y="180"/></g><g class="entity" data-entity="publish_workflow_publish_workflow_log" data-source-line="26" data-uid="ent0009" id="entity_publish_workflow_publish_workflow_log"><text fill="#000000" font-family="sans-serif" font-size="14" lengthAdjust="spacing" textLength="21.3418" x="1179.3291" y="401.9951">log</text><rect fill="#F1F1F1" height="12" style="stroke:#181818;stroke-width:1.5;" width="12" x="1184" y="377"/></g><g class="entity" data-entity="publish_workflow_changes_pushed" data-source-line="28" data-uid="ent0010" id="entity_publish_workflow_changes_pushed"><text fill="#000000" font-family="sans-serif" font-size="14" lengthAdjust="spacing" textLength="117.2432" x="1245.3784" y="401.9951">changes_pushed</text><rect fill="#F1F1F1" height="12" style="stroke:#181818;stroke-width:1.5;" width="12" x="1298" y="377"/></g><g class="entity" data-entity="publish_workflow_commit_and_push_commit_message" data-source-line="35" data-uid="ent0012" id="entity_publish_workflow_commit_and_push_commit_message"><text fill="#000000" font-family="sans-serif" font-size="14" lengthAdjust="spacing" textLength="122.835" x="1443.0825" y="260.6982">commit_message</text><rect fill="#F1F1F1" height="12" style="stroke:#181818;stroke-width:1.5;" width="12" x="1498.5" y="276"/></g><g class="entity" data-entity="publish_workflow_commit_and_push_changes_pushed" data-source-line="50" data-uid="ent0016" id="entity_publish_workflow_commit_and_push_changes_pushed"><text fill="#000000" font-family="sans-serif" font-size="14" lengthAdjust="spacing" textLength="117.2432" x="1574.3784" y="502.9951">changes_pushed</text><rect fill="#F1F1F1" height="12" style="stroke:#181818;stroke-width:1.5;" width="12" x="1627" y="478"/></g><!--entity commit_and_push_cli--><g class="entity" data-entity="commit_and_push_cli" data-source-line="53" data-uid="ent0017" id="entity_commit_and_push_cli"><rect fill="#F1F1F1" height="46.2969" rx="2.5" ry="2.5" style="stroke:#181818;stroke-width:0.5;" width="189.6592" x="1455" y="360"/><rect fill="#F1F1F1" height="10" style="stroke:#181818;stroke-width:0.5;" width="15" x="1624.6592" y="365"/><rect fill="#F1F1F1" height="2" style="stroke:#181818;stroke-width:0.5;" width="4" x="1622.6592" y="367"/><rect fill="#F1F1F1" height="2" style="stroke:#181818;stroke-width:0.5;" width="4" x="1622.6592" y="371"/><text fill="#000000" font-family="sans-serif" font-size="14" lengthAdjust="spacing" textLength="149.6592" x="1470" y="392.9951">commit_and_push_cli</text></g><g class="entity" data-entity="publish_workflow_sync_git_repository_checkout_directory" data-source-line="60" data-uid="ent0019" id="entity_publish_workflow_sync_git_repository_checkout_directory"><text fill="#000000" font-family="sans-serif" font-size="14" lengthAdjust="spacing" textLength="133.8545" x="173.0728" y="204.9951">checkout_directory</text><rect fill="#F1F1F1" height="12" style="stroke:#181818;stroke-width:1.5;" width="12" x="234" y="180"/></g><!--entity sync_git_repository_cli--><g class="entity" data-entity="sync_git_repository_cli" data-source-line="63" data-uid="ent0020" id="entity_sync_git_repository_cli"><rect fill="#F1F1F1" height="46.2969" rx="2.5" ry="2.5" style="stroke:#181818;stroke-width:0.5;" width="197.9922" x="48" y="62"/><rect fill="#F1F1F1" height="10" style="stroke:#181818;stroke-width:0.5;" width="15" x="225.9922" y="67"/><rect fill="#F1F1F1" height="2" style="stroke:#181818;stroke-width:0.5;" width="4" x="223.9922" y="69"/><rect fill="#F1F1F1" height="2" style="stroke:#181818;stroke-width:0.5;" width="4" x="223.9922" y="73"/><text fill="#000000" font-family="sans-serif" font-size="14" lengthAdjust="spacing" textLength="157.9922" x="63" y="94.9951">sync_git_repository_cli</text></g><g class="entity" data-entity="publish_workflow_publish_workflow_workflow_id" data-source-line="68" data-uid="ent0022" id="entity_publish_workflow_publish_workflow_workflow_id"><text fill="#000000" font-family="sans-serif" font-size="14" lengthAdjust="spacing" textLength="82.4893" x="505.2554" y="260.6982">workflow_id</text><rect fill="#F1F1F1" height="12" style="stroke:#181818;stroke-width:1.5;" width="12" x="540.5" y="276"/></g><g class="entity" data-entity="publish_workflow_publish_workflow_project_id" data-source-line="76" data-uid="ent0024" id="entity_publish_workflow_publish_workflow_project_id"><text fill="#000000" font-family="sans-serif" font-size="14" lengthAdjust="spacing" textLength="68.6738" x="601.6631" y="260.6982">project_id</text><rect fill="#F1F1F1" height="12" style="stroke:#181818;stroke-width:1.5;" width="12" x="630" y="276"/></g><g class="entity" data-entity="publish_workflow_publish_workflow_project_name" data-source-line="84" data-uid="ent0026" id="entity_publish_workflow_publish_workflow_project_name"><text fill="#000000" font-family="sans-serif" font-size="14" lengthAdjust="spacing" textLength="95.6006" x="689.6997" y="260.6982">project_name</text><rect fill="#F1F1F1" height="12" style="stroke:#181818;stroke-width:1.5;" width="12" x="731.5" y="276"/></g><g class="entity" data-entity="publish_workflow_publish_workflow_ogc_api_processes_endpoint" data-source-line="92" data-uid="ent0028" id="entity_publish_workflow_publish_workflow_ogc_api_processes_endpoint"><text fill="#000000" font-family="sans-serif" font-size="14" lengthAdjust="spacing" textLength="199.5957" x="143.7021" y="260.6982">ogc_api_processes_endpoint</text><rect fill="#F1F1F1" height="12" style="stroke:#181818;stroke-width:1.5;" width="12" x="237.5" y="276"/></g><g class="entity" data-entity="publish_workflow_publish_workflow_osc_location" data-source-line="100" data-uid="ent0030" id="entity_publish_workflow_publish_workflow_osc_location"><text fill="#000000" font-family="sans-serif" font-size="14" lengthAdjust="spacing" textLength="86.1055" x="31.9473" y="260.6982">osc_location</text><rect fill="#F1F1F1" height="12" style="stroke:#181818;stroke-width:1.5;" width="12" x="69" y="276"/></g><g class="entity" data-entity="publish_workflow_publish_workflow_cwl_workflow_location" data-source-line="108" data-uid="ent0032" id="entity_publish_workflow_publish_workflow_cwl_workflow_location"><text fill="#000000" font-family="sans-serif" font-size="14" lengthAdjust="spacing" textLength="155.2988" x="348.3506" y="260.6982">cwl_workflow_location</text><rect fill="#F1F1F1" height="12" style="stroke:#181818;stroke-width:1.5;" width="12" x="420" y="276"/></g><!--entity publish_workflow_cli--><g class="entity" data-entity="publish_workflow_cli" data-source-line="121" data-uid="ent0034" id="entity_publish_workflow_cli"><rect fill="#F1F1F1" height="46.2969" rx="2.5" ry="2.5" style="stroke:#181818;stroke-width:0.5;" width="182.7822" x="118.5" y="360"/><rect fill="#F1F1F1" height="10" style="stroke:#181818;stroke-width:0.5;" width="15" x="281.2822" y="365"/><rect fill="#F1F1F1" height="2" style="stroke:#181818;stroke-width:0.5;" width="4" x="279.2822" y="367"/><rect fill="#F1F1F1" height="2" style="stroke:#181818;stroke-width:0.5;" width="4" x="279.2822" y="371"/><text fill="#000000" font-family="sans-serif" font-size="14" lengthAdjust="spacing" textLength="142.7822" x="133.5" y="392.9951">publish_workflow_cli</text></g><!--link publish_workflow_workflow_id to publish_workflow_commit_and_push_commit_message--><g class="link" data-entity-1="publish_workflow_workflow_id" data-entity-2="publish_workflow_commit_and_push_commit_message" data-source-line="39" data-uid="lnk13" id="link_publish_workflow_workflow_id_publish_workflow_commit_and_push_commit_message"><path d="M1203.33,192.11 C1203.33,211.6 1203.33,271 1203.33,271 C1203.33,271 1494.3,271 1498.95,271" fill="none" id="publish_workflow_workflow_id-to-publish_workflow_commit_and_push_commit_message" style="stroke:#181818;stroke-width:1;stroke-dasharray:7,7;"/><polygon fill="#181818" points="1504.95,271,1495.95,267,1499.95,271,1495.95,275,1504.95,271" style="stroke:#181818;stroke-width:1;"/></g><!--link publish_workflow_project_name to publish_workflow_commit_and_push_commit_message--><g class="link" data-entity-1="publish_workflow_project_name" data-entity-2="publish_workflow_commit_and_push_commit_message" data-source-line="41" data-uid="lnk14" id="link_publish_workflow_project_name_publish_workflow_commit_and_push_commit_message"><path d="M1404.75,186.06 C1404.75,188.51 1404.75,267 1404.75,267 C1404.75,267 1495.89,267 1498.93,267" fill="none" id="publish_workflow_project_name-to-publish_workflow_commit_and_push_commit_message" style="stroke:#181818;stroke-width:1;stroke-dasharray:7,7;"/><polygon fill="#181818" points="1504.93,267,1495.93,263,1499.93,267,1495.93,271,1504.93,267" style="stroke:#181818;stroke-width:1;"/></g><!--link publish_workflow_project_id to publish_workflow_commit_and_push_commit_message--><g class="link" data-entity-1="publish_workflow_project_id" data-entity-2="publish_workflow_commit_and_push_commit_message" data-source-line="43" data-uid="lnk15" id="link_publish_workflow_project_id_publish_workflow_commit_and_push_commit_message"><path d="M1298,186.06 C1298,188.57 1298,269 1298,269 C1298,269 1492.58,269 1498.85,269" fill="none" id="publish_workflow_project_id-to-publish_workflow_commit_and_push_commit_message" style="stroke:#181818;stroke-width:1;stroke-dasharray:7,7;"/><polygon fill="#181818" points="1504.85,269,1495.85,265,1499.85,269,1495.85,273,1504.85,269" style="stroke:#181818;stroke-width:1;"/></g><!--link publish_workflow_workflow_id to publish_workflow_publish_workflow_workflow_id--><g class="link" data-entity-1="publish_workflow_workflow_id" data-entity-2="publish_workflow_publish_workflow_workflow_id" data-source-line="72" data-uid="lnk23" id="link_publish_workflow_workflow_id_publish_workflow_publish_workflow_workflow_id"><path d="M1186.17,186.11 C1186.17,188.34 1186.17,224 1186.17,224 C1186.17,224 543,224 543,224 C543,224 543,254.83 543,269.79" fill="none" id="publish_workflow_workflow_id-to-publish_workflow_publish_workflow_workflow_id" style="stroke:#181818;stroke-width:1;stroke-dasharray:7,7;"/><polygon fill="#181818" points="543,275.79,547,266.79,543,270.79,539,266.79,543,275.79" style="stroke:#181818;stroke-width:1;"/></g><!--link publish_workflow_project_id to publish_workflow_publish_workflow_project_id--><g class="link" data-entity-1="publish_workflow_project_id" data-entity-2="publish_workflow_publish_workflow_project_id" data-source-line="80" data-uid="lnk25" id="link_publish_workflow_project_id_publish_workflow_publish_workflow_project_id"><path d="M1280,186.14 C1280,188.95 1280,234 1280,234 C1280,234 634,234 634,234 C634,234 634,256.71 634,269.72" fill="none" id="publish_workflow_project_id-to-publish_workflow_publish_workflow_project_id" style="stroke:#181818;stroke-width:1;stroke-dasharray:7,7;"/><polygon fill="#181818" points="634,275.72,638,266.72,634,270.72,630,266.72,634,275.72" style="stroke:#181818;stroke-width:1;"/></g><!--link publish_workflow_project_name to publish_workflow_publish_workflow_project_name--><g class="link" data-entity-1="publish_workflow_project_name" data-entity-2="publish_workflow_publish_workflow_project_name" data-source-line="88" data-uid="lnk27" id="link_publish_workflow_project_name_publish_workflow_publish_workflow_project_name"><path d="M1387,192.23 C1387,215.5 1387,296 1387,296 C1387,296 754.1,296 744.12,296" fill="none" id="publish_workflow_project_name-to-publish_workflow_publish_workflow_project_name" style="stroke:#181818;stroke-width:1;stroke-dasharray:7,7;"/><polygon fill="#181818" points="738.12,296,747.12,300,743.12,296,747.12,292,738.12,296" style="stroke:#181818;stroke-width:1;"/></g><!--link publish_workflow_ogc_api_processes_endpoint to publish_workflow_publish_workflow_ogc_api_processes_endpoint--><g class="link" data-entity-1="publish_workflow_ogc_api_processes_endpoint" data-entity-2="publish_workflow_publish_workflow_ogc_api_processes_endpoint" data-source-line="96" data-uid="lnk29" id="link_publish_workflow_ogc_api_processes_endpoint_publish_workflow_publish_workflow_ogc_api_processes_endpoint"><path d="M892.26,186 C826.28,186 298.5,186 298.5,186 C298.5,186 298.5,273.02 298.5,275.93" fill="none" id="publish_workflow_ogc_api_processes_endpoint-to-publish_workflow_publish_workflow_ogc_api_processes_endpoint" style="stroke:#181818;stroke-width:1;stroke-dasharray:7,7;"/><polygon fill="#181818" points="298.5,281.93,302.5,272.93,298.5,276.93,294.5,272.93,298.5,281.93" style="stroke:#181818;stroke-width:1;"/></g><!--link publish_workflow_sync_git_repository_checkout_directory to publish_workflow_publish_workflow_osc_location--><g class="link" data-entity-1="publish_workflow_sync_git_repository_checkout_directory" data-entity-2="publish_workflow_publish_workflow_osc_location" data-source-line="104" data-uid="lnk31" id="link_publish_workflow_sync_git_repository_checkout_directory_publish_workflow_publish_workflow_osc_location"><path d="M233.69,186 C204.51,186 84,186 84,186 C84,186 84,273.02 84,275.93" fill="none" id="publish_workflow_sync_git_repository_checkout_directory-to-publish_workflow_publish_workflow_osc_location" style="stroke:#181818;stroke-width:1;stroke-dasharray:7,7;"/><polygon fill="#181818" points="84,281.93,88,272.93,84,276.93,80,272.93,84,281.93" style="stroke:#181818;stroke-width:1;"/></g><!--link publish_workflow_cwl_workflow_location to publish_workflow_publish_workflow_cwl_workflow_location--><g class="link" data-entity-1="publish_workflow_cwl_workflow_location" data-entity-2="publish_workflow_publish_workflow_cwl_workflow_location" data-source-line="112" data-uid="lnk33" id="link_publish_workflow_cwl_workflow_location_publish_workflow_publish_workflow_cwl_workflow_location"><path d="M1035,186.08 C1035,187.72 1035,214 1035,214 C1035,214 463.75,214 463.75,214 C463.75,214 463.75,273.89 463.75,275.95" fill="none" id="publish_workflow_cwl_workflow_location-to-publish_workflow_publish_workflow_cwl_workflow_location" style="stroke:#181818;stroke-width:1;stroke-dasharray:7,7;"/><polygon fill="#181818" points="463.75,281.95,467.75,272.95,463.75,276.95,459.75,272.95,463.75,281.95" style="stroke:#181818;stroke-width:1;"/></g><!--reverse link publish_workflow_publish_workflow_log to publish_workflow_publish_workflow_log--><g class="link" data-entity-1="publish_workflow_publish_workflow_log" data-entity-2="publish_workflow_publish_workflow_log" data-source-line="129" data-uid="lnk36" id="link_publish_workflow_publish_workflow_log_publish_workflow_publish_workflow_log"><path d="M1190,370.8 C1190,367.46 1190,370 1190,370 C1190,370 1208.25,370 1208.25,370 C1208.25,370 1208.25,397 1208.25,397 C1208.25,397 1190,397 1190,397 C1190,397 1190,392.81 1190,389.02" fill="none" id="publish_workflow_publish_workflow_log-backto-publish_workflow_publish_workflow_log" style="stroke:#181818;stroke-width:1;stroke-dasharray:7,7;"/><polygon fill="#181818" points="1190,376.8,1194,367.8,1190,371.8,1186,367.8,1190,376.8" style="stroke:#181818;stroke-width:1;"/></g><!--reverse link publish_workflow_changes_pushed to publish_workflow_commit_and_push_changes_pushed--><g class="link" data-entity-1="publish_workflow_changes_pushed" data-entity-2="publish_workflow_commit_and_push_changes_pushed" data-source-line="135" data-uid="lnk38" id="link_publish_workflow_changes_pushed_publish_workflow_commit_and_push_changes_pushed"><path d="M1296,389.07 C1296,392.13 1296,484 1296,484 C1296,484 1581.19,484 1626.86,484" fill="none" id="publish_workflow_changes_pushed-backto-publish_workflow_commit_and_push_changes_pushed" style="stroke:#181818;stroke-width:1;stroke-dasharray:7,7;"/><polygon fill="#181818" points="1296,383.07,1292,392.07,1296,388.07,1300,392.07,1296,383.07" style="stroke:#181818;stroke-width:1;"/></g><!--SRC=[lLR1Sfim4Btp5HekFeKGccPQ7tBg9tIcHuqY5AmQ90qIzNWw-VS81smmAv124WuseBTltwvMxDvk8hH1lpWfQbAXWWbM4yDoz7H4z51cggbAz2zDxhybQGiql6BQa4fjKPPc3pVfzvkx-zzt3zlivpQriEo7HTr6KQJtN2ZISfPSC7DK3CdQx6JKNaBc3CL_PBr_BkK1RLJpL7AzmuVkpIP6_oDaBoeh9GKJ1iNNc1WHZQvVTcQdd_PIrYSNAExNCSz1Epm0m0ogbdyPDKw2o_gylI0LcsTe4J27B2WcYhT8ohHc6ZEHAyc5WHdTU9ZVRlZ5k9IK62u5J0r2BwmZQja0ssUD2aSU0AI3bEw8A6nOgj4xvjYOCUP2z6BhiFr_jZLgYz5MMiKD9Y8_8HrSOv2hsZgOFIcQ5CoB2ezjpfJdcyd3sFDCFQCabmUHFBvRmxAtOUb-eRlFY6tqyBQzQuhlMWLGZ6VcmSTkObVoamFWVL_CWrhMHq5nON4rKr9p8-iZB0y0zZNj39hHlRt3EQ_j5eGmuwcjEm6WVPS4nngG2A-UWJ-iYInsbKy_qLuAW18FxdOBxMzDe3wdsyT_G9WpJNcnItz4gFFVJJyD7k66pW-X0yMQLBYf0nBZeSydJPekJ3zJnmEJrQdm-tQ6f0LIvv68W7amO41SangGDI0JywhyU_yxXbUeoqtrTIqEMkZxsykLgB5yBqKeQPHNldhr2mMp865-2dA96QDU0G00]--></g></svg>