<svg xmlns="http://www.w3.org/2000/svg" xmlns:xlink="http://www.w3.org/1999/xlink" contentStyleType="text/css" data-diagram-type="STATE" height="765px" preserveAspectRatio="none" style="width:758px;height:765px;background:#FFFFFF;" version="1.1" viewBox="0 0 758 765" width="758px" zoomAndPan="magnify"><defs/><g><!--cluster publish_workflow--><g class="cluster" data-entity="publish_workflow" data-source-line="12" data-uid="ent0002" id="cluster_publish_workflow"><path d="M19.5,105 L669.5,105 A12.5,12.5 0 0 1 682,117.5 L682,126.2969 L7,126.2969 L7,117.5 A12.5,12.5 0 0 1 19.5,105" fill="#F1F1F1"/><rect fill="none" height="553.36" rx="12.5" ry="12.5" style="stroke:#181818;stroke-width:0.5;" width="675" x="7" y="105"/><line style="stroke:#181818;stroke-width:0.5;" x1="7" x2="682" y1="126.2969" y2="126.2969"/><text fill="#000000" font-family="sans-serif" font-size="14" lengthAdjust="spacing" textLength="120.3057" x="284.3472" y="122.9951">publish_workflow</text></g><!--cluster commit_and_push--><g class="cluster" data-entity="commit_and_push" data-source-line="42" data-uid="ent0009" id="cluster_commit_and_push"><path d="M239.8125,382.36 L351.8125,382.36 A12.5,12.5 0 0 1 364.3125,394.86 L364.3125,403.6569 L227.3125,403.6569 L227.3125,394.86 A12.5,12.5 0 0 1 239.8125,382.36" fill="#F1F1F1"/><rect fill="none" height="137" rx="12.5" ry="12.5" style="stroke:#181818;stroke-width:0.5;" width="137" x="227.3125" y="382.36"/><line style="stroke:#181818;stroke-width:0.5;" x1="227.3125" x2="364.3125" y1="403.6569" y2="403.6569"/><text fill="#000000" font-family="sans-serif" font-size="14" lengthAdjust="spacing" textLength="127.1826" x="232.2212" y="400.3551">commit_and_push</text></g><!--cluster sync_git_repository--><g class="cluster" data-entity="sync_git_repository" data-source-line="63" data-uid="ent0012" id="cluster_sync_git_repository"><path d="M43.5,189 L163.5,189 A12.5,12.5 0 0 1 176,201.5 L176,210.2969 L31,210.2969 L31,201.5 A12.5,12.5 0 0 1 43.5,189" fill="#F1F1F1"/><rect fill="none" height="114.36" rx="12.5" ry="12.5" style="stroke:#181818;stroke-width:0.5;" width="145" x="31" y="189"/><line style="stroke:#181818;stroke-width:0.5;" x1="31" x2="176" y1="210.2969" y2="210.2969"/><text fill="#000000" font-family="sans-serif" font-size="14" lengthAdjust="spacing" textLength="135.5156" x="35.7422" y="206.9951">sync_git_repository</text></g><!--cluster publish_workflow--><g class="cluster" data-entity="publish_workflow" data-source-line="89" data-uid="ent0014" id="cluster_publish_workflow"><path d="M35.5,453.36 L153.5,453.36 A12.5,12.5 0 0 1 166,465.86 L166,474.6569 L23,474.6569 L23,465.86 A12.5,12.5 0 0 1 35.5,453.36" fill="#F1F1F1"/><rect fill="none" height="120" rx="12.5" ry="12.5" style="stroke:#181818;stroke-width:0.5;" width="143" x="23" y="453.36"/><line style="stroke:#181818;stroke-width:0.5;" x1="23" x2="166" y1="474.6569" y2="474.6569"/><text fill="#000000" font-family="sans-serif" font-size="14" lengthAdjust="spacing" textLength="120.3057" x="34.3472" y="471.3551">publish_workflow</text></g><text fill="#000000" font-family="sans-serif" font-size="14" lengthAdjust="spacing" textLength="82.4893" x="6.2554" y="83.6982">workflow_id</text><ellipse cx="47.5" cy="105" fill="#F1F1F1" rx="6" ry="6" style="stroke:#181818;stroke-width:1.5;"/><text fill="#000000" font-family="sans-serif" font-size="14" lengthAdjust="spacing" textLength="68.6738" x="120.6631" y="83.6982">project_id</text><ellipse cx="155" cy="105" fill="#F1F1F1" rx="6" ry="6" style="stroke:#181818;stroke-width:1.5;"/><text fill="#000000" font-family="sans-serif" font-size="14" lengthAdjust="spacing" textLength="95.6006" x="226.6997" y="83.6982">project_name</text><ellipse cx="274.5" cy="105" fill="#F1F1F1" rx="6" ry="6" style="stroke:#181818;stroke-width:1.5;"/><text fill="#000000" font-family="sans-serif" font-size="14" lengthAdjust="spacing" textLength="199.5957" x="363.7021" y="83.6982">ogc_api_processes_endpoint</text><ellipse cx="463.5" cy="105" fill="#F1F1F1" rx="6" ry="6" style="stroke:#181818;stroke-width:1.5;"/><text fill="#000000" font-family="sans-serif" font-size="14" lengthAdjust="spacing" textLength="155.2988" x="586.3506" y="83.6982">cwl_workflow_location</text><ellipse cx="664" cy="105" fill="#F1F1F1" rx="6" ry="6" style="stroke:#181818;stroke-width:1.5;"/><g class="entity" data-entity="commit_and_push_commit_message_choice" data-uid="ent0008" id="entity_commit_and_push_commit_message_choice"><polygon fill="#F1F1F1" points="229,231.36,241,243.36,229,255.36,217,243.36,229,231.36" style="stroke:#181818;stroke-width:0.5;"/></g><text fill="#000000" font-family="sans-serif" font-size="14" lengthAdjust="spacing" textLength="148.6475" x="73.6763" y="677.3551">publish_workflow_log</text><ellipse cx="148" cy="658.36" fill="#F1F1F1" rx="6" ry="6" style="stroke:#181818;stroke-width:1.5;"/><line style="stroke:#181818;stroke-width:1.5;" x1="152.3891" x2="144.6109" y1="662.7491" y2="654.9709"/><line style="stroke:#181818;stroke-width:1.5;" x1="152.3891" x2="144.6109" y1="654.9709" y2="662.7491"/><text fill="#000000" font-family="sans-serif" font-size="14" lengthAdjust="spacing" textLength="117.2432" x="199.3784" y="677.3551">changes_pushed</text><ellipse cx="258" cy="658.36" fill="#F1F1F1" rx="6" ry="6" style="stroke:#181818;stroke-width:1.5;"/><line style="stroke:#181818;stroke-width:1.5;" x1="262.3891" x2="254.6109" y1="662.7491" y2="654.9709"/><line style="stroke:#181818;stroke-width:1.5;" x1="262.3891" x2="254.6109" y1="654.9709" y2="662.7491"/><text fill="#000000" font-family="sans-serif" font-size="14" lengthAdjust="spacing" textLength="122.835" x="187.0825" y="361.0582">commit_message</text><ellipse cx="248.5" cy="382.36" fill="#F1F1F1" rx="6" ry="6" style="stroke:#181818;stroke-width:1.5;"/><text fill="#000000" font-family="sans-serif" font-size="14" lengthAdjust="spacing" textLength="117.2432" x="199.3784" y="538.3551">changes_pushed</text><ellipse cx="258" cy="519.36" fill="#F1F1F1" rx="6" ry="6" style="stroke:#181818;stroke-width:1.5;"/><line style="stroke:#181818;stroke-width:1.5;" x1="262.3891" x2="254.6109" y1="523.7491" y2="515.9709"/><line style="stroke:#181818;stroke-width:1.5;" x1="262.3891" x2="254.6109" y1="515.9709" y2="523.7491"/><text fill="#000000" font-family="sans-serif" font-size="14" lengthAdjust="spacing" textLength="133.8545" x="55.0728" y="322.3551">checkout_directory</text><ellipse cx="122" cy="303.36" fill="#F1F1F1" rx="6" ry="6" style="stroke:#181818;stroke-width:1.5;"/><line style="stroke:#181818;stroke-width:1.5;" x1="126.3891" x2="118.6109" y1="307.7491" y2="299.9709"/><line style="stroke:#181818;stroke-width:1.5;" x1="126.3891" x2="118.6109" y1="299.9709" y2="307.7491"/><text fill="#000000" font-family="sans-serif" font-size="14" lengthAdjust="spacing" textLength="86.1055" x="78.9473" y="432.0582">osc_location</text><ellipse cx="122" cy="453.36" fill="#F1F1F1" rx="6" ry="6" style="stroke:#181818;stroke-width:1.5;"/><text fill="#000000" font-family="sans-serif" font-size="14" lengthAdjust="spacing" textLength="21.3418" x="137.3291" y="592.3551">log</text><ellipse cx="148" cy="573.36" fill="#F1F1F1" rx="6" ry="6" style="stroke:#181818;stroke-width:1.5;"/><line style="stroke:#181818;stroke-width:1.5;" x1="152.3891" x2="144.6109" y1="577.7491" y2="569.9709"/><line style="stroke:#181818;stroke-width:1.5;" x1="152.3891" x2="144.6109" y1="569.9709" y2="577.7491"/><ellipse cx="275" cy="16" fill="#222222" rx="10" ry="10" style="stroke:#222222;stroke-width:1;"/><ellipse cx="202" cy="748.36" fill="none" rx="11" ry="11" style="stroke:#222222;stroke-width:1;"/><ellipse cx="202" cy="748.36" fill="#222222" rx="6" ry="6" style="stroke:#222222;stroke-width:1;"/><!--link publish_workflow_workflow_id to commit_and_push_commit_message_choice--><g class="link" data-entity-1="publish_workflow_workflow_id" data-entity-2="commit_and_push_commit_message_choice" data-source-line="33" data-uid="lnk2" id="link_publish_workflow_workflow_id_commit_and_push_commit_message_choice"><path d="M53.58,107.78 C79.44,116.08 186.88,151 198,162 C217.88,181.67 224.3665,209.5469 226.8965,226.3469" fill="none" id="publish_workflow_workflow_id-to-commit_and_push_commit_message_choice" style="stroke:#181818;stroke-width:1;"/><polygon fill="#181818" points="227.79,232.28,230.4052,222.7847,227.0454,227.3358,222.4944,223.976,227.79,232.28" style="stroke:#181818;stroke-width:1;"/></g><!--link publish_workflow_project_name to commit_and_push_commit_message_choice--><g class="link" data-entity-1="publish_workflow_project_name" data-entity-2="commit_and_push_commit_message_choice" data-source-line="35" data-uid="lnk3" id="link_publish_workflow_project_name_commit_and_push_commit_message_choice"><path d="M273.25,111.18 C266.29,131.81 242.4266,202.5444 233.7766,228.2044" fill="none" id="publish_workflow_project_name-to-commit_and_push_commit_message_choice" style="stroke:#181818;stroke-width:1;"/><polygon fill="#181818" points="231.86,233.89,238.5254,226.6393,233.4572,229.152,230.9445,224.0838,231.86,233.89" style="stroke:#181818;stroke-width:1;"/></g><!--link publish_workflow_project_id to commit_and_push_commit_message_choice--><g class="link" data-entity-1="publish_workflow_project_id" data-entity-2="commit_and_push_commit_message_choice" data-source-line="37" data-uid="lnk4" id="link_publish_workflow_project_id_commit_and_push_commit_message_choice"><path d="M159.83,111.2 C168.44,120.68 186.6,141.69 198,162 C211.76,186.51 220.3327,212.6051 224.8127,227.7951" fill="none" id="publish_workflow_project_id-to-commit_and_push_commit_message_choice" style="stroke:#181818;stroke-width:1;"/><polygon fill="#181818" points="226.51,233.55,227.8007,223.7861,225.0956,228.7542,220.1274,226.0491,226.51,233.55" style="stroke:#181818;stroke-width:1;"/></g><!--link commit_and_push_commit_message_choice to commit_and_push_commit_message--><g class="link" data-entity-1="commit_and_push_commit_message_choice" data-entity-2="commit_and_push_commit_message" data-source-line="47" data-uid="lnk5" id="link_commit_and_push_commit_message_choice_commit_and_push_commit_message"><path d="M230.44,254.21 C234.38,281.21 244.3807,349.7733 247.3707,370.1933" fill="none" id="commit_and_push_commit_message_choice-to-commit_and_push_commit_message" style="stroke:#181818;stroke-width:1;"/><polygon fill="#181818" points="248.24,376.13,250.8939,366.6454,247.5156,371.1828,242.9783,367.8045,248.24,376.13" style="stroke:#181818;stroke-width:1;"/><text fill="#000000" font-family="sans-serif" font-size="13" lengthAdjust="spacing" textLength="33.9155" x="242" y="307.9269">None</text></g><!--link publish_workflow_workflow_id to publish_workflow_workflow_id--><g class="link" data-entity-1="publish_workflow_workflow_id" data-entity-2="publish_workflow_workflow_id" data-source-line="95" data-uid="lnk6" id="link_publish_workflow_workflow_id_publish_workflow_workflow_id"><path d="M53.57,102.29 C75.42,93.08 108,93.98 108,105 C108,116.02 80.9489,119.2505 59.0989,110.0405" fill="none" id="publish_workflow_workflow_id-to-publish_workflow_workflow_id" style="stroke:#181818;stroke-width:1;"/><polygon fill="#181818" points="53.57,107.71,60.3097,114.8917,58.1774,109.6521,63.417,107.5198,53.57,107.71" style="stroke:#181818;stroke-width:1;"/></g><!--link publish_workflow_project_id to publish_workflow_project_id--><g class="link" data-entity-1="publish_workflow_project_id" data-entity-2="publish_workflow_project_id" data-source-line="103" data-uid="lnk7" id="link_publish_workflow_project_id_publish_workflow_project_id"><path d="M161.26,101.94 C182.7,93.11 215,94.12 215,105 C215,115.87 188.2479,119.1749 166.8079,110.3449" fill="none" id="publish_workflow_project_id-to-publish_workflow_project_id" style="stroke:#181818;stroke-width:1;"/><polygon fill="#181818" points="161.26,108.06,168.0586,115.1859,165.8833,109.9641,171.1051,107.7887,161.26,108.06" style="stroke:#181818;stroke-width:1;"/></g><!--link publish_workflow_project_name to publish_workflow_project_name--><g class="link" data-entity-1="publish_workflow_project_name" data-entity-2="publish_workflow_project_name" data-source-line="111" data-uid="lnk8" id="link_publish_workflow_project_name_publish_workflow_project_name"><path d="M280.8,102.41 C304.66,93.07 339.5,93.94 339.5,105 C339.5,116.06 310.2472,119.1171 286.3872,109.7771" fill="none" id="publish_workflow_project_name-to-publish_workflow_project_name" style="stroke:#181818;stroke-width:1;"/><polygon fill="#181818" points="280.8,107.59,287.7227,114.5954,285.456,109.4126,290.6388,107.1459,280.8,107.59" style="stroke:#181818;stroke-width:1;"/></g><!--link publish_workflow_ogc_api_processes_endpoint to publish_workflow_ogc_api_processes_endpoint--><g class="link" data-entity-1="publish_workflow_ogc_api_processes_endpoint" data-entity-2="publish_workflow_ogc_api_processes_endpoint" data-source-line="119" data-uid="lnk9" id="link_publish_workflow_ogc_api_processes_endpoint_publish_workflow_ogc_api_processes_endpoint"><path d="M469.88,103.39 C510.57,93.03 567.5,93.56 567.5,105 C567.5,116.44 516.3845,118.4504 475.6945,108.0904" fill="none" id="publish_workflow_ogc_api_processes_endpoint-to-publish_workflow_ogc_api_processes_endpoint" style="stroke:#181818;stroke-width:1;"/><polygon fill="#181818" points="469.88,106.61,477.6148,112.707,474.7254,107.8437,479.5887,104.9543,469.88,106.61" style="stroke:#181818;stroke-width:1;"/></g><!--link sync_git_repository_checkout_directory to publish_workflow_osc_location--><g class="link" data-entity-1="sync_git_repository_checkout_directory" data-entity-2="publish_workflow_osc_location" data-source-line="127" data-uid="lnk10" id="link_sync_git_repository_checkout_directory_publish_workflow_osc_location"><path d="M122,309.63 C122,332.7 122,418.67 122,441.31" fill="none" id="sync_git_repository_checkout_directory-to-publish_workflow_osc_location" style="stroke:#181818;stroke-width:1;"/><polygon fill="#181818" points="122,447.31,126,438.31,122,442.31,118,438.31,122,447.31" style="stroke:#181818;stroke-width:1;"/></g><!--link publish_workflow_cwl_workflow_location to publish_workflow_cwl_workflow_location--><g class="link" data-entity-1="publish_workflow_cwl_workflow_location" data-entity-2="publish_workflow_cwl_workflow_location" data-source-line="135" data-uid="lnk11" id="link_publish_workflow_cwl_workflow_location_publish_workflow_cwl_workflow_location"><path d="M670.08,103.01 C703.64,93.04 751.5,93.7 751.5,105 C751.5,116.3 709.3916,118.6687 675.8316,108.6987" fill="none" id="publish_workflow_cwl_workflow_location-to-publish_workflow_cwl_workflow_location" style="stroke:#181818;stroke-width:1;"/><polygon fill="#181818" points="670.08,106.99,677.5682,113.3874,674.873,108.4139,679.8465,105.7186,670.08,106.99" style="stroke:#181818;stroke-width:1;"/></g><!--link publish_workflow_log to publish_workflow_publish_workflow_log--><g class="link" data-entity-1="publish_workflow_log" data-entity-2="publish_workflow_publish_workflow_log" data-source-line="151" data-uid="lnk12" id="link_publish_workflow_log_publish_workflow_publish_workflow_log"><path d="M148,579.81 C148,594.95 148,631.44 148,646.21" fill="none" id="publish_workflow_log-to-publish_workflow_publish_workflow_log" style="stroke:#181818;stroke-width:1;"/><polygon fill="#181818" points="148,652.21,152,643.21,148,647.21,144,643.21,148,652.21" style="stroke:#181818;stroke-width:1;"/></g><!--link commit_and_push_changes_pushed to publish_workflow_changes_pushed--><g class="link" data-entity-1="commit_and_push_changes_pushed" data-entity-2="publish_workflow_changes_pushed" data-source-line="156" data-uid="lnk13" id="link_commit_and_push_changes_pushed_publish_workflow_changes_pushed"><path d="M258,525.56 C258,547.26 258,624.44 258,646.15" fill="none" id="commit_and_push_changes_pushed-to-publish_workflow_changes_pushed" style="stroke:#181818;stroke-width:1;"/><polygon fill="#181818" points="258,652.15,262,643.15,258,647.15,254,643.15,258,652.15" style="stroke:#181818;stroke-width:1;"/></g><!--link *start* to publish_workflow_workflow_id--><g class="link" data-entity-1=".start." data-entity-2="publish_workflow_workflow_id" data-source-line="161" data-uid="lnk15" id="link_.start._publish_workflow_workflow_id"><path d="M265.9,20.24 C240.69,29.23 167.85,55.43 108,79 C87.84,86.94 69.6811,94.6577 59.1111,99.2077" fill="none" id="*start*-to-publish_workflow_workflow_id" style="stroke:#181818;stroke-width:1;"/><polygon fill="#181818" points="53.6,101.58,63.4482,101.6956,58.1926,99.6031,60.2851,94.3475,53.6,101.58" style="stroke:#181818;stroke-width:1;"/></g><!--link *start* to publish_workflow_project_id--><g class="link" data-entity-1=".start." data-entity-2="publish_workflow_project_id" data-source-line="163" data-uid="lnk16" id="link_.start._publish_workflow_project_id"><path d="M267.13,22.71 C244.81,38.89 186.3074,81.2978 166.1174,95.9378" fill="none" id="*start*-to-publish_workflow_project_id" style="stroke:#181818;stroke-width:1;"/><polygon fill="#181818" points="161.26,99.46,170.8942,97.415,165.3078,96.5249,166.198,90.9385,161.26,99.46" style="stroke:#181818;stroke-width:1;"/></g><!--link *start* to publish_workflow_project_name--><g class="link" data-entity-1=".start." data-entity-2="publish_workflow_project_name" data-source-line="165" data-uid="lnk17" id="link_.start._publish_workflow_project_name"><path d="M275,26.31 C275,44.55 275,78.44 275,92.75" fill="none" id="*start*-to-publish_workflow_project_name" style="stroke:#181818;stroke-width:1;"/><polygon fill="#181818" points="275,98.75,279,89.75,275,93.75,271,89.75,275,98.75" style="stroke:#181818;stroke-width:1;"/></g><!--link *start* to publish_workflow_ogc_api_processes_endpoint--><g class="link" data-entity-1=".start." data-entity-2="publish_workflow_ogc_api_processes_endpoint" data-source-line="167" data-uid="lnk18" id="link_.start._publish_workflow_ogc_api_processes_endpoint"><path d="M283.86,21.08 C316.41,36.06 423.4901,85.3504 451.9601,98.4604" fill="none" id="*start*-to-publish_workflow_ogc_api_processes_endpoint" style="stroke:#181818;stroke-width:1;"/><polygon fill="#181818" points="457.41,100.97,450.9082,93.5723,452.8684,98.8787,447.562,100.8389,457.41,100.97" style="stroke:#181818;stroke-width:1;"/></g><!--link *start* to publish_workflow_cwl_workflow_location--><g class="link" data-entity-1=".start." data-entity-2="publish_workflow_cwl_workflow_location" data-source-line="169" data-uid="lnk19" id="link_.start._publish_workflow_cwl_workflow_location"><path d="M284.65,18.87 C321.54,26.07 457.17,52.86 568,79 C602.2,87.07 637.0662,96.5538 652.1762,100.7238" fill="none" id="*start*-to-publish_workflow_cwl_workflow_location" style="stroke:#181818;stroke-width:1;"/><polygon fill="#181818" points="657.96,102.32,650.3484,96.0699,653.1402,100.9898,648.2202,103.7816,657.96,102.32" style="stroke:#181818;stroke-width:1;"/></g><!--link publish_workflow_publish_workflow_log to *end*--><g class="link" data-entity-1="publish_workflow_publish_workflow_log" data-entity-2=".end." data-source-line="173" data-uid="lnk21" id="link_publish_workflow_publish_workflow_log_.end."><path d="M151.22,664.6 C160.16,679.18 182.2703,715.2171 193.4403,733.4071" fill="none" id="publish_workflow_publish_workflow_log-to-*end*" style="stroke:#181818;stroke-width:1;"/><polygon fill="#181818" points="196.58,738.52,195.279,728.7574,193.9636,734.2592,188.4618,732.9437,196.58,738.52" style="stroke:#181818;stroke-width:1;"/></g><!--link publish_workflow_changes_pushed to *end*--><g class="link" data-entity-1="publish_workflow_changes_pushed" data-entity-2=".end." data-source-line="175" data-uid="lnk22" id="link_publish_workflow_changes_pushed_.end."><path d="M254.66,664.6 C245.34,679.25 222.162,715.6885 210.672,733.7385" fill="none" id="publish_workflow_changes_pushed-to-*end*" style="stroke:#181818;stroke-width:1;"/><polygon fill="#181818" points="207.45,738.8,215.6573,733.3557,210.135,734.5821,208.9086,729.0598,207.45,738.8" style="stroke:#181818;stroke-width:1;"/></g><!--SRC=[pLTBZzem4BxdLrXSLge46zXTfA8Lfvwh7dghAilhkC7TnBPYKugg_lVQG26FiHEofgg54Cbyy_fcR0_tTmcwGnyuoIjIefm9LX73ClIoHtHNBDIsBD2FTFRuC4iTqF2IQKDAjKABTB6Sfa_J-UFd-NArUBzAdsOFoxb5tIV9XcSCiLAPFSgOfXLNXakH79RLDmnDrFQbu7g3Tx9w_LR8tGGHZTelqQy4sNNuEkdz5M6UWIgu1a3FpqoOQlz9Sc7MwuujLSdlZ1glgOjyg2L1IXQsvH1zrcHECL7SwL2cDTEOYKmvC6pRZ-_pP8jyCLD8IboTO2SW5BIVk4zh-L_u9SSOgInBRZ0H6LPR6z3fsJQY9Zd3T2CvTOmUVvnYWDPP46oPwNGzpEK8FuqU-1UEukRJBLtYBTDfvmBrd3Iz7vej723KPC40Eu9XFTHF5LgXZrACfmgaOqD4RhUiSySoc8u6nD7navis6qSFlvj-ad75r7j1SMv3g9YIcXjPxUi53UJ2wAlS6fpnolQVLJla0vZ3NUYjylgV9JNEFNSVHFDRxy3hDi_mSpC46BDdMcc_xRgEbNJhR0t88wOyVgw8dVRvxWeY8gH-so4e5Yq1ho19VdmCoZJj6UBgY8Yq33pWOKPg8KNWu1OJRQncWHs2h83Gg7D78NEO5YkuwYg-F7h-sc6lgojydvs0El211203JFddiMvrXWnaPyCzunnS_mOc47Mj6b_UVHr-3VlHm0NM3suS-dxuWEFFhnpU4xK-7DPdpeVr5L032cKL_W00]--></g></svg>