<svg xmlns="http://www.w3.org/2000/svg" xmlns:xlink="http://www.w3.org/1999/xlink" contentStyleType="text/css" data-diagram-type="ACTIVITY" height="445px" preserveAspectRatio="none" style="width:1140px;height:445px;background:#FFFFFF;" version="1.1" viewBox="0 0 1140 445" width="1140px" zoomAndPan="magnify"><defs/><g><ellipse cx="563.7197" cy="20" fill="#222222" rx="10" ry="10" style="stroke:#222222;stroke-width:1;"/><rect fill="none" height="352.1094" style="stroke:#000000;stroke-width:1.5;" width="1118.8486" x="11" y="40"/><path d="M227.6982,40 L227.6982,49.2969 L217.6982,59.2969 L11,59.2969" fill="none" style="stroke:#000000;stroke-width:1.5;"/><text fill="#000000" font-family="sans-serif" font-size="14" lengthAdjust="spacing" textLength="206.6982" x="14" y="53.9951">publish_experiment_products</text><line style="stroke:#181818;stroke-width:1.5;" x1="50.6221" x2="1038.0977" y1="76.2969" y2="76.2969"/><polygon fill="#F1F1F1" points="23,96.2969,88.2441,96.2969,78.2441,113.2813,88.2441,130.2656,23,130.2656" style="stroke:#181818;stroke-width:0.5;"/><text fill="#000000" font-family="sans-serif" font-size="12" lengthAdjust="spacing" textLength="35.2441" x="33" y="117.4355">job_id</text><polygon fill="#F1F1F1" points="98.2441,96.2969,187.1074,96.2969,177.1074,113.2813,187.1074,130.2656,98.2441,130.2656" style="stroke:#181818;stroke-width:0.5;"/><text fill="#000000" font-family="sans-serif" font-size="12" lengthAdjust="spacing" textLength="58.8633" x="108.2441" y="117.4355">project_id</text><polygon fill="#F1F1F1" points="201.6982,96.2969,313.6416,96.2969,303.6416,113.2813,313.6416,130.2656,201.6982,130.2656" style="stroke:#181818;stroke-width:0.5;"/><text fill="#000000" font-family="sans-serif" font-size="12" lengthAdjust="spacing" textLength="81.9434" x="211.6982" y="117.4355">project_name</text><polygon fill="#F1F1F1" points="323.6416,96.2969,524.7236,96.2969,514.7236,113.2813,524.7236,130.2656,323.6416,130.2656" style="stroke:#181818;stroke-width:0.5;"/><text fill="#000000" font-family="sans-serif" font-size="12" lengthAdjust="spacing" textLength="171.082" x="333.6416" y="117.4355">ogc_api_processes_endpoint</text><polygon fill="#F1F1F1" points="552.7236,96.2969,656.5283,96.2969,646.5283,113.2813,656.5283,130.2656,552.7236,130.2656" style="stroke:#181818;stroke-width:0.5;"/><text fill="#000000" font-family="sans-serif" font-size="12" lengthAdjust="spacing" textLength="73.8047" x="562.7236" y="117.4355">osc_location</text><polygon fill="#F1F1F1" points="684.5283,96.2969,847.6416,96.2969,837.6416,113.2813,847.6416,130.2656,684.5283,130.2656" style="stroke:#181818;stroke-width:0.5;"/><text fill="#000000" font-family="sans-serif" font-size="12" lengthAdjust="spacing" textLength="133.1133" x="694.5283" y="117.4355">cwl_workflow_location</text><polygon fill="#F1F1F1" points="857.6416,96.2969,958.3467,96.2969,948.3467,113.2813,958.3467,130.2656,857.6416,130.2656" style="stroke:#181818;stroke-width:0.5;"/><text fill="#000000" font-family="sans-serif" font-size="12" lengthAdjust="spacing" textLength="70.7051" x="867.6416" y="117.4355">workflow_id</text><polygon fill="#F1F1F1" points="968.3467,96.2969,1117.8486,96.2969,1107.8486,113.2813,1117.8486,130.2656,968.3467,130.2656" style="stroke:#181818;stroke-width:0.5;"/><text fill="#000000" font-family="sans-serif" font-size="12" lengthAdjust="spacing" textLength="119.502" x="978.3467" y="117.4355">authorization_token</text><line style="stroke:#181818;stroke-width:1.5;" x1="50.6221" x2="1038.0977" y1="150.2656" y2="150.2656"/><rect fill="#F1F1F1" height="47.9375" rx="12.5" ry="12.5" style="stroke:#181818;stroke-width:0.5;" width="277.6543" x="424.8926" y="170.2656"/><text fill="#000000" font-family="sans-serif" font-size="12" lengthAdjust="spacing" textLength="171.5801" x="434.8926" y="191.4043">step: publish_experiment_cli</text><text fill="#000000" font-family="sans-serif" font-size="12" lengthAdjust="spacing" textLength="257.6543" x="434.8926" y="205.373">CommandLineTool: publish_experiment_cli</text><rect fill="#F1F1F1" height="47.9375" rx="12.5" ry="12.5" style="stroke:#181818;stroke-width:0.5;" width="254.9375" x="436.251" y="238.2031"/><text fill="#000000" font-family="sans-serif" font-size="12" lengthAdjust="spacing" textLength="148.8633" x="446.251" y="259.3418">step: publish_product_cli</text><text fill="#000000" font-family="sans-serif" font-size="12" lengthAdjust="spacing" textLength="234.9375" x="446.251" y="273.3105">CommandLineTool: publish_product_cli</text><line style="stroke:#181818;stroke-width:1.5;" x1="493.6846" x2="635.1133" y1="306.1406" y2="306.1406"/><polygon fill="#F1F1F1" points="436.291,326.1406,551.0781,326.1406,561.0781,343.125,551.0781,360.1094,436.291,360.1094" style="stroke:#181818;stroke-width:0.5;"/><text fill="#000000" font-family="sans-serif" font-size="12" lengthAdjust="spacing" textLength="94.7871" x="446.291" y="347.2793">experiment_out</text><polygon fill="#F1F1F1" points="589.0781,326.1406,681.1484,326.1406,691.1484,343.125,681.1484,360.1094,589.0781,360.1094" style="stroke:#181818;stroke-width:0.5;"/><text fill="#000000" font-family="sans-serif" font-size="12" lengthAdjust="spacing" textLength="72.0703" x="599.0781" y="347.2793">product_out</text><line style="stroke:#181818;stroke-width:1.5;" x1="493.6846" x2="635.1133" y1="380.1094" y2="380.1094"/><ellipse cx="563.7197" cy="423.1094" fill="none" rx="11" ry="11" style="stroke:#222222;stroke-width:1;"/><ellipse cx="563.7197" cy="423.1094" fill="#222222" rx="6" ry="6" style="stroke:#222222;stroke-width:1;"/><line style="stroke:#181818;stroke-width:1;" x1="50.6221" x2="50.6221" y1="77.7969" y2="96.2969"/><polygon fill="#181818" points="46.6221,86.2969,50.6221,96.2969,54.6221,86.2969,50.6221,90.2969" style="stroke:#181818;stroke-width:1;"/><line style="stroke:#181818;stroke-width:1;" x1="137.6758" x2="137.6758" y1="77.7969" y2="96.2969"/><polygon fill="#181818" points="133.6758,86.2969,137.6758,96.2969,141.6758,86.2969,137.6758,90.2969" style="stroke:#181818;stroke-width:1;"/><line style="stroke:#181818;stroke-width:1;" x1="252.6699" x2="252.6699" y1="77.7969" y2="96.2969"/><polygon fill="#181818" points="248.6699,86.2969,252.6699,96.2969,256.6699,86.2969,252.6699,90.2969" style="stroke:#181818;stroke-width:1;"/><line style="stroke:#181818;stroke-width:1;" x1="419.1826" x2="419.1826" y1="77.7969" y2="96.2969"/><polygon fill="#181818" points="415.1826,86.2969,419.1826,96.2969,423.1826,86.2969,419.1826,90.2969" style="stroke:#181818;stroke-width:1;"/><line style="stroke:#181818;stroke-width:1;" x1="599.626" x2="599.626" y1="77.7969" y2="96.2969"/><polygon fill="#181818" points="595.626,86.2969,599.626,96.2969,603.626,86.2969,599.626,90.2969" style="stroke:#181818;stroke-width:1;"/><line style="stroke:#181818;stroke-width:1;" x1="761.085" x2="761.085" y1="77.7969" y2="96.2969"/><polygon fill="#181818" points="757.085,86.2969,761.085,96.2969,765.085,86.2969,761.085,90.2969" style="stroke:#181818;stroke-width:1;"/><line style="stroke:#181818;stroke-width:1;" x1="902.9941" x2="902.9941" y1="77.7969" y2="96.2969"/><polygon fill="#181818" points="898.9941,86.2969,902.9941,96.2969,906.9941,86.2969,902.9941,90.2969" style="stroke:#181818;stroke-width:1;"/><line style="stroke:#181818;stroke-width:1;" x1="1038.0977" x2="1038.0977" y1="77.7969" y2="96.2969"/><polygon fill="#181818" points="1034.0977,86.2969,1038.0977,96.2969,1042.0977,86.2969,1038.0977,90.2969" style="stroke:#181818;stroke-width:1;"/><line style="stroke:#181818;stroke-width:1;" x1="50.6221" x2="50.6221" y1="130.2656" y2="150.2656"/><polygon fill="#181818" points="46.6221,140.2656,50.6221,150.2656,54.6221,140.2656,50.6221,144.2656" style="stroke:#181818;stroke-width:1;"/><line style="stroke:#181818;stroke-width:1;" x1="137.6758" x2="137.6758" y1="130.2656" y2="150.2656"/><polygon fill="#181818" points="133.6758,140.2656,137.6758,150.2656,141.6758,140.2656,137.6758,144.2656" style="stroke:#181818;stroke-width:1;"/><line style="stroke:#181818;stroke-width:1;" x1="252.6699" x2="252.6699" y1="130.2656" y2="150.2656"/><polygon fill="#181818" points="248.6699,140.2656,252.6699,150.2656,256.6699,140.2656,252.6699,144.2656" style="stroke:#181818;stroke-width:1;"/><line style="stroke:#181818;stroke-width:1;" x1="419.1826" x2="419.1826" y1="130.2656" y2="150.2656"/><polygon fill="#181818" points="415.1826,140.2656,419.1826,150.2656,423.1826,140.2656,419.1826,144.2656" style="stroke:#181818;stroke-width:1;"/><line style="stroke:#181818;stroke-width:1;" x1="599.626" x2="599.626" y1="130.2656" y2="150.2656"/><polygon fill="#181818" points="595.626,140.2656,599.626,150.2656,603.626,140.2656,599.626,144.2656" style="stroke:#181818;stroke-width:1;"/><line style="stroke:#181818;stroke-width:1;" x1="761.085" x2="761.085" y1="130.2656" y2="150.2656"/><polygon fill="#181818" points="757.085,140.2656,761.085,150.2656,765.085,140.2656,761.085,144.2656" style="stroke:#181818;stroke-width:1;"/><line style="stroke:#181818;stroke-width:1;" x1="902.9941" x2="902.9941" y1="130.2656" y2="150.2656"/><polygon fill="#181818" points="898.9941,140.2656,902.9941,150.2656,906.9941,140.2656,902.9941,144.2656" style="stroke:#181818;stroke-width:1;"/><line style="stroke:#181818;stroke-width:1;" x1="1038.0977" x2="1038.0977" y1="130.2656" y2="150.2656"/><polygon fill="#181818" points="1034.0977,140.2656,1038.0977,150.2656,1042.0977,140.2656,1038.0977,144.2656" style="stroke:#181818;stroke-width:1;"/><line style="stroke:#181818;stroke-width:1;" x1="563.7197" x2="563.7197" y1="151.7656" y2="170.2656"/><polygon fill="#181818" points="559.7197,160.2656,563.7197,170.2656,567.7197,160.2656,563.7197,164.2656" style="stroke:#181818;stroke-width:1;"/><line style="stroke:#181818;stroke-width:1;" x1="563.7197" x2="563.7197" y1="218.2031" y2="238.2031"/><polygon fill="#181818" points="559.7197,228.2031,563.7197,238.2031,567.7197,228.2031,563.7197,232.2031" style="stroke:#181818;stroke-width:1;"/><line style="stroke:#181818;stroke-width:1;" x1="493.6846" x2="493.6846" y1="307.6406" y2="326.1406"/><polygon fill="#181818" points="489.6846,316.1406,493.6846,326.1406,497.6846,316.1406,493.6846,320.1406" style="stroke:#181818;stroke-width:1;"/><line style="stroke:#181818;stroke-width:1;" x1="635.1133" x2="635.1133" y1="307.6406" y2="326.1406"/><polygon fill="#181818" points="631.1133,316.1406,635.1133,326.1406,639.1133,316.1406,635.1133,320.1406" style="stroke:#181818;stroke-width:1;"/><line style="stroke:#181818;stroke-width:1;" x1="493.6846" x2="493.6846" y1="360.1094" y2="380.1094"/><polygon fill="#181818" points="489.6846,370.1094,493.6846,380.1094,497.6846,370.1094,493.6846,374.1094" style="stroke:#181818;stroke-width:1;"/><line style="stroke:#181818;stroke-width:1;" x1="635.1133" x2="635.1133" y1="360.1094" y2="380.1094"/><polygon fill="#181818" points="631.1133,370.1094,635.1133,380.1094,639.1133,370.1094,635.1133,374.1094" style="stroke:#181818;stroke-width:1;"/><line style="stroke:#181818;stroke-width:1;" x1="563.7197" x2="563.7197" y1="286.1406" y2="306.1406"/><polygon fill="#181818" points="559.7197,296.1406,563.7197,306.1406,567.7197,296.1406,563.7197,300.1406" style="stroke:#181818;stroke-width:1;"/><line style="stroke:#181818;stroke-width:1;" x1="563.7197" x2="563.7197" y1="30" y2="76.2969"/><polygon fill="#181818" points="559.7197,66.2969,563.7197,76.2969,567.7197,66.2969,563.7197,70.2969" style="stroke:#181818;stroke-width:1;"/><line style="stroke:#181818;stroke-width:1;" x1="563.7197" x2="563.7197" y1="381.6094" y2="412.1094"/><polygon fill="#181818" points="559.7197,402.1094,563.7197,412.1094,567.7197,402.1094,563.7197,406.1094" style="stroke:#181818;stroke-width:1;"/><!--SRC=[bP9DSy8W48Rl-HNSFAdviAqJ7I_jiKVl318QKM0PM6hRNrz27PjcsaRtmCVCi- -xi3kVP6H2dYHh7TEa5KOuXg8XktV2JwgqGIlociyMrIplG9HQU6JQrgJCo_jfVZSj5jkYhAkgBXvcosePgNcMHSPXbg9r42onOQUatrFnPeMB8WQfTT04ZZxILadCI8oqr0VOKTcio7ejZGsusNmHXBLCcXuN5Gw2uqsiOLgCqz1oogpiQkJ2U-6fC8q5QV2ANC-f0ivGWXcduo_J4xZZYuBJ3McNb6lUpWBkmScFf4qHZkA7GtmQwRNWlARjef4EjKSHE_zBBxcIsIDepKppB8tO0gY_kDMtNefHc_ES_E_HWmO6m-7gLGCXjJDk8vEJf8VqyDkwUnhspXJ1VW80]--></g></svg>