<svg xmlns="http://www.w3.org/2000/svg" xmlns:xlink="http://www.w3.org/1999/xlink" contentStyleType="text/css" data-diagram-type="JSON" height="166px" preserveAspectRatio="none" style="width:616px;height:166px;background:#FFFFFF;" version="1.1" viewBox="0 0 616 166" width="616px" zoomAndPan="magnify"><defs/><g><rect fill="#F1F1F1" height="40.5938" rx="5" ry="5" style="stroke:#F1F1F1;stroke-width:1.5;" width="157.1152" x="10" y="55.6484"/><text fill="#000000" font-family="sans-serif" font-size="14" font-weight="bold" lengthAdjust="spacing" textLength="123.7646" x="15" y="70.6436">experiment_out</text><text fill="#000000" font-family="sans-serif" font-size="14" lengthAdjust="spacing" textLength="13.3506" x="148.7646" y="70.6436">&#160;&#160;&#160;</text><line style="stroke:#000000;stroke-width:1;" x1="143.7646" x2="143.7646" y1="55.6484" y2="75.9453"/><line style="stroke:#000000;stroke-width:1;" x1="10" x2="167.1152" y1="75.9453" y2="75.9453"/><text fill="#000000" font-family="sans-serif" font-size="14" font-weight="bold" lengthAdjust="spacing" textLength="94.8008" x="15" y="90.9404">product_out</text><text fill="#000000" font-family="sans-serif" font-size="14" lengthAdjust="spacing" textLength="13.3506" x="148.7646" y="90.9404">&#160;&#160;&#160;</text><line style="stroke:#000000;stroke-width:1;" x1="143.7646" x2="143.7646" y1="75.9453" y2="96.2422"/><rect fill="none" height="40.5938" rx="5" ry="5" style="stroke:#000000;stroke-width:1.5;" width="157.1152" x="10" y="55.6484"/><rect fill="#F1F1F1" height="40.5938" rx="5" ry="5" style="stroke:#F1F1F1;stroke-width:1.5;" width="109.1816" x="204" y="26.6484"/><text fill="#000000" font-family="sans-serif" font-size="14" font-weight="bold" lengthAdjust="spacing" textLength="60.1289" x="209" y="41.6436">schema</text><text fill="#000000" font-family="sans-serif" font-size="14" lengthAdjust="spacing" textLength="13.3506" x="294.8311" y="41.6436">&#160;&#160;&#160;</text><line style="stroke:#000000;stroke-width:1;" x1="289.8311" x2="289.8311" y1="26.6484" y2="46.9453"/><line style="stroke:#000000;stroke-width:1;" x1="204" x2="313.1816" y1="46.9453" y2="46.9453"/><text fill="#000000" font-family="sans-serif" font-size="14" font-weight="bold" lengthAdjust="spacing" textLength="75.8311" x="209" y="61.9404">metadata</text><text fill="#000000" font-family="sans-serif" font-size="14" lengthAdjust="spacing" textLength="13.3506" x="294.8311" y="61.9404">&#160;&#160;&#160;</text><line style="stroke:#000000;stroke-width:1;" x1="289.8311" x2="289.8311" y1="46.9453" y2="67.2422"/><rect fill="none" height="40.5938" rx="5" ry="5" style="stroke:#000000;stroke-width:1.5;" width="109.1816" x="204" y="26.6484"/><rect fill="#F1F1F1" height="20.2969" rx="5" ry="5" style="stroke:#F1F1F1;stroke-width:1.5;" width="95.5234" x="350" y="10"/><text fill="#000000" font-family="sans-serif" font-size="14" font-weight="bold" lengthAdjust="spacing" textLength="35.335" x="355" y="24.9951">type</text><text fill="#000000" font-family="sans-serif" font-size="14" lengthAdjust="spacing" textLength="40.1885" x="400.335" y="24.9951">string</text><line style="stroke:#000000;stroke-width:1;" x1="395.335" x2="395.335" y1="10" y2="30.2969"/><rect fill="none" height="20.2969" rx="5" ry="5" style="stroke:#000000;stroke-width:1.5;" width="95.5234" x="350" y="10"/><rect fill="#F1F1F1" height="20.2969" rx="5" ry="5" style="stroke:#F1F1F1;stroke-width:1.5;" width="23.3506" x="386.5" y="48"/><text fill="#000000" font-family="sans-serif" font-size="14" lengthAdjust="spacing" textLength="13.3506" x="391.5" y="62.9951">&#160;&#160;&#160;</text><rect fill="none" height="20.2969" rx="5" ry="5" style="stroke:#000000;stroke-width:1.5;" width="23.3506" x="386.5" y="48"/><rect fill="#F1F1F1" height="40.5938" rx="5" ry="5" style="stroke:#F1F1F1;stroke-width:1.5;" width="121.8623" x="483" y="37.6484"/><text fill="#000000" font-family="sans-serif" font-size="14" font-weight="bold" lengthAdjust="spacing" textLength="32.4775" x="488" y="52.6436">title</text><text fill="#000000" font-family="sans-serif" font-size="14" lengthAdjust="spacing" textLength="59.0283" x="540.834" y="52.6436">cwl:type</text><line style="stroke:#000000;stroke-width:1;" x1="535.834" x2="535.834" y1="37.6484" y2="57.9453"/><line style="stroke:#000000;stroke-width:1;" x1="483" x2="604.8623" y1="57.9453" y2="57.9453"/><text fill="#000000" font-family="sans-serif" font-size="14" font-weight="bold" lengthAdjust="spacing" textLength="42.834" x="488" y="72.9404">value</text><text fill="#000000" font-family="sans-serif" font-size="14" lengthAdjust="spacing" textLength="40.1885" x="540.834" y="72.9404">string</text><line style="stroke:#000000;stroke-width:1;" x1="535.834" x2="535.834" y1="57.9453" y2="78.2422"/><rect fill="none" height="40.5938" rx="5" ry="5" style="stroke:#000000;stroke-width:1.5;" width="121.8623" x="483" y="37.6484"/><rect fill="#F1F1F1" height="40.5938" rx="5" ry="5" style="stroke:#F1F1F1;stroke-width:1.5;" width="109.1816" x="204" y="85.6484"/><text fill="#000000" font-family="sans-serif" font-size="14" font-weight="bold" lengthAdjust="spacing" textLength="60.1289" x="209" y="100.6436">schema</text><text fill="#000000" font-family="sans-serif" font-size="14" lengthAdjust="spacing" textLength="13.3506" x="294.8311" y="100.6436">&#160;&#160;&#160;</text><line style="stroke:#000000;stroke-width:1;" x1="289.8311" x2="289.8311" y1="85.6484" y2="105.9453"/><line style="stroke:#000000;stroke-width:1;" x1="204" x2="313.1816" y1="105.9453" y2="105.9453"/><text fill="#000000" font-family="sans-serif" font-size="14" font-weight="bold" lengthAdjust="spacing" textLength="75.8311" x="209" y="120.9404">metadata</text><text fill="#000000" font-family="sans-serif" font-size="14" lengthAdjust="spacing" textLength="13.3506" x="294.8311" y="120.9404">&#160;&#160;&#160;</text><line style="stroke:#000000;stroke-width:1;" x1="289.8311" x2="289.8311" y1="105.9453" y2="126.2422"/><rect fill="none" height="40.5938" rx="5" ry="5" style="stroke:#000000;stroke-width:1.5;" width="109.1816" x="204" y="85.6484"/><rect fill="#F1F1F1" height="20.2969" rx="5" ry="5" style="stroke:#F1F1F1;stroke-width:1.5;" width="95.5234" x="350" y="86"/><text fill="#000000" font-family="sans-serif" font-size="14" font-weight="bold" lengthAdjust="spacing" textLength="35.335" x="355" y="100.9951">type</text><text fill="#000000" font-family="sans-serif" font-size="14" lengthAdjust="spacing" textLength="40.1885" x="400.335" y="100.9951">string</text><line style="stroke:#000000;stroke-width:1;" x1="395.335" x2="395.335" y1="86" y2="106.2969"/><rect fill="none" height="20.2969" rx="5" ry="5" style="stroke:#000000;stroke-width:1.5;" width="95.5234" x="350" y="86"/><rect fill="#F1F1F1" height="20.2969" rx="5" ry="5" style="stroke:#F1F1F1;stroke-width:1.5;" width="23.3506" x="386.5" y="124"/><text fill="#000000" font-family="sans-serif" font-size="14" lengthAdjust="spacing" textLength="13.3506" x="391.5" y="138.9951">&#160;&#160;&#160;</text><rect fill="none" height="20.2969" rx="5" ry="5" style="stroke:#000000;stroke-width:1.5;" width="23.3506" x="386.5" y="124"/><rect fill="#F1F1F1" height="40.5938" rx="5" ry="5" style="stroke:#F1F1F1;stroke-width:1.5;" width="121.8623" x="483" y="113.6484"/><text fill="#000000" font-family="sans-serif" font-size="14" font-weight="bold" lengthAdjust="spacing" textLength="32.4775" x="488" y="128.6436">title</text><text fill="#000000" font-family="sans-serif" font-size="14" lengthAdjust="spacing" textLength="59.0283" x="540.834" y="128.6436">cwl:type</text><line style="stroke:#000000;stroke-width:1;" x1="535.834" x2="535.834" y1="113.6484" y2="133.9453"/><line style="stroke:#000000;stroke-width:1;" x1="483" x2="604.8623" y1="133.9453" y2="133.9453"/><text fill="#000000" font-family="sans-serif" font-size="14" font-weight="bold" lengthAdjust="spacing" textLength="42.834" x="488" y="148.9404">value</text><text fill="#000000" font-family="sans-serif" font-size="14" lengthAdjust="spacing" textLength="40.1885" x="540.834" y="148.9404">string</text><line style="stroke:#000000;stroke-width:1;" x1="535.834" x2="535.834" y1="133.9453" y2="154.2422"/><rect fill="none" height="40.5938" rx="5" ry="5" style="stroke:#000000;stroke-width:1.5;" width="121.8623" x="483" y="113.6484"/><path d="M301,37.1484 L314,37.1484 C327.7271,37.1484 342.4731,34.9151 355.6959,32.0673" fill="none" style="stroke:#000000;stroke-width:1;stroke-dasharray:3,3;"/><path d="M356.3901,35.1034 L357.973,31.5467 L355.0018,29.0312 L363.2861,30.3318 L356.3901,35.1034" fill="#000000"/><ellipse cx="301" cy="37.1484" fill="#000000" rx="3" ry="3" style="stroke:#000000;stroke-width:1;"/><path d="M397.366,58.1484 L410.366,58.1484 C424.8932,58.1484 450.6606,58.1484 475.6813,58.1484" fill="none" style="stroke:#000000;stroke-width:1;stroke-dasharray:3,3;"/><path d="M475.6813,61.2396 L477.9997,58.1484 L475.6813,55.0573 L483.4091,58.1484 L475.6813,61.2396" fill="#000000"/><ellipse cx="397.366" cy="58.1484" fill="#000000" rx="3" ry="3" style="stroke:#000000;stroke-width:1;"/><path d="M301,57.1484 L314,57.1484 C336.5505,57.1484 362.5243,57.5176 379.436,57.8074" fill="none" style="stroke:#000000;stroke-width:1;stroke-dasharray:3,3;"/><path d="M379.3825,60.8151 L381.6919,57.8475 L379.4896,54.7996 L386.9555,57.9412 L379.3825,60.8151" fill="#000000"/><ellipse cx="301" cy="57.1484" fill="#000000" rx="3" ry="3" style="stroke:#000000;stroke-width:1;"/><path d="M155,66.1484 L168,66.1484 C177.3246,66.1484 187.0778,65.16 196.5788,63.634" fill="none" style="stroke:#000000;stroke-width:1;stroke-dasharray:3,3;"/><path d="M197.111,66.655 L198.8446,63.2348 L196.0466,60.6129 L204.1314,62.3035 L197.111,66.655" fill="#000000"/><ellipse cx="155" cy="66.1484" fill="#000000" rx="3" ry="3" style="stroke:#000000;stroke-width:1;"/><path d="M301,96.1484 L314,96.1484 C323.2653,96.1484 333.1089,96.1484 342.6646,96.1484" fill="none" style="stroke:#000000;stroke-width:1;stroke-dasharray:3,3;"/><path d="M342.6646,99.1825 L344.9401,96.1484 L342.6646,93.1144 L350.2497,96.1484 L342.6646,99.1825" fill="#000000"/><ellipse cx="301" cy="96.1484" fill="#000000" rx="3" ry="3" style="stroke:#000000;stroke-width:1;"/><path d="M397.366,134.1484 L410.366,134.1484 C424.8932,134.1484 450.6606,134.1484 475.6813,134.1484" fill="none" style="stroke:#000000;stroke-width:1;stroke-dasharray:3,3;"/><path d="M475.6813,137.2396 L477.9997,134.1484 L475.6813,131.0573 L483.4091,134.1484 L475.6813,137.2396" fill="#000000"/><ellipse cx="397.366" cy="134.1484" fill="#000000" rx="3" ry="3" style="stroke:#000000;stroke-width:1;"/><path d="M301,116.1484 L314,116.1484 C336.9394,116.1484 362.6438,122.7205 379.3962,127.9223" fill="none" style="stroke:#000000;stroke-width:1;stroke-dasharray:3,3;"/><path d="M378.4327,130.9037 L381.6322,128.645 L380.3597,124.941 L386.8496,130.3311 L378.4327,130.9037" fill="#000000"/><ellipse cx="301" cy="116.1484" fill="#000000" rx="3" ry="3" style="stroke:#000000;stroke-width:1;"/><path d="M155,86.1484 L168,86.1484 C177.3461,86.1484 187.1109,87.1889 196.6172,88.7953" fill="none" style="stroke:#000000;stroke-width:1;stroke-dasharray:3,3;"/><path d="M196.057,91.8174 L198.8838,89.2154 L197.1774,85.7731 L204.1727,90.1957 L196.057,91.8174" fill="#000000"/><ellipse cx="155" cy="86.1484" fill="#000000" rx="3" ry="3" style="stroke:#000000;stroke-width:1;"/><!--SRC=[pP5DJiCm48NtFiKegrPggpGg2Boge81K6gZepmOXP98X6BdZo1a7AjIxuuIMBhW0AslUlFVDs1vNh1o_LvR4bm28yBD4fpT8_6mzHn8QDUXLzeORzLi7XRSbXZggs6agebRUzNxS6sILAsxyZtl_8TSaDPiscdqOsM9wnsQjZF_33UJsV1Bx6L7fREwp_xkas8anKju-h9WRHRnAPr2ZgxGb60wIE3aP3EFEqYFSsHhY4GnZcSHoT0xfOWbDloiwD_CPLDQx327NpR0Npm7G5LDLAtZmnE6l9DoNIDF9xK60AwgrizHyevYkqwFXTDI_q0mBT64LMATYWg_A6mw9pERXAX9Mo-l-cPWfAhmg0Xj9NDh0TLi9v8tv1W00]--></g></svg>