<svg xmlns="http://www.w3.org/2000/svg" xmlns:xlink="http://www.w3.org/1999/xlink" contentStyleType="text/css" data-diagram-type="STATE" height="536px" preserveAspectRatio="none" style="width:2082px;height:536px;background:#FFFFFF;" version="1.1" viewBox="0 0 2082 536" width="2082px" zoomAndPan="magnify"><defs/><g><!--cluster publish_experiment_products--><g class="cluster" data-entity="publish_experiment_products" data-source-line="12" data-uid="ent0002" id="cluster_publish_experiment_products"><path d="M19.5,104 L2056.5,104 A12.5,12.5 0 0 1 2069,116.5 L2069,125.2969 L7,125.2969 L7,116.5 A12.5,12.5 0 0 1 19.5,104" fill="#F1F1F1"/><rect fill="none" height="326.72" rx="12.5" ry="12.5" style="stroke:#181818;stroke-width:0.5;" width="2062" x="7" y="104"/><line style="stroke:#181818;stroke-width:0.5;" x1="7" x2="2069" y1="125.2969" y2="125.2969"/><text fill="#000000" font-family="sans-serif" font-size="14" lengthAdjust="spacing" textLength="206.6982" x="934.6509" y="121.9951">publish_experiment_products</text></g><!--cluster publish_experiment_cli--><g class="cluster" data-entity="publish_experiment_cli" data-source-line="53" data-uid="ent0011" id="cluster_publish_experiment_cli"><path d="M85,202 L1003.5,202 A12.5,12.5 0 0 1 1016,214.5 L1016,223.2969 L72.5,223.2969 L72.5,214.5 A12.5,12.5 0 0 1 85,202" fill="#F1F1F1"/><rect fill="none" height="144.72" rx="12.5" ry="12.5" style="stroke:#181818;stroke-width:0.5;" width="943.5" x="72.5" y="202"/><line style="stroke:#181818;stroke-width:0.5;" x1="72.5" x2="1016" y1="223.2969" y2="223.2969"/><text fill="#000000" font-family="sans-serif" font-size="14" lengthAdjust="spacing" textLength="160.7266" x="463.8867" y="219.9951">publish_experiment_cli</text></g><!--cluster publish_product_cli--><g class="cluster" data-entity="publish_product_cli" data-source-line="147" data-uid="ent0021" id="cluster_publish_product_cli"><path d="M1089.5,202 L2018.5,202 A12.5,12.5 0 0 1 2031,214.5 L2031,223.2969 L1077,223.2969 L1077,214.5 A12.5,12.5 0 0 1 1089.5,202" fill="#F1F1F1"/><rect fill="none" height="144.72" rx="12.5" ry="12.5" style="stroke:#181818;stroke-width:0.5;" width="954" x="1077" y="202"/><line style="stroke:#181818;stroke-width:0.5;" x1="1077" x2="2031" y1="223.2969" y2="223.2969"/><text fill="#000000" font-family="sans-serif" font-size="14" lengthAdjust="spacing" textLength="134.2236" x="1486.8882" y="219.9951">publish_product_cli</text></g><text fill="#000000" font-family="sans-serif" font-size="14" lengthAdjust="spacing" textLength="41.1182" x="1658.4409" y="82.6982">job_id</text><ellipse cx="1679" cy="104" fill="#F1F1F1" rx="6" ry="6" style="stroke:#181818;stroke-width:1.5;"/><text fill="#000000" font-family="sans-serif" font-size="14" lengthAdjust="spacing" textLength="68.6738" x="1103.6631" y="82.6982">project_id</text><ellipse cx="1138" cy="104" fill="#F1F1F1" rx="6" ry="6" style="stroke:#181818;stroke-width:1.5;"/><text fill="#000000" font-family="sans-serif" font-size="14" lengthAdjust="spacing" textLength="95.6006" x="995.6997" y="82.6982">project_name</text><ellipse cx="1043.5" cy="104" fill="#F1F1F1" rx="6" ry="6" style="stroke:#181818;stroke-width:1.5;"/><text fill="#000000" font-family="sans-serif" font-size="14" lengthAdjust="spacing" textLength="199.5957" x="798.7021" y="82.6982">ogc_api_processes_endpoint</text><ellipse cx="898.5" cy="104" fill="#F1F1F1" rx="6" ry="6" style="stroke:#181818;stroke-width:1.5;"/><text fill="#000000" font-family="sans-serif" font-size="14" lengthAdjust="spacing" textLength="86.1055" x="686.9473" y="82.6982">osc_location</text><ellipse cx="730" cy="104" fill="#F1F1F1" rx="6" ry="6" style="stroke:#181818;stroke-width:1.5;"/><text fill="#000000" font-family="sans-serif" font-size="14" lengthAdjust="spacing" textLength="155.2988" x="529.3506" y="82.6982">cwl_workflow_location</text><ellipse cx="607" cy="104" fill="#F1F1F1" rx="6" ry="6" style="stroke:#181818;stroke-width:1.5;"/><text fill="#000000" font-family="sans-serif" font-size="14" lengthAdjust="spacing" textLength="82.4893" x="276.2554" y="82.6982">workflow_id</text><ellipse cx="317.5" cy="104" fill="#F1F1F1" rx="6" ry="6" style="stroke:#181818;stroke-width:1.5;"/><text fill="#000000" font-family="sans-serif" font-size="14" lengthAdjust="spacing" textLength="139.4189" x="377.2905" y="82.6982">authorization_token</text><ellipse cx="447" cy="104" fill="#F1F1F1" rx="6" ry="6" style="stroke:#181818;stroke-width:1.5;"/><text fill="#000000" font-family="sans-serif" font-size="14" lengthAdjust="spacing" textLength="110.585" x="934.7075" y="449.7151">experiment_out</text><ellipse cx="990" cy="430.72" fill="#F1F1F1" rx="6" ry="6" style="stroke:#181818;stroke-width:1.5;"/><line style="stroke:#181818;stroke-width:1.5;" x1="994.3891" x2="986.6109" y1="435.1091" y2="427.3309"/><line style="stroke:#181818;stroke-width:1.5;" x1="994.3891" x2="986.6109" y1="427.3309" y2="435.1091"/><text fill="#000000" font-family="sans-serif" font-size="14" lengthAdjust="spacing" textLength="84.082" x="1052.959" y="449.7151">product_out</text><ellipse cx="1095" cy="430.72" fill="#F1F1F1" rx="6" ry="6" style="stroke:#181818;stroke-width:1.5;"/><line style="stroke:#181818;stroke-width:1.5;" x1="1099.3891" x2="1091.6109" y1="435.1091" y2="427.3309"/><line style="stroke:#181818;stroke-width:1.5;" x1="1099.3891" x2="1091.6109" y1="427.3309" y2="435.1091"/><text fill="#000000" font-family="sans-serif" font-size="14" lengthAdjust="spacing" textLength="41.1182" x="977.4409" y="180.6982">job_id</text><ellipse cx="998" cy="202" fill="#F1F1F1" rx="6" ry="6" style="stroke:#181818;stroke-width:1.5;"/><text fill="#000000" font-family="sans-serif" font-size="14" lengthAdjust="spacing" textLength="68.6738" x="876.6631" y="180.6982">project_id</text><ellipse cx="911" cy="202" fill="#F1F1F1" rx="6" ry="6" style="stroke:#181818;stroke-width:1.5;"/><text fill="#000000" font-family="sans-serif" font-size="14" lengthAdjust="spacing" textLength="95.6006" x="768.6997" y="180.6982">project_name</text><ellipse cx="816.5" cy="202" fill="#F1F1F1" rx="6" ry="6" style="stroke:#181818;stroke-width:1.5;"/><text fill="#000000" font-family="sans-serif" font-size="14" lengthAdjust="spacing" textLength="199.5957" x="571.7021" y="180.6982">ogc_api_processes_endpoint</text><ellipse cx="671.5" cy="202" fill="#F1F1F1" rx="6" ry="6" style="stroke:#181818;stroke-width:1.5;"/><text fill="#000000" font-family="sans-serif" font-size="14" lengthAdjust="spacing" textLength="86.1055" x="459.9473" y="180.6982">osc_location</text><ellipse cx="503" cy="202" fill="#F1F1F1" rx="6" ry="6" style="stroke:#181818;stroke-width:1.5;"/><text fill="#000000" font-family="sans-serif" font-size="14" lengthAdjust="spacing" textLength="155.2988" x="302.3506" y="180.6982">cwl_workflow_location</text><ellipse cx="380" cy="202" fill="#F1F1F1" rx="6" ry="6" style="stroke:#181818;stroke-width:1.5;"/><text fill="#000000" font-family="sans-serif" font-size="14" lengthAdjust="spacing" textLength="82.4893" x="49.2554" y="180.6982">workflow_id</text><ellipse cx="90.5" cy="202" fill="#F1F1F1" rx="6" ry="6" style="stroke:#181818;stroke-width:1.5;"/><text fill="#000000" font-family="sans-serif" font-size="14" lengthAdjust="spacing" textLength="139.4189" x="150.2905" y="180.6982">authorization_token</text><ellipse cx="220" cy="202" fill="#F1F1F1" rx="6" ry="6" style="stroke:#181818;stroke-width:1.5;"/><text fill="#000000" font-family="sans-serif" font-size="14" lengthAdjust="spacing" textLength="22.9277" x="978.5361" y="365.7151">out</text><ellipse cx="990" cy="346.72" fill="#F1F1F1" rx="6" ry="6" style="stroke:#181818;stroke-width:1.5;"/><line style="stroke:#181818;stroke-width:1.5;" x1="994.3891" x2="986.6109" y1="351.1091" y2="343.3309"/><line style="stroke:#181818;stroke-width:1.5;" x1="994.3891" x2="986.6109" y1="343.3309" y2="351.1091"/><text fill="#000000" font-family="sans-serif" font-size="14" lengthAdjust="spacing" textLength="41.1182" x="1886.4409" y="180.6982">job_id</text><ellipse cx="1907" cy="202" fill="#F1F1F1" rx="6" ry="6" style="stroke:#181818;stroke-width:1.5;"/><text fill="#000000" font-family="sans-serif" font-size="14" lengthAdjust="spacing" textLength="68.6738" x="1785.6631" y="180.6982">project_id</text><ellipse cx="1820" cy="202" fill="#F1F1F1" rx="6" ry="6" style="stroke:#181818;stroke-width:1.5;"/><text fill="#000000" font-family="sans-serif" font-size="14" lengthAdjust="spacing" textLength="95.6006" x="1677.6997" y="180.6982">project_name</text><ellipse cx="1725.5" cy="202" fill="#F1F1F1" rx="6" ry="6" style="stroke:#181818;stroke-width:1.5;"/><text fill="#000000" font-family="sans-serif" font-size="14" lengthAdjust="spacing" textLength="199.5957" x="1480.7021" y="180.6982">ogc_api_processes_endpoint</text><ellipse cx="1580.5" cy="202" fill="#F1F1F1" rx="6" ry="6" style="stroke:#181818;stroke-width:1.5;"/><text fill="#000000" font-family="sans-serif" font-size="14" lengthAdjust="spacing" textLength="86.1055" x="1368.9473" y="180.6982">osc_location</text><ellipse cx="1412" cy="202" fill="#F1F1F1" rx="6" ry="6" style="stroke:#181818;stroke-width:1.5;"/><text fill="#000000" font-family="sans-serif" font-size="14" lengthAdjust="spacing" textLength="155.2988" x="1211.3506" y="180.6982">cwl_workflow_location</text><ellipse cx="1289" cy="202" fill="#F1F1F1" rx="6" ry="6" style="stroke:#181818;stroke-width:1.5;"/><text fill="#000000" font-family="sans-serif" font-size="14" lengthAdjust="spacing" textLength="100.4336" x="1962.7832" y="180.6982">experiment_id</text><ellipse cx="2013" cy="202" fill="#F1F1F1" rx="6" ry="6" style="stroke:#181818;stroke-width:1.5;"/><text fill="#000000" font-family="sans-serif" font-size="14" lengthAdjust="spacing" textLength="139.4189" x="1059.2905" y="180.6982">authorization_token</text><ellipse cx="1129" cy="202" fill="#F1F1F1" rx="6" ry="6" style="stroke:#181818;stroke-width:1.5;"/><text fill="#000000" font-family="sans-serif" font-size="14" lengthAdjust="spacing" textLength="22.9277" x="1083.5361" y="365.7151">out</text><ellipse cx="1095" cy="346.72" fill="#F1F1F1" rx="6" ry="6" style="stroke:#181818;stroke-width:1.5;"/><line style="stroke:#181818;stroke-width:1.5;" x1="1099.3891" x2="1091.6109" y1="351.1091" y2="343.3309"/><line style="stroke:#181818;stroke-width:1.5;" x1="1099.3891" x2="1091.6109" y1="343.3309" y2="351.1091"/><ellipse cx="814" cy="16" fill="#222222" rx="10" ry="10" style="stroke:#222222;stroke-width:1;"/><ellipse cx="1042" cy="519.72" fill="none" rx="11" ry="11" style="stroke:#222222;stroke-width:1;"/><ellipse cx="1042" cy="519.72" fill="#222222" rx="6" ry="6" style="stroke:#222222;stroke-width:1;"/><!--link publish_experiment_products_job_id to publish_experiment_cli_job_id--><g class="link" data-entity-1="publish_experiment_products_job_id" data-entity-2="publish_experiment_cli_job_id" data-source-line="59" data-uid="lnk2" id="link_publish_experiment_products_job_id_publish_experiment_cli_job_id"><path d="M1672.79,105.21 C1607.61,107.36 1051.22,125.89 1044,130 C1017.71,144.97 1005.7478,176.0988 1001.3778,189.9288" fill="none" id="publish_experiment_products_job_id-to-publish_experiment_cli_job_id" style="stroke:#181818;stroke-width:1;"/><polygon fill="#181818" points="999.57,195.65,1006.0958,188.2734,1001.0765,190.8823,998.4675,185.863,999.57,195.65" style="stroke:#181818;stroke-width:1;"/></g><!--link publish_experiment_products_project_id to publish_experiment_cli_project_id--><g class="link" data-entity-1="publish_experiment_products_project_id" data-entity-2="publish_experiment_cli_project_id" data-source-line="67" data-uid="lnk3" id="link_publish_experiment_products_project_id_publish_experiment_cli_project_id"><path d="M1131.78,107.91 C1122.94,111.89 1106.13,118.89 1091,122 C1061.13,128.14 980.12,114.26 954,130 C928.57,145.32 917.84,176.1828 913.99,189.9128" fill="none" id="publish_experiment_products_project_id-to-publish_experiment_cli_project_id" style="stroke:#181818;stroke-width:1;"/><polygon fill="#181818" points="912.37,195.69,918.6514,188.1042,913.72,190.8757,910.9485,185.9443,912.37,195.69" style="stroke:#181818;stroke-width:1;"/></g><!--link publish_experiment_products_project_name to publish_experiment_cli_project_name--><g class="link" data-entity-1="publish_experiment_products_project_name" data-entity-2="publish_experiment_cli_project_name" data-source-line="75" data-uid="lnk4" id="link_publish_experiment_products_project_name_publish_experiment_cli_project_name"><path d="M1037.21,107.47 C1026.35,111.31 1004.32,118.61 985,122 C958.68,126.62 888.17,116.69 865,130 C838.42,145.27 825.5188,176.2757 820.7188,190.0157" fill="none" id="publish_experiment_products_project_name-to-publish_experiment_cli_project_name" style="stroke:#181818;stroke-width:1;"/><polygon fill="#181818" points="818.74,195.68,825.4844,188.5027,820.389,190.9597,817.932,185.8643,818.74,195.68" style="stroke:#181818;stroke-width:1;"/></g><!--link publish_experiment_products_ogc_api_processes_endpoint to publish_experiment_cli_ogc_api_processes_endpoint--><g class="link" data-entity-1="publish_experiment_products_ogc_api_processes_endpoint" data-entity-2="publish_experiment_cli_ogc_api_processes_endpoint" data-source-line="83" data-uid="lnk5" id="link_publish_experiment_products_ogc_api_processes_endpoint_publish_experiment_cli_ogc_api_processes_endpoint"><path d="M892.47,105 C871.76,105.23 806.07,107.79 758,130 C721.79,146.73 692.1358,178.0075 680.3858,191.3475" fill="none" id="publish_experiment_products_ogc_api_processes_endpoint-to-publish_experiment_cli_ogc_api_processes_endpoint" style="stroke:#181818;stroke-width:1;"/><polygon fill="#181818" points="676.42,195.85,685.3704,191.7402,679.7249,192.0979,679.3671,186.4524,676.42,195.85" style="stroke:#181818;stroke-width:1;"/></g><!--link publish_experiment_products_osc_location to publish_experiment_cli_osc_location--><g class="link" data-entity-1="publish_experiment_products_osc_location" data-entity-2="publish_experiment_cli_osc_location" data-source-line="91" data-uid="lnk6" id="link_publish_experiment_products_osc_location_publish_experiment_cli_osc_location"><path d="M723.93,107.5 C714.21,111.37 694.47,118.71 677,122 C648.77,127.32 572.72,115.38 548,130 C522.12,145.3 510.5166,176.216 506.2866,189.946" fill="none" id="publish_experiment_products_osc_location-to-publish_experiment_cli_osc_location" style="stroke:#181818;stroke-width:1;"/><polygon fill="#181818" points="504.52,195.68,510.9925,188.2567,505.9921,190.9016,503.3472,185.9012,504.52,195.68" style="stroke:#181818;stroke-width:1;"/></g><!--link publish_experiment_products_cwl_workflow_location to publish_experiment_cli_cwl_workflow_location--><g class="link" data-entity-1="publish_experiment_products_cwl_workflow_location" data-entity-2="publish_experiment_cli_cwl_workflow_location" data-source-line="99" data-uid="lnk7" id="link_publish_experiment_products_cwl_workflow_location_publish_experiment_cli_cwl_workflow_location"><path d="M600.95,106.16 C585.82,109.05 545.12,116.71 511,122 C484.42,126.12 475.12,118.08 451,130 C418.81,145.91 395.7858,177.2028 386.7158,190.7628" fill="none" id="publish_experiment_products_cwl_workflow_location-to-publish_experiment_cli_cwl_workflow_location" style="stroke:#181818;stroke-width:1;"/><polygon fill="#181818" points="383.38,195.75,391.7086,190.4931,386.1599,191.594,385.059,186.0453,383.38,195.75" style="stroke:#181818;stroke-width:1;"/></g><!--link publish_experiment_products_workflow_id to publish_experiment_cli_workflow_id--><g class="link" data-entity-1="publish_experiment_products_workflow_id" data-entity-2="publish_experiment_cli_workflow_id" data-source-line="107" data-uid="lnk8" id="link_publish_experiment_products_workflow_id_publish_experiment_cli_workflow_id"><path d="M311.11,105.16 C281.37,105.95 164.05,110.28 134,130 C109.18,146.28 98.177,176.5909 94.157,190.0509" fill="none" id="publish_experiment_products_workflow_id-to-publish_experiment_cli_workflow_id" style="stroke:#181818;stroke-width:1;"/><polygon fill="#181818" points="92.44,195.8,98.8483,188.3211,93.8709,191.0091,91.1828,186.0317,92.44,195.8" style="stroke:#181818;stroke-width:1;"/></g><!--link publish_experiment_products_authorization_token to publish_experiment_cli_authorization_token--><g class="link" data-entity-1="publish_experiment_products_authorization_token" data-entity-2="publish_experiment_cli_authorization_token" data-source-line="115" data-uid="lnk9" id="link_publish_experiment_products_authorization_token_publish_experiment_cli_authorization_token"><path d="M440.78,106.43 C426.66,109.64 391.1,117.47 361,122 C343.99,124.56 299.34,122.2 284,130 C253.53,145.49 233.6133,176.8128 225.8433,190.4928" fill="none" id="publish_experiment_products_authorization_token-to-publish_experiment_cli_authorization_token" style="stroke:#181818;stroke-width:1;"/><polygon fill="#181818" points="222.88,195.71,230.803,189.8597,225.3494,191.3623,223.8468,185.9087,222.88,195.71" style="stroke:#181818;stroke-width:1;"/></g><!--link publish_experiment_products_job_id to publish_product_cli_job_id--><g class="link" data-entity-1="publish_experiment_products_job_id" data-entity-2="publish_product_cli_job_id" data-source-line="153" data-uid="lnk10" id="link_publish_experiment_products_job_id_publish_product_cli_job_id"><path d="M1685.1,105.14 C1713.5,105.91 1832.57,110.26 1863,130 C1888.06,146.26 1899.4889,176.6036 1903.6989,190.0636" fill="none" id="publish_experiment_products_job_id-to-publish_product_cli_job_id" style="stroke:#181818;stroke-width:1;"/><polygon fill="#181818" points="1905.49,195.79,1906.621,186.0063,1903.9974,191.018,1898.9857,188.3944,1905.49,195.79" style="stroke:#181818;stroke-width:1;"/></g><!--link publish_experiment_products_project_id to publish_product_cli_project_id--><g class="link" data-entity-1="publish_experiment_products_project_id" data-entity-2="publish_product_cli_project_id" data-source-line="161" data-uid="lnk11" id="link_publish_experiment_products_project_id_publish_product_cli_project_id"><path d="M1144.21,105.21 C1209.39,107.37 1765.76,125.92 1773,130 C1799.54,144.94 1811.9212,176.1118 1816.4812,189.9418" fill="none" id="publish_experiment_products_project_id-to-publish_product_cli_project_id" style="stroke:#181818;stroke-width:1;"/><polygon fill="#181818" points="1818.36,195.64,1819.3406,185.8401,1816.7943,190.8915,1811.7429,188.3452,1818.36,195.64" style="stroke:#181818;stroke-width:1;"/></g><!--link publish_experiment_products_project_name to publish_product_cli_project_name--><g class="link" data-entity-1="publish_experiment_products_project_name" data-entity-2="publish_product_cli_project_name" data-source-line="169" data-uid="lnk12" id="link_publish_experiment_products_project_name_publish_product_cli_project_name"><path d="M1049.74,107.73 C1058.58,111.77 1076.16,119.16 1092,122 C1123.45,127.63 1638.17,116.23 1667,130 C1697.08,144.37 1714.6581,176.8392 1721.1581,190.5392" fill="none" id="publish_experiment_products_project_name-to-publish_product_cli_project_name" style="stroke:#181818;stroke-width:1;"/><polygon fill="#181818" points="1723.73,195.96,1723.486,186.1142,1721.5867,191.4427,1716.2582,189.5434,1723.73,195.96" style="stroke:#181818;stroke-width:1;"/></g><!--link publish_experiment_products_ogc_api_processes_endpoint to publish_product_cli_ogc_api_processes_endpoint--><g class="link" data-entity-1="publish_experiment_products_ogc_api_processes_endpoint" data-entity-2="publish_product_cli_ogc_api_processes_endpoint" data-source-line="177" data-uid="lnk13" id="link_publish_experiment_products_ogc_api_processes_endpoint_publish_product_cli_ogc_api_processes_endpoint"><path d="M904.78,106.52 C918.56,110.04 954.43,118.75 985,122 C1037.16,127.55 1406.43,116.09 1457,130 C1506.75,143.69 1552.8435,178.2409 1570.1235,192.1309" fill="none" id="publish_experiment_products_ogc_api_processes_endpoint-to-publish_product_cli_ogc_api_processes_endpoint" style="stroke:#181818;stroke-width:1;"/><polygon fill="#181818" points="1574.8,195.89,1570.2913,187.1338,1570.9029,192.7575,1565.2792,193.3691,1574.8,195.89" style="stroke:#181818;stroke-width:1;"/></g><!--link publish_experiment_products_osc_location to publish_product_cli_osc_location--><g class="link" data-entity-1="publish_experiment_products_osc_location" data-entity-2="publish_product_cli_osc_location" data-source-line="185" data-uid="lnk14" id="link_publish_experiment_products_osc_location_publish_product_cli_osc_location"><path d="M736.21,108.14 C744.7,112.25 760.56,119.26 775,122 C806.88,128.05 1330.09,115.26 1359,130 C1387.5,144.54 1402.4636,176.7444 1407.8936,190.4044" fill="none" id="publish_experiment_products_osc_location-to-publish_product_cli_osc_location" style="stroke:#181818;stroke-width:1;"/><polygon fill="#181818" points="1410.11,195.98,1410.5025,186.139,1408.263,191.3336,1403.0683,189.0941,1410.11,195.98" style="stroke:#181818;stroke-width:1;"/></g><!--link publish_experiment_products_cwl_workflow_location to publish_product_cli_cwl_workflow_location--><g class="link" data-entity-1="publish_experiment_products_cwl_workflow_location" data-entity-2="publish_product_cli_cwl_workflow_location" data-source-line="193" data-uid="lnk15" id="link_publish_experiment_products_cwl_workflow_location_publish_product_cli_cwl_workflow_location"><path d="M613.18,106.97 C625.41,110.75 653.6,118.93 678,122 C706.39,125.58 1165.89,120.83 1193,130 C1233.84,143.82 1267.6246,177.6373 1280.3846,191.4873" fill="none" id="publish_experiment_products_cwl_workflow_location-to-publish_product_cli_cwl_workflow_location" style="stroke:#181818;stroke-width:1;"/><polygon fill="#181818" points="1284.45,195.9,1281.2937,186.5706,1281.0621,192.2227,1275.41,191.9912,1284.45,195.9" style="stroke:#181818;stroke-width:1;"/></g><!--link publish_experiment_products_job_id to publish_product_cli_experiment_id--><g class="link" data-entity-1="publish_experiment_products_job_id" data-entity-2="publish_product_cli_experiment_id" data-source-line="201" data-uid="lnk16" id="link_publish_experiment_products_job_id_publish_product_cli_experiment_id"><path d="M1685.37,104.94 C1721.76,104.72 1903.36,104.91 1952,130 C1981.75,145.35 2000.3289,176.6587 2007.5389,190.3787" fill="none" id="publish_experiment_products_job_id-to-publish_product_cli_experiment_id" style="stroke:#181818;stroke-width:1;"/><polygon fill="#181818" points="2010.33,195.69,2009.6842,185.8623,2008.0041,191.2639,2002.6025,189.5838,2010.33,195.69" style="stroke:#181818;stroke-width:1;"/></g><!--link publish_experiment_products_authorization_token to publish_product_cli_authorization_token--><g class="link" data-entity-1="publish_experiment_products_authorization_token" data-entity-2="publish_product_cli_authorization_token" data-source-line="209" data-uid="lnk17" id="link_publish_experiment_products_authorization_token_publish_product_cli_authorization_token"><path d="M453.25,107.21 C464.59,111.09 489.36,119.01 511,122 C540.17,126.03 1013.31,119.99 1041,130 C1079.4,143.89 1109.6657,177.4567 1121.1057,191.2867" fill="none" id="publish_experiment_products_authorization_token-to-publish_product_cli_authorization_token" style="stroke:#181818;stroke-width:1;"/><polygon fill="#181818" points="1124.93,195.91,1122.2757,186.4256,1121.7431,192.0573,1116.1114,191.5246,1124.93,195.91" style="stroke:#181818;stroke-width:1;"/></g><!--link publish_experiment_cli_out to publish_experiment_products_experiment_out--><g class="link" data-entity-1="publish_experiment_cli_out" data-entity-2="publish_experiment_products_experiment_out" data-source-line="225" data-uid="lnk18" id="link_publish_experiment_cli_out_publish_experiment_products_experiment_out"><path d="M990,353.1 C990,368.07 990,404.04 990,418.64" fill="none" id="publish_experiment_cli_out-to-publish_experiment_products_experiment_out" style="stroke:#181818;stroke-width:1;"/><polygon fill="#181818" points="990,424.64,994,415.64,990,419.64,986,415.64,990,424.64" style="stroke:#181818;stroke-width:1;"/></g><!--link publish_product_cli_out to publish_experiment_products_product_out--><g class="link" data-entity-1="publish_product_cli_out" data-entity-2="publish_experiment_products_product_out" data-source-line="230" data-uid="lnk19" id="link_publish_product_cli_out_publish_experiment_products_product_out"><path d="M1095,353.1 C1095,368.07 1095,404.04 1095,418.64" fill="none" id="publish_product_cli_out-to-publish_experiment_products_product_out" style="stroke:#181818;stroke-width:1;"/><polygon fill="#181818" points="1095,424.64,1099,415.64,1095,419.64,1091,415.64,1095,424.64" style="stroke:#181818;stroke-width:1;"/></g><!--link *start* to publish_experiment_products_job_id--><g class="link" data-entity-1=".start." data-entity-2="publish_experiment_products_job_id" data-source-line="235" data-uid="lnk21" id="link_.start._publish_experiment_products_job_id"><path d="M824.01,18 C915.25,27.07 1594.8594,94.6367 1666.9094,101.7967" fill="none" id="*start*-to-publish_experiment_products_job_id" style="stroke:#181818;stroke-width:1;"/><polygon fill="#181818" points="1672.88,102.39,1664.3197,97.5196,1667.9045,101.8956,1663.5286,105.4804,1672.88,102.39" style="stroke:#181818;stroke-width:1;"/></g><!--link *start* to publish_experiment_products_project_id--><g class="link" data-entity-1=".start." data-entity-2="publish_experiment_products_project_id" data-source-line="237" data-uid="lnk22" id="link_.start._publish_experiment_products_project_id"><path d="M823.84,18.18 C860.22,22.75 990.26,40.91 1091,78 C1106.44,83.68 1118.0466,90.3627 1126.7866,95.8427" fill="none" id="*start*-to-publish_experiment_products_project_id" style="stroke:#181818;stroke-width:1;"/><polygon fill="#181818" points="1131.87,99.03,1126.3698,90.8601,1127.6338,96.3739,1122.12,97.638,1131.87,99.03" style="stroke:#181818;stroke-width:1;"/></g><!--link *start* to publish_experiment_products_project_name--><g class="link" data-entity-1=".start." data-entity-2="publish_experiment_products_project_name" data-source-line="239" data-uid="lnk23" id="link_.start._publish_experiment_products_project_name"><path d="M823.34,20.12 C849.21,28.8 923.92,54.19 985,78 C1004.07,85.43 1020.723,92.6725 1031.663,97.5125" fill="none" id="*start*-to-publish_experiment_products_project_name" style="stroke:#181818;stroke-width:1;"/><polygon fill="#181818" points="1037.15,99.94,1030.5378,92.6407,1032.5775,97.9171,1027.3012,99.9567,1037.15,99.94" style="stroke:#181818;stroke-width:1;"/></g><!--link *start* to publish_experiment_products_ogc_api_processes_endpoint--><g class="link" data-entity-1=".start." data-entity-2="publish_experiment_products_ogc_api_processes_endpoint" data-source-line="241" data-uid="lnk24" id="link_.start._publish_experiment_products_ogc_api_processes_endpoint"><path d="M820.67,23.75 C837.11,40.38 875.0734,78.7815 889.6934,93.5815" fill="none" id="*start*-to-publish_experiment_products_ogc_api_processes_endpoint" style="stroke:#181818;stroke-width:1;"/><polygon fill="#181818" points="893.91,97.85,890.4308,88.6362,890.3962,94.2929,884.7394,94.2583,893.91,97.85" style="stroke:#181818;stroke-width:1;"/></g><!--link *start* to publish_experiment_products_osc_location--><g class="link" data-entity-1=".start." data-entity-2="publish_experiment_products_osc_location" data-source-line="243" data-uid="lnk25" id="link_.start._publish_experiment_products_osc_location"><path d="M807.41,23.75 C791.16,40.38 753.6716,78.7569 739.2216,93.5569" fill="none" id="*start*-to-publish_experiment_products_osc_location" style="stroke:#181818;stroke-width:1;"/><polygon fill="#181818" points="735.03,97.85,744.1794,94.2047,738.523,94.2724,738.4553,88.616,735.03,97.85" style="stroke:#181818;stroke-width:1;"/></g><!--link *start* to publish_experiment_products_cwl_workflow_location--><g class="link" data-entity-1=".start." data-entity-2="publish_experiment_products_cwl_workflow_location" data-source-line="245" data-uid="lnk26" id="link_.start._publish_experiment_products_cwl_workflow_location"><path d="M805.11,20.7 C770.13,35.23 648.0513,85.9491 618.6213,98.1691" fill="none" id="*start*-to-publish_experiment_products_cwl_workflow_location" style="stroke:#181818;stroke-width:1;"/><polygon fill="#181818" points="613.08,100.47,622.9259,100.7129,617.6977,98.5526,619.858,93.3245,613.08,100.47" style="stroke:#181818;stroke-width:1;"/></g><!--link *start* to publish_experiment_products_workflow_id--><g class="link" data-entity-1=".start." data-entity-2="publish_experiment_products_workflow_id" data-source-line="247" data-uid="lnk27" id="link_.start._publish_experiment_products_workflow_id"><path d="M803.78,16.92 C753.81,16.83 530.65,19.84 361,78 C346.62,82.93 336.5474,89.3779 328.6174,95.1279" fill="none" id="*start*-to-publish_experiment_products_workflow_id" style="stroke:#181818;stroke-width:1;"/><polygon fill="#181818" points="323.76,98.65,333.3942,96.6051,327.8079,95.7149,328.6981,90.1285,323.76,98.65" style="stroke:#181818;stroke-width:1;"/></g><!--link *start* to publish_experiment_products_authorization_token--><g class="link" data-entity-1=".start." data-entity-2="publish_experiment_products_authorization_token" data-source-line="249" data-uid="lnk28" id="link_.start._publish_experiment_products_authorization_token"><path d="M804.17,18.34 C765.98,23.69 624.01,44.82 511,78 C489.25,84.38 470.0024,92.5998 458.7024,97.6798" fill="none" id="*start*-to-publish_experiment_products_authorization_token" style="stroke:#181818;stroke-width:1;"/><polygon fill="#181818" points="453.23,100.14,463.0788,100.098,457.7904,98.0899,459.7985,92.8014,453.23,100.14" style="stroke:#181818;stroke-width:1;"/></g><!--link publish_experiment_products_experiment_out to *end*--><g class="link" data-entity-1="publish_experiment_products_experiment_out" data-entity-2=".end." data-source-line="253" data-uid="lnk30" id="link_publish_experiment_products_experiment_out_.end."><path d="M993.1,436.9 C1001.71,451.31 1022.951,486.8502 1033.701,504.8302" fill="none" id="publish_experiment_products_experiment_out-to-*end*" style="stroke:#181818;stroke-width:1;"/><polygon fill="#181818" points="1036.78,509.98,1035.5947,500.2027,1034.2142,505.6885,1028.7284,504.308,1036.78,509.98" style="stroke:#181818;stroke-width:1;"/></g><!--link publish_experiment_products_product_out to *end*--><g class="link" data-entity-1="publish_experiment_products_product_out" data-entity-2=".end." data-source-line="255" data-uid="lnk31" id="link_publish_experiment_products_product_out_.end."><path d="M1091.84,436.9 C1083.06,451.31 1061.4029,486.8768 1050.4429,504.8568" fill="none" id="publish_experiment_products_product_out-to-*end*" style="stroke:#181818;stroke-width:1;"/><polygon fill="#181818" points="1047.32,509.98,1055.4199,504.3771,1049.9224,505.7107,1048.5889,500.2132,1047.32,509.98" style="stroke:#181818;stroke-width:1;"/></g><!--SRC=[xLTTRzf047pthpZb9L8bYA4DhL34Ktz07_fMLPQnBt29lsIVIsZL_rwVWs0DTtlhoaVTgXP20dPsncDxTxYxzTWj-oZ2JHccRCCpNeQInsozPz4kcHTrch1l_lJTswcl2gL8UIN3j5YokJzVJFpxoMp-URPO-X-Mz- -diyMigRhplAs8EUDf8VSivbLKYaAAFFFQey5BpcwAUfs8QXlmbuANJTjC1aMPntKagniMLWpvdVtmM7EqRuTkJ_aw4B4D6BoMiOU7vjjo_oaNcLojBfervKyyafI6fr9gqonCERcjAhOrpZTH41P2OI9ULRmAU1ONgjXAOuPQIQieIF8eL9VLJWEAROsRkoxOvUNpOvBlw0nQb8tg221SPr1hQnlMSfkNudkh8P3vCxVhrs2qD9vwdHtcB_wvNu3D6ZUZH1mcGmT5cX0D5XaEgDtc4o1CeibaXSknqvdvoUDCqU6Jp843W11nuLGre1FO38Qafl7hq8sMak27gXl0aVxBGudejpSSk8K8GBmpeuPmah0HMn6MPUZ2BKY9-GFg1d2arofN_EGjxi0ZFJTYbXOmW6k4LABeBO74WKEG4V45b0tWHeymfSY9ESg1Epfcn2LD-U-uPPv6DJx0wtPIlmXvRijhov_TnlypPoTp7Yvw_y09W7yyRLvgSHSr8TTOSgPUaykGgMCSGy8qwRfUl8GA_fPiITFiCbXs58meLPfqNILIGl9nvqchqW7y0igGaTof6iT6waYwGew4tECDaHQLJXDavwdk6HzF7o_lIoIf7dtfbXkeZnn8vZKaSWCHOjjfrxUcK4u2r5BFuDnpctn0WMW7L-VBcw_MfcVXa8JH1AfUk4xy8249AvZMHxUmI4XyXfDQwFuxau3OC01FNuzdJ34sp3GilBKFm5y0]--></g></svg>