<svg xmlns="http://www.w3.org/2000/svg" xmlns:xlink="http://www.w3.org/1999/xlink" contentStyleType="text/css" data-diagram-type="STATE" height="765px" preserveAspectRatio="none" style="width:2042px;height:765px;background:#FFFFFF;" version="1.1" viewBox="0 0 2042 765" width="2042px" zoomAndPan="magnify"><defs/><g><!--cluster publish_experiment_products--><g class="cluster" data-entity="publish_experiment_products" data-source-line="12" data-uid="ent0002" id="cluster_publish_experiment_products"><path d="M160.25,105 L2016.25,105 A12.5,12.5 0 0 1 2028.75,117.5 L2028.75,126.2969 L147.75,126.2969 L147.75,117.5 A12.5,12.5 0 0 1 160.25,105" fill="#F1F1F1"/><rect fill="none" height="553.36" rx="12.5" ry="12.5" style="stroke:#181818;stroke-width:0.5;" width="1881" x="147.75" y="105"/><line style="stroke:#181818;stroke-width:0.5;" x1="147.75" x2="2028.75" y1="126.2969" y2="126.2969"/><text fill="#000000" font-family="sans-serif" font-size="14" lengthAdjust="spacing" textLength="206.6982" x="984.9009" y="122.9951">publish_experiment_products</text></g><!--cluster sync_git_repository--><g class="cluster" data-entity="sync_git_repository" data-source-line="35" data-uid="ent0010" id="cluster_sync_git_repository"><path d="M533.25,189 L692.25,189 A12.5,12.5 0 0 1 704.75,201.5 L704.75,210.2969 L520.75,210.2969 L520.75,201.5 A12.5,12.5 0 0 1 533.25,189" fill="#F1F1F1"/><rect fill="none" height="114.36" rx="12.5" ry="12.5" style="stroke:#181818;stroke-width:0.5;" width="184" x="520.75" y="189"/><line style="stroke:#181818;stroke-width:0.5;" x1="520.75" x2="704.75" y1="210.2969" y2="210.2969"/><text fill="#000000" font-family="sans-serif" font-size="14" lengthAdjust="spacing" textLength="135.5156" x="544.9922" y="206.9951">sync_git_repository</text></g><!--cluster publish_product--><g class="cluster" data-entity="publish_product" data-source-line="65" data-uid="ent0012" id="cluster_publish_product"><path d="M471.25,453.36 L1182.25,453.36 A12.5,12.5 0 0 1 1194.75,465.86 L1194.75,474.6569 L458.75,474.6569 L458.75,465.86 A12.5,12.5 0 0 1 471.25,453.36" fill="#F1F1F1"/><rect fill="none" height="120" rx="12.5" ry="12.5" style="stroke:#181818;stroke-width:0.5;" width="736" x="458.75" y="453.36"/><line style="stroke:#181818;stroke-width:0.5;" x1="458.75" x2="1194.75" y1="474.6569" y2="474.6569"/><text fill="#000000" font-family="sans-serif" font-size="14" lengthAdjust="spacing" textLength="111.7471" x="770.8765" y="471.3551">publish_product</text></g><!--cluster publish_experiment--><g class="cluster" data-entity="publish_experiment" data-source-line="159" data-uid="ent0022" id="cluster_publish_experiment"><path d="M1269.25,453.36 L1963.25,453.36 A12.5,12.5 0 0 1 1975.75,465.86 L1975.75,474.6569 L1256.75,474.6569 L1256.75,465.86 A12.5,12.5 0 0 1 1269.25,453.36" fill="#F1F1F1"/><rect fill="none" height="120" rx="12.5" ry="12.5" style="stroke:#181818;stroke-width:0.5;" width="719" x="1256.75" y="453.36"/><line style="stroke:#181818;stroke-width:0.5;" x1="1256.75" x2="1975.75" y1="474.6569" y2="474.6569"/><text fill="#000000" font-family="sans-serif" font-size="14" lengthAdjust="spacing" textLength="138.25" x="1547.125" y="471.3551">publish_experiment</text></g><!--cluster commit_and_push--><g class="cluster" data-entity="commit_and_push" data-source-line="250" data-uid="ent0033" id="cluster_commit_and_push"><path d="M224.25,382.36 L358.75,382.36 A12.5,12.5 0 0 1 371.25,394.86 L371.25,403.6569 L211.75,403.6569 L211.75,394.86 A12.5,12.5 0 0 1 224.25,382.36" fill="#F1F1F1"/><rect fill="none" height="137" rx="12.5" ry="12.5" style="stroke:#181818;stroke-width:0.5;" width="159.5" x="211.75" y="382.36"/><line style="stroke:#181818;stroke-width:0.5;" x1="211.75" x2="371.25" y1="403.6569" y2="403.6569"/><text fill="#000000" font-family="sans-serif" font-size="14" lengthAdjust="spacing" textLength="127.1826" x="227.9087" y="400.3551">commit_and_push</text></g><text fill="#000000" font-family="sans-serif" font-size="14" lengthAdjust="spacing" textLength="41.1182" x="145.1909" y="83.6982">job_id</text><ellipse cx="165.75" cy="105" fill="#F1F1F1" rx="6" ry="6" style="stroke:#181818;stroke-width:1.5;"/><text fill="#000000" font-family="sans-serif" font-size="14" lengthAdjust="spacing" textLength="68.6738" x="239.4131" y="83.6982">project_id</text><ellipse cx="273.75" cy="105" fill="#F1F1F1" rx="6" ry="6" style="stroke:#181818;stroke-width:1.5;"/><text fill="#000000" font-family="sans-serif" font-size="14" lengthAdjust="spacing" textLength="95.6006" x="585.4497" y="83.6982">project_name</text><ellipse cx="633.25" cy="105" fill="#F1F1F1" rx="6" ry="6" style="stroke:#181818;stroke-width:1.5;"/><text fill="#000000" font-family="sans-serif" font-size="14" lengthAdjust="spacing" textLength="199.5957" x="798.4521" y="83.6982">ogc_api_processes_endpoint</text><ellipse cx="898.25" cy="105" fill="#F1F1F1" rx="6" ry="6" style="stroke:#181818;stroke-width:1.5;"/><text fill="#000000" font-family="sans-serif" font-size="14" lengthAdjust="spacing" textLength="155.2988" x="1003.1006" y="83.6982">cwl_workflow_location</text><ellipse cx="1080.75" cy="105" fill="#F1F1F1" rx="6" ry="6" style="stroke:#181818;stroke-width:1.5;"/><text fill="#000000" font-family="sans-serif" font-size="14" lengthAdjust="spacing" textLength="82.4893" x="690.0054" y="83.6982">workflow_id</text><ellipse cx="731.25" cy="105" fill="#F1F1F1" rx="6" ry="6" style="stroke:#181818;stroke-width:1.5;"/><text fill="#000000" font-family="sans-serif" font-size="14" lengthAdjust="spacing" textLength="139.4189" x="1167.0405" y="83.6982">authorization_token</text><ellipse cx="1236.75" cy="105" fill="#F1F1F1" rx="6" ry="6" style="stroke:#181818;stroke-width:1.5;"/><g class="entity" data-entity="commit_and_push_commit_message_choice" data-uid="ent0032" id="entity_commit_and_push_commit_message_choice"><polygon fill="#F1F1F1" points="353.75,231.36,365.75,243.36,353.75,255.36,341.75,243.36,353.75,231.36" style="stroke:#181818;stroke-width:0.5;"/></g><text fill="#000000" font-family="sans-serif" font-size="14" lengthAdjust="spacing" textLength="166.5918" x="1220.4541" y="677.3551">publish_experiment_log</text><ellipse cx="1303.75" cy="658.36" fill="#F1F1F1" rx="6" ry="6" style="stroke:#181818;stroke-width:1.5;"/><line style="stroke:#181818;stroke-width:1.5;" x1="1308.1391" x2="1300.3609" y1="662.7491" y2="654.9709"/><line style="stroke:#181818;stroke-width:1.5;" x1="1308.1391" x2="1300.3609" y1="654.9709" y2="662.7491"/><text fill="#000000" font-family="sans-serif" font-size="14" lengthAdjust="spacing" textLength="140.0889" x="1096.7056" y="677.3551">publish_product_log</text><ellipse cx="1166.75" cy="658.36" fill="#F1F1F1" rx="6" ry="6" style="stroke:#181818;stroke-width:1.5;"/><line style="stroke:#181818;stroke-width:1.5;" x1="1171.1391" x2="1163.3609" y1="662.7491" y2="654.9709"/><line style="stroke:#181818;stroke-width:1.5;" x1="1171.1391" x2="1163.3609" y1="654.9709" y2="662.7491"/><text fill="#000000" font-family="sans-serif" font-size="14" lengthAdjust="spacing" textLength="133.8545" x="619.8228" y="322.3551">checkout_directory</text><ellipse cx="686.75" cy="303.36" fill="#F1F1F1" rx="6" ry="6" style="stroke:#181818;stroke-width:1.5;"/><line style="stroke:#181818;stroke-width:1.5;" x1="691.1391" x2="683.3609" y1="307.7491" y2="299.9709"/><line style="stroke:#181818;stroke-width:1.5;" x1="691.1391" x2="683.3609" y1="299.9709" y2="307.7491"/><text fill="#000000" font-family="sans-serif" font-size="14" lengthAdjust="spacing" textLength="41.1182" x="456.1909" y="432.0582">job_id</text><ellipse cx="476.75" cy="453.36" fill="#F1F1F1" rx="6" ry="6" style="stroke:#181818;stroke-width:1.5;"/><text fill="#000000" font-family="sans-serif" font-size="14" lengthAdjust="spacing" textLength="68.6738" x="584.4131" y="432.0582">project_id</text><ellipse cx="618.75" cy="453.36" fill="#F1F1F1" rx="6" ry="6" style="stroke:#181818;stroke-width:1.5;"/><text fill="#000000" font-family="sans-serif" font-size="14" lengthAdjust="spacing" textLength="95.6006" x="709.4497" y="432.0582">project_name</text><ellipse cx="757.25" cy="453.36" fill="#F1F1F1" rx="6" ry="6" style="stroke:#181818;stroke-width:1.5;"/><text fill="#000000" font-family="sans-serif" font-size="14" lengthAdjust="spacing" textLength="199.5957" x="798.4521" y="432.0582">ogc_api_processes_endpoint</text><ellipse cx="898.25" cy="453.36" fill="#F1F1F1" rx="6" ry="6" style="stroke:#181818;stroke-width:1.5;"/><text fill="#000000" font-family="sans-serif" font-size="14" lengthAdjust="spacing" textLength="86.1055" x="640.6973" y="432.0582">osc_location</text><ellipse cx="683.75" cy="453.36" fill="#F1F1F1" rx="6" ry="6" style="stroke:#181818;stroke-width:1.5;"/><text fill="#000000" font-family="sans-serif" font-size="14" lengthAdjust="spacing" textLength="155.2988" x="973.1006" y="432.0582">cwl_workflow_location</text><ellipse cx="1050.75" cy="453.36" fill="#F1F1F1" rx="6" ry="6" style="stroke:#181818;stroke-width:1.5;"/><text fill="#000000" font-family="sans-serif" font-size="14" lengthAdjust="spacing" textLength="100.4336" x="502.5332" y="432.0582">experiment_id</text><ellipse cx="552.75" cy="453.36" fill="#F1F1F1" rx="6" ry="6" style="stroke:#181818;stroke-width:1.5;"/><text fill="#000000" font-family="sans-serif" font-size="14" lengthAdjust="spacing" textLength="139.4189" x="1107.0405" y="432.0582">authorization_token</text><ellipse cx="1176.75" cy="453.36" fill="#F1F1F1" rx="6" ry="6" style="stroke:#181818;stroke-width:1.5;"/><text fill="#000000" font-family="sans-serif" font-size="14" lengthAdjust="spacing" textLength="21.3418" x="1156.0791" y="592.3551">log</text><ellipse cx="1166.75" cy="573.36" fill="#F1F1F1" rx="6" ry="6" style="stroke:#181818;stroke-width:1.5;"/><line style="stroke:#181818;stroke-width:1.5;" x1="1171.1391" x2="1163.3609" y1="577.7491" y2="569.9709"/><line style="stroke:#181818;stroke-width:1.5;" x1="1171.1391" x2="1163.3609" y1="569.9709" y2="577.7491"/><text fill="#000000" font-family="sans-serif" font-size="14" lengthAdjust="spacing" textLength="41.1182" x="1254.1909" y="432.0582">job_id</text><ellipse cx="1274.75" cy="453.36" fill="#F1F1F1" rx="6" ry="6" style="stroke:#181818;stroke-width:1.5;"/><text fill="#000000" font-family="sans-serif" font-size="14" lengthAdjust="spacing" textLength="68.6738" x="1301.4131" y="432.0582">project_id</text><ellipse cx="1335.75" cy="453.36" fill="#F1F1F1" rx="6" ry="6" style="stroke:#181818;stroke-width:1.5;"/><text fill="#000000" font-family="sans-serif" font-size="14" lengthAdjust="spacing" textLength="95.6006" x="1426.4497" y="432.0582">project_name</text><ellipse cx="1474.25" cy="453.36" fill="#F1F1F1" rx="6" ry="6" style="stroke:#181818;stroke-width:1.5;"/><text fill="#000000" font-family="sans-serif" font-size="14" lengthAdjust="spacing" textLength="199.5957" x="1579.4521" y="432.0582">ogc_api_processes_endpoint</text><ellipse cx="1679.25" cy="453.36" fill="#F1F1F1" rx="6" ry="6" style="stroke:#181818;stroke-width:1.5;"/><text fill="#000000" font-family="sans-serif" font-size="14" lengthAdjust="spacing" textLength="86.1055" x="1357.6973" y="432.0582">osc_location</text><ellipse cx="1400.75" cy="453.36" fill="#F1F1F1" rx="6" ry="6" style="stroke:#181818;stroke-width:1.5;"/><text fill="#000000" font-family="sans-serif" font-size="14" lengthAdjust="spacing" textLength="155.2988" x="1754.1006" y="432.0582">cwl_workflow_location</text><ellipse cx="1831.75" cy="453.36" fill="#F1F1F1" rx="6" ry="6" style="stroke:#181818;stroke-width:1.5;"/><text fill="#000000" font-family="sans-serif" font-size="14" lengthAdjust="spacing" textLength="82.4893" x="1501.0054" y="432.0582">workflow_id</text><ellipse cx="1542.25" cy="453.36" fill="#F1F1F1" rx="6" ry="6" style="stroke:#181818;stroke-width:1.5;"/><text fill="#000000" font-family="sans-serif" font-size="14" lengthAdjust="spacing" textLength="139.4189" x="1888.0405" y="432.0582">authorization_token</text><ellipse cx="1957.75" cy="453.36" fill="#F1F1F1" rx="6" ry="6" style="stroke:#181818;stroke-width:1.5;"/><text fill="#000000" font-family="sans-serif" font-size="14" lengthAdjust="spacing" textLength="21.3418" x="1293.0791" y="592.3551">log</text><ellipse cx="1303.75" cy="573.36" fill="#F1F1F1" rx="6" ry="6" style="stroke:#181818;stroke-width:1.5;"/><line style="stroke:#181818;stroke-width:1.5;" x1="1308.1391" x2="1300.3609" y1="577.7491" y2="569.9709"/><line style="stroke:#181818;stroke-width:1.5;" x1="1308.1391" x2="1300.3609" y1="569.9709" y2="577.7491"/><text fill="#000000" font-family="sans-serif" font-size="14" lengthAdjust="spacing" textLength="122.835" x="291.8325" y="361.0582">commit_message</text><ellipse cx="353.25" cy="382.36" fill="#F1F1F1" rx="6" ry="6" style="stroke:#181818;stroke-width:1.5;"/><text fill="#000000" font-family="sans-serif" font-size="14" lengthAdjust="spacing" textLength="117.2432" x="270.1284" y="538.3551">changes_pushed</text><ellipse cx="328.75" cy="519.36" fill="#F1F1F1" rx="6" ry="6" style="stroke:#181818;stroke-width:1.5;"/><line style="stroke:#181818;stroke-width:1.5;" x1="333.1391" x2="325.3609" y1="523.7491" y2="515.9709"/><line style="stroke:#181818;stroke-width:1.5;" x1="333.1391" x2="325.3609" y1="515.9709" y2="523.7491"/><ellipse cx="731.75" cy="16" fill="#222222" rx="10" ry="10" style="stroke:#222222;stroke-width:1;"/><ellipse cx="1234.75" cy="748.36" fill="none" rx="11" ry="11" style="stroke:#222222;stroke-width:1;"/><ellipse cx="1234.75" cy="748.36" fill="#222222" rx="6" ry="6" style="stroke:#222222;stroke-width:1;"/><!--link publish_experiment_products_job_id to publish_product_job_id--><g class="link" data-entity-1="publish_experiment_products_job_id" data-entity-2="publish_product_job_id" data-source-line="71" data-uid="lnk2" id="link_publish_experiment_products_job_id_publish_product_job_id"><path d="M159.46,107.31 C143.21,111.05 99.93,123.53 82.75,153 C27.39,247.98 6,321.65 82.75,400.36 C95.13,413.05 384.71,403.5 401.75,408.36 C429.92,416.39 453.7893,433.7662 465.9593,443.5262" fill="none" id="publish_experiment_products_job_id-to-publish_product_job_id" style="stroke:#181818;stroke-width:1;"/><polygon fill="#181818" points="470.64,447.28,466.1215,438.5288,466.7394,444.1518,461.1164,444.7698,470.64,447.28" style="stroke:#181818;stroke-width:1;"/></g><!--link publish_experiment_products_project_id to publish_product_project_id--><g class="link" data-entity-1="publish_experiment_products_project_id" data-entity-2="publish_product_project_id" data-source-line="79" data-uid="lnk3" id="link_publish_experiment_products_project_id_publish_product_project_id"><path d="M267.67,107.81 C252.7,112.58 213.8,126.96 193.75,153 C125.94,241.08 78.89,321.03 156.75,400.36 C173.45,417.37 564.53,397.5 585.75,408.36 C602.25,416.8 610.3396,432.1995 614.4396,441.8295" fill="none" id="publish_experiment_products_project_id-to-publish_product_project_id" style="stroke:#181818;stroke-width:1;"/><polygon fill="#181818" points="616.79,447.35,616.9448,437.5024,614.8314,442.7496,609.5841,440.6362,616.79,447.35" style="stroke:#181818;stroke-width:1;"/></g><!--link publish_experiment_products_project_name to publish_product_project_name--><g class="link" data-entity-1="publish_experiment_products_project_name" data-entity-2="publish_product_project_name" data-source-line="87" data-uid="lnk4" id="link_publish_experiment_products_project_name_publish_product_project_name"><path d="M639.46,108.31 C654.26,114.58 694.15,133.44 714.75,162 C783.62,257.47 764.1313,411.1296 759.4813,441.3896" fill="none" id="publish_experiment_products_project_name-to-publish_product_project_name" style="stroke:#181818;stroke-width:1;"/><polygon fill="#181818" points="758.57,447.32,763.8906,439.032,759.3294,442.378,755.9834,437.8169,758.57,447.32" style="stroke:#181818;stroke-width:1;"/></g><!--link publish_experiment_products_ogc_api_processes_endpoint to publish_product_ogc_api_processes_endpoint--><g class="link" data-entity-1="publish_experiment_products_ogc_api_processes_endpoint" data-entity-2="publish_product_ogc_api_processes_endpoint" data-source-line="95" data-uid="lnk5" id="link_publish_experiment_products_ogc_api_processes_endpoint_publish_product_ogc_api_processes_endpoint"><path d="M898.75,111.16 C898.75,150.88 898.75,401.34 898.75,441.17" fill="none" id="publish_experiment_products_ogc_api_processes_endpoint-to-publish_product_ogc_api_processes_endpoint" style="stroke:#181818;stroke-width:1;"/><polygon fill="#181818" points="898.75,447.17,902.75,438.17,898.75,442.17,894.75,438.17,898.75,447.17" style="stroke:#181818;stroke-width:1;"/></g><!--link sync_git_repository_checkout_directory to publish_product_osc_location--><g class="link" data-entity-1="sync_git_repository_checkout_directory" data-entity-2="publish_product_osc_location" data-source-line="103" data-uid="lnk6" id="link_sync_git_repository_checkout_directory_publish_product_osc_location"><path d="M686.65,309.63 C686.18,332.7 684.4419,418.6712 683.9819,441.3112" fill="none" id="sync_git_repository_checkout_directory-to-publish_product_osc_location" style="stroke:#181818;stroke-width:1;"/><polygon fill="#181818" points="683.86,447.31,688.042,438.3931,683.9616,442.311,680.0436,438.2306,683.86,447.31" style="stroke:#181818;stroke-width:1;"/></g><!--link publish_experiment_products_cwl_workflow_location to publish_product_cwl_workflow_location--><g class="link" data-entity-1="publish_experiment_products_cwl_workflow_location" data-entity-2="publish_product_cwl_workflow_location" data-source-line="111" data-uid="lnk7" id="link_publish_experiment_products_cwl_workflow_location_publish_product_cwl_workflow_location"><path d="M1080.31,111.16 C1076.87,150.88 1055.1678,401.3624 1051.7178,441.1924" fill="none" id="publish_experiment_products_cwl_workflow_location-to-publish_product_cwl_workflow_location" style="stroke:#181818;stroke-width:1;"/><polygon fill="#181818" points="1051.2,447.17,1055.9617,438.5488,1051.6315,442.1887,1047.9916,437.8584,1051.2,447.17" style="stroke:#181818;stroke-width:1;"/></g><!--link publish_experiment_products_job_id to publish_product_experiment_id--><g class="link" data-entity-1="publish_experiment_products_job_id" data-entity-2="publish_product_experiment_id" data-source-line="119" data-uid="lnk8" id="link_publish_experiment_products_job_id_publish_product_experiment_id"><path d="M159.94,111.2 C150.13,120.36 130.49,140.46 121.75,162 C81.89,260.23 36.46,326.75 112.75,400.36 C128.43,415.48 484.54,400.26 504.75,408.36 C525.11,416.52 538.6507,432.7278 545.7207,442.4478" fill="none" id="publish_experiment_products_job_id-to-publish_product_experiment_id" style="stroke:#181818;stroke-width:1;"/><polygon fill="#181818" points="549.25,447.3,547.1908,437.6688,546.3089,443.2565,540.7212,442.3746,549.25,447.3" style="stroke:#181818;stroke-width:1;"/></g><!--link publish_experiment_products_authorization_token to publish_product_authorization_token--><g class="link" data-entity-1="publish_experiment_products_authorization_token" data-entity-2="publish_product_authorization_token" data-source-line="127" data-uid="lnk9" id="link_publish_experiment_products_authorization_token_publish_product_authorization_token"><path d="M1235.86,111.16 C1228.98,150.88 1185.5742,401.4281 1178.6742,441.2581" fill="none" id="publish_experiment_products_authorization_token-to-publish_product_authorization_token" style="stroke:#181818;stroke-width:1;"/><polygon fill="#181818" points="1177.65,447.17,1183.1275,438.9849,1178.5035,442.2434,1175.2449,437.6193,1177.65,447.17" style="stroke:#181818;stroke-width:1;"/></g><!--link publish_experiment_products_job_id to publish_experiment_job_id--><g class="link" data-entity-1="publish_experiment_products_job_id" data-entity-2="publish_experiment_job_id" data-source-line="165" data-uid="lnk10" id="link_publish_experiment_products_job_id_publish_experiment_job_id"><path d="M165.09,111.23 C160.64,147.29 136.59,358.89 179.75,400.36 C190.37,410.56 1226.52,401.91 1239.75,408.36 C1256.78,416.65 1265.5775,432.196 1270.0675,441.886" fill="none" id="publish_experiment_products_job_id-to-publish_experiment_job_id" style="stroke:#181818;stroke-width:1;"/><polygon fill="#181818" points="1272.59,447.33,1272.4355,437.4824,1270.4879,442.7934,1265.1769,440.8457,1272.59,447.33" style="stroke:#181818;stroke-width:1;"/></g><!--link publish_experiment_products_project_id to publish_experiment_project_id--><g class="link" data-entity-1="publish_experiment_products_project_id" data-entity-2="publish_experiment_project_id" data-source-line="173" data-uid="lnk11" id="link_publish_experiment_products_project_id_publish_experiment_project_id"><path d="M267.47,108.95 C253.56,115.89 220.38,134.73 207.75,162 C185.5,210.07 170.44,362.77 207.75,400.36 C218.47,411.15 1289.18,401.51 1302.75,408.36 C1319.29,416.7 1327.3876,432.1419 1331.4676,441.8119" fill="none" id="publish_experiment_products_project_id-to-publish_experiment_project_id" style="stroke:#181818;stroke-width:1;"/><polygon fill="#181818" points="1333.8,447.34,1333.9867,437.4929,1331.8563,442.7333,1326.616,440.6028,1333.8,447.34" style="stroke:#181818;stroke-width:1;"/></g><!--link publish_experiment_products_project_name to publish_experiment_project_name--><g class="link" data-entity-1="publish_experiment_products_project_name" data-entity-2="publish_experiment_project_name" data-source-line="181" data-uid="lnk12" id="link_publish_experiment_products_project_name_publish_experiment_project_name"><path d="M639.34,108.07 C648.27,111.35 666.31,117.9 681.75,123 C915.28,200.15 984.69,188.51 1210.75,285.36 C1313.37,329.32 1340.41,341.43 1429.75,408.36 C1446.19,420.68 1458.7932,434.1284 1466.4332,442.7984" fill="none" id="publish_experiment_products_project_name-to-publish_experiment_project_name" style="stroke:#181818;stroke-width:1;"/><polygon fill="#181818" points="1470.4,447.3,1467.4509,437.9031,1467.0943,443.5487,1461.4487,443.1921,1470.4,447.3" style="stroke:#181818;stroke-width:1;"/></g><!--link publish_experiment_products_ogc_api_processes_endpoint to publish_experiment_ogc_api_processes_endpoint--><g class="link" data-entity-1="publish_experiment_products_ogc_api_processes_endpoint" data-entity-2="publish_experiment_ogc_api_processes_endpoint" data-source-line="189" data-uid="lnk13" id="link_publish_experiment_products_ogc_api_processes_endpoint_publish_experiment_ogc_api_processes_endpoint"><path d="M904.55,107.43 C918.34,110.77 954.26,119.1 984.75,123 C1040.84,130.17 1444.13,124.14 1492.75,153 C1615.53,225.88 1668.1922,408.2778 1676.9422,441.5078" fill="none" id="publish_experiment_products_ogc_api_processes_endpoint-to-publish_experiment_ogc_api_processes_endpoint" style="stroke:#181818;stroke-width:1;"/><polygon fill="#181818" points="1678.47,447.31,1680.0464,437.5881,1677.1968,442.4748,1672.3101,439.6252,1678.47,447.31" style="stroke:#181818;stroke-width:1;"/></g><!--link sync_git_repository_checkout_directory to publish_experiment_osc_location--><g class="link" data-entity-1="sync_git_repository_checkout_directory" data-entity-2="publish_experiment_osc_location" data-source-line="197" data-uid="lnk14" id="link_sync_git_repository_checkout_directory_publish_experiment_osc_location"><path d="M688.14,309.86 C692.97,328.59 709.71,389.41 725.75,400.36 C754.94,420.28 1329.62,393.66 1361.75,408.36 C1379.76,416.6 1389.9931,432.3547 1395.2931,442.0547" fill="none" id="sync_git_repository_checkout_directory-to-publish_experiment_osc_location" style="stroke:#181818;stroke-width:1;"/><polygon fill="#181818" points="1398.17,447.32,1397.3648,437.5041,1395.7726,442.9323,1390.3444,441.34,1398.17,447.32" style="stroke:#181818;stroke-width:1;"/></g><!--link publish_experiment_products_cwl_workflow_location to publish_experiment_cwl_workflow_location--><g class="link" data-entity-1="publish_experiment_products_cwl_workflow_location" data-entity-2="publish_experiment_cwl_workflow_location" data-source-line="205" data-uid="lnk15" id="link_publish_experiment_products_cwl_workflow_location_publish_experiment_cwl_workflow_location"><path d="M1086.86,107.87 C1098.93,111.49 1126.76,119.4 1150.75,123 C1206.01,131.29 1605,123.99 1652.75,153 C1713.31,189.78 1810.2853,403.9562 1826.9253,441.4362" fill="none" id="publish_experiment_products_cwl_workflow_location-to-publish_experiment_cwl_workflow_location" style="stroke:#181818;stroke-width:1;"/><polygon fill="#181818" points="1829.36,446.92,1829.3639,437.0711,1827.3311,442.3501,1822.0521,440.3174,1829.36,446.92" style="stroke:#181818;stroke-width:1;"/></g><!--link publish_experiment_products_workflow_id to publish_experiment_workflow_id--><g class="link" data-entity-1="publish_experiment_products_workflow_id" data-entity-2="publish_experiment_workflow_id" data-source-line="213" data-uid="lnk16" id="link_publish_experiment_products_workflow_id_publish_experiment_workflow_id"><path d="M737.41,108.92 C745.46,112.91 760.8,119.93 774.75,123 C891.06,148.55 1204.28,97.73 1309.75,153 C1445.67,224.23 1524.9396,408.218 1538.4896,441.708" fill="none" id="publish_experiment_products_workflow_id-to-publish_experiment_workflow_id" style="stroke:#181818;stroke-width:1;"/><polygon fill="#181818" points="1540.74,447.27,1541.0724,437.4268,1538.8647,442.635,1533.6564,440.4273,1540.74,447.27" style="stroke:#181818;stroke-width:1;"/></g><!--link publish_experiment_products_authorization_token to publish_experiment_authorization_token--><g class="link" data-entity-1="publish_experiment_products_authorization_token" data-entity-2="publish_experiment_authorization_token" data-source-line="221" data-uid="lnk17" id="link_publish_experiment_products_authorization_token_publish_experiment_authorization_token"><path d="M1242.85,105.89 C1293.86,105.08 1650.1,101.3 1740.75,153 C1870.68,227.09 1941.7967,408.6659 1953.8967,441.7059" fill="none" id="publish_experiment_products_authorization_token-to-publish_experiment_authorization_token" style="stroke:#181818;stroke-width:1;"/><polygon fill="#181818" points="1955.96,447.34,1956.6211,437.5134,1954.2406,442.6449,1949.109,440.2645,1955.96,447.34" style="stroke:#181818;stroke-width:1;"/></g><!--link publish_experiment_products_job_id to commit_and_push_commit_message_choice--><g class="link" data-entity-1="publish_experiment_products_job_id" data-entity-2="commit_and_push_commit_message_choice" data-source-line="239" data-uid="lnk18" id="link_publish_experiment_products_job_id_commit_and_push_commit_message_choice"><path d="M172.04,107.85 C202.32,116.8 331.86,155.37 337.75,162 C355.42,181.89 356.193,209.6122 355.123,226.3422" fill="none" id="publish_experiment_products_job_id-to-commit_and_push_commit_message_choice" style="stroke:#181818;stroke-width:1;"/><polygon fill="#181818" points="354.74,232.33,359.3063,223.6037,355.0591,227.3402,351.3226,223.093,354.74,232.33" style="stroke:#181818;stroke-width:1;"/></g><!--link publish_experiment_products_workflow_id to commit_and_push_commit_message_choice--><g class="link" data-entity-1="publish_experiment_products_workflow_id" data-entity-2="commit_and_push_commit_message_choice" data-source-line="241" data-uid="lnk19" id="link_publish_experiment_products_workflow_id_commit_and_push_commit_message_choice"><path d="M725.18,108.28 C715.49,111.61 696.79,117.98 680.75,123 C621.97,141.41 605.85,141.52 547.75,162 C473.83,188.06 392.6971,224.5359 366.8571,236.3459" fill="none" id="publish_experiment_products_workflow_id-to-commit_and_push_commit_message_choice" style="stroke:#181818;stroke-width:1;"/><polygon fill="#181818" points="361.4,238.84,371.2483,238.7369,365.9475,236.7616,367.9228,231.4608,361.4,238.84" style="stroke:#181818;stroke-width:1;"/></g><!--link publish_experiment_products_project_name to commit_and_push_commit_message_choice--><g class="link" data-entity-1="publish_experiment_products_project_name" data-entity-2="commit_and_push_commit_message_choice" data-source-line="243" data-uid="lnk20" id="link_publish_experiment_products_project_name_commit_and_push_commit_message_choice"><path d="M627.11,109.24 C589.26,127.67 406.5946,216.6336 366.6246,236.0936" fill="none" id="publish_experiment_products_project_name-to-commit_and_push_commit_message_choice" style="stroke:#181818;stroke-width:1;"/><polygon fill="#181818" points="361.23,238.72,371.0729,238.3767,365.7255,236.5313,367.5709,231.1839,361.23,238.72" style="stroke:#181818;stroke-width:1;"/></g><!--link publish_experiment_products_project_id to commit_and_push_commit_message_choice--><g class="link" data-entity-1="publish_experiment_products_project_id" data-entity-2="commit_and_push_commit_message_choice" data-source-line="245" data-uid="lnk21" id="link_publish_experiment_products_project_id_commit_and_push_commit_message_choice"><path d="M279.87,109.42 C292.84,117.03 323.12,136.69 337.75,162 C350.57,184.17 353.107,208.8925 353.577,225.1825" fill="none" id="publish_experiment_products_project_id-to-commit_and_push_commit_message_choice" style="stroke:#181818;stroke-width:1;"/><polygon fill="#181818" points="353.75,231.18,357.4888,222.0684,353.6058,226.1821,349.4921,222.2991,353.75,231.18" style="stroke:#181818;stroke-width:1;"/></g><!--link commit_and_push_commit_message_choice to commit_and_push_commit_message--><g class="link" data-entity-1="commit_and_push_commit_message_choice" data-entity-2="commit_and_push_commit_message" data-source-line="255" data-uid="lnk22" id="link_commit_and_push_commit_message_choice_commit_and_push_commit_message"><path d="M353.75,255.57 C353.75,283.69 353.75,350.38 353.75,370.27" fill="none" id="commit_and_push_commit_message_choice-to-commit_and_push_commit_message" style="stroke:#181818;stroke-width:1;"/><polygon fill="#181818" points="353.75,376.27,357.75,367.27,353.75,371.27,349.75,367.27,353.75,376.27" style="stroke:#181818;stroke-width:1;"/><text fill="#000000" font-family="sans-serif" font-size="13" lengthAdjust="spacing" textLength="33.9155" x="354.75" y="307.9269">None</text></g><!--link publish_experiment_log to publish_experiment_products_publish_experiment_log--><g class="link" data-entity-1="publish_experiment_log" data-entity-2="publish_experiment_products_publish_experiment_log" data-source-line="271" data-uid="lnk23" id="link_publish_experiment_log_publish_experiment_products_publish_experiment_log"><path d="M1303.75,579.81 C1303.75,594.95 1303.75,631.44 1303.75,646.21" fill="none" id="publish_experiment_log-to-publish_experiment_products_publish_experiment_log" style="stroke:#181818;stroke-width:1;"/><polygon fill="#181818" points="1303.75,652.21,1307.75,643.21,1303.75,647.21,1299.75,643.21,1303.75,652.21" style="stroke:#181818;stroke-width:1;"/></g><!--link publish_product_log to publish_experiment_products_publish_product_log--><g class="link" data-entity-1="publish_product_log" data-entity-2="publish_experiment_products_publish_product_log" data-source-line="276" data-uid="lnk24" id="link_publish_product_log_publish_experiment_products_publish_product_log"><path d="M1166.75,579.81 C1166.75,594.95 1166.75,631.44 1166.75,646.21" fill="none" id="publish_product_log-to-publish_experiment_products_publish_product_log" style="stroke:#181818;stroke-width:1;"/><polygon fill="#181818" points="1166.75,652.21,1170.75,643.21,1166.75,647.21,1162.75,643.21,1166.75,652.21" style="stroke:#181818;stroke-width:1;"/></g><!--link *start* to publish_experiment_products_job_id--><g class="link" data-entity-1=".start." data-entity-2="publish_experiment_products_job_id" data-source-line="281" data-uid="lnk26" id="link_.start._publish_experiment_products_job_id"><path d="M721.6,17.25 C668.86,18.73 421.18,28.2 226.75,79 C205.94,84.44 188.1636,92.6808 177.3336,98.1108" fill="none" id="*start*-to-publish_experiment_products_job_id" style="stroke:#181818;stroke-width:1;"/><polygon fill="#181818" points="171.97,100.8,181.8082,100.3419,176.4397,98.559,178.2226,93.1904,171.97,100.8" style="stroke:#181818;stroke-width:1;"/></g><!--link *start* to publish_experiment_products_project_id--><g class="link" data-entity-1=".start." data-entity-2="publish_experiment_products_project_id" data-source-line="283" data-uid="lnk27" id="link_.start._publish_experiment_products_project_id"><path d="M721.76,18.9 C659.76,30.68 334.4744,92.4593 285.6644,101.7393" fill="none" id="*start*-to-publish_experiment_products_project_id" style="stroke:#181818;stroke-width:1;"/><polygon fill="#181818" points="279.77,102.86,289.3587,105.1086,284.682,101.9261,287.8645,97.2494,279.77,102.86" style="stroke:#181818;stroke-width:1;"/></g><!--link *start* to publish_experiment_products_project_name--><g class="link" data-entity-1=".start." data-entity-2="publish_experiment_products_project_name" data-source-line="285" data-uid="lnk28" id="link_.start._publish_experiment_products_project_name"><path d="M724.71,23.26 C706.27,39.62 661.3675,79.4872 644.2075,94.7172" fill="none" id="*start*-to-publish_experiment_products_project_name" style="stroke:#181818;stroke-width:1;"/><polygon fill="#181818" points="639.72,98.7,649.1064,95.7175,643.4596,95.381,643.796,89.7342,639.72,98.7" style="stroke:#181818;stroke-width:1;"/></g><!--link *start* to publish_experiment_products_ogc_api_processes_endpoint--><g class="link" data-entity-1=".start." data-entity-2="publish_experiment_products_ogc_api_processes_endpoint" data-source-line="287" data-uid="lnk29" id="link_.start._publish_experiment_products_ogc_api_processes_endpoint"><path d="M740.27,21.43 C769.51,36.67 860.2181,83.9293 886.6481,97.6893" fill="none" id="*start*-to-publish_experiment_products_ogc_api_processes_endpoint" style="stroke:#181818;stroke-width:1;"/><polygon fill="#181818" points="891.97,100.46,885.8342,92.756,887.535,98.1511,882.1399,99.8519,891.97,100.46" style="stroke:#181818;stroke-width:1;"/></g><!--link *start* to publish_experiment_products_cwl_workflow_location--><g class="link" data-entity-1=".start." data-entity-2="publish_experiment_products_cwl_workflow_location" data-source-line="289" data-uid="lnk30" id="link_.start._publish_experiment_products_cwl_workflow_location"><path d="M741.42,19.32 C775.05,27.38 890.05,55.07 984.75,79 C1018.82,87.61 1053.7507,96.8312 1068.9007,100.8512" fill="none" id="*start*-to-publish_experiment_products_cwl_workflow_location" style="stroke:#181818;stroke-width:1;"/><polygon fill="#181818" points="1074.7,102.39,1067.0269,96.2156,1069.8672,101.1076,1064.9751,103.948,1074.7,102.39" style="stroke:#181818;stroke-width:1;"/></g><!--link *start* to publish_experiment_products_workflow_id--><g class="link" data-entity-1=".start." data-entity-2="publish_experiment_products_workflow_id" data-source-line="291" data-uid="lnk31" id="link_.start._publish_experiment_products_workflow_id"><path d="M731.75,26.31 C731.75,44.55 731.75,78.44 731.75,92.75" fill="none" id="*start*-to-publish_experiment_products_workflow_id" style="stroke:#181818;stroke-width:1;"/><polygon fill="#181818" points="731.75,98.75,735.75,89.75,731.75,93.75,727.75,89.75,731.75,98.75" style="stroke:#181818;stroke-width:1;"/></g><!--link *start* to publish_experiment_products_authorization_token--><g class="link" data-entity-1=".start." data-entity-2="publish_experiment_products_authorization_token" data-source-line="293" data-uid="lnk32" id="link_.start._publish_experiment_products_authorization_token"><path d="M741.59,17.96 C787.94,22.56 989.11,43.72 1150.75,79 C1181.14,85.63 1210.8544,95.2432 1224.8844,99.9732" fill="none" id="*start*-to-publish_experiment_products_authorization_token" style="stroke:#181818;stroke-width:1;"/><polygon fill="#181818" points="1230.57,101.89,1223.3195,95.2244,1225.832,100.2927,1220.7638,102.8052,1230.57,101.89" style="stroke:#181818;stroke-width:1;"/></g><!--link publish_experiment_products_publish_experiment_log to *end*--><g class="link" data-entity-1="publish_experiment_products_publish_experiment_log" data-entity-2=".end." data-source-line="297" data-uid="lnk34" id="link_publish_experiment_products_publish_experiment_log_.end."><path d="M1299.65,664.6 C1288.1,679.33 1258.9913,716.4477 1244.9613,734.3477" fill="none" id="publish_experiment_products_publish_experiment_log-to-*end*" style="stroke:#181818;stroke-width:1;"/><polygon fill="#181818" points="1241.26,739.07,1249.9602,734.4541,1244.3444,735.1347,1243.6638,729.519,1241.26,739.07" style="stroke:#181818;stroke-width:1;"/></g><!--link publish_experiment_products_publish_product_log to *end*--><g class="link" data-entity-1="publish_experiment_products_publish_product_log" data-entity-2=".end." data-source-line="299" data-uid="lnk35" id="link_publish_experiment_products_publish_product_log_.end."><path d="M1170.8,664.6 C1182.18,679.33 1210.84,716.4233 1224.68,734.3233" fill="none" id="publish_experiment_products_publish_product_log-to-*end*" style="stroke:#181818;stroke-width:1;"/><polygon fill="#181818" points="1228.35,739.07,1226.0094,729.5033,1225.2916,735.1144,1219.6805,734.3967,1228.35,739.07" style="stroke:#181818;stroke-width:1;"/></g><!--SRC=[xLbTRvim57tdLrXzgJGfQP9stHPLUThpj8UzJPFb68-u0Op0BCsc_VSPye41Vv52aar3LTN0lVUSUsmkX_JkrWEtu2D5GOeY492Of8WJ7oot06_2MP978VWn6J_SZoT58ASHoJYAaZcOJMQFeydRqVJXo_HnVZ-PJwVZzn_UYQWxprjHdm0I9NmBV9BXb2QSijWh3v7F2RX9ycL8inKaBmb9HTcOmoHbVevvTWDG1WpNmIyFYAFyjQ_sp9QG-hP4k0i3Jq_YRBhzp6ZC5ujMCH7-J31tALY5kXQDKKISonR1ji8im10bjCZ19Cj81adi9qMm5KQVQWCLcmDkMBh-7h8D31b6nVfQyPHPDgXZWiDoIB6siYZdAvRIdoK7oDcQsFahSfGmNl7JEFGdF8bMjeqn32Y7AKbOHZbBj_lTNaNMaW_hiI9upN8EVPgAZIFIocOKvM0xjEZXXNAvXGhjTnspIr__sXLfdGwxPByrv3Lgh8nYCksJ3DF8AB2UiiFe6uqM6Xvs73smUN0USCp3Se2U9K1LtzNb7djlpVScccwc3zX_2MbIe0ZeGGF7Hz41lTlZPm1z30HKQkd3-z0km-e7wH5T2kXH7yT7X58FYL4F2jWznG7OsKSCi6VKs2fvb94zw2InqWpQMiJbdoyrEZq8OBDk1rn7kpQ062fabJAAk5FqqIeLia2fZ3Z_t_ITRFgg5U_c-wITScdhrw8odFkhCxeA0wYaDAG7L01UWmtKq3gV4vG8_2rcq8doa7vG9d0rbb13wYokKCA-RcDe8zg3MWvVbbc-8nj06HbHeuSKSWQ3A05VhqSqanpK9ahGbt2AErQOHP6OGIZsOP8BKllFaPYqA21Y836AYoVexW_5EftgaPo0NuVMl2FE0Dao0MV4xBTBeqTlO1WCUXsztFzcWg-V2svRsYuLc8DFB2QzpW2yGd4WB4m1Htor7BMGJcEX-gZ_zvzX2bKxgik4Ec9gilHMs0Hc4BVHc_IsxToO_GszrPMSujgIb6FeHrh5hs- -MOittYITSXJlNvtoQkyhJfaEhjsfZjd2EPLGkHwdH9CXaEwr4-wa0bamw5QZkGD5WJy0]--></g></svg>